<?xml version="1.0" encoding="iso-8859-1"?>
<!-- Generator: Adobe Illustrator 19.0.0, SVG Export Plug-In . SVG Version: 6.00 Build 0)  -->
<svg version="1.1" id="Capa_1" xmlns="http://www.w3.org/2000/svg" xmlns:xlink="http://www.w3.org/1999/xlink" x="0px" y="0px"
	 viewBox="0 0 512 512" style="enable-background:new 0 0 512 512;" xml:space="preserve">
<g>
	<g>
		<path d="M448,0H64C52.218,0,42.667,9.551,42.667,21.333v469.333C42.667,502.449,52.218,512,64,512h384
			c11.782,0,21.333-9.551,21.333-21.333V21.333C469.333,9.551,459.782,0,448,0z M426.667,469.333H85.333V42.667h341.333V469.333z"/>
	</g>
</g>
<g>
	<g>
		<path d="M215.561,168.051c-9.326-9.258-21.277-15.421-34.227-17.651v45.013c1.614,0.802,3.119,1.806,4.48,2.987
			c8.356,8.306,8.396,21.814,0.09,30.17c-8.306,8.356-21.814,8.396-30.17,0.09c-8.356-8.306-8.396-21.814-0.09-30.17
			c0.03-0.03,0.06-0.06,0.09-0.09c1.361-1.181,2.867-2.184,4.48-2.987V150.4c-34.877,5.741-58.496,38.668-52.755,73.545
			c5.741,34.877,38.668,58.496,73.545,52.755c13.322-2.193,25.609-8.542,35.104-18.14h-0.213
			C240.795,233.475,240.646,192.953,215.561,168.051z"/>
	</g>
</g>
<g>
	<g>
		<path d="M232.843,372.923c-5.946-34.843-39.011-58.268-73.854-52.323c-13.126,2.24-25.227,8.518-34.616,17.96l1.067,0.213
			c-9.73,9.264-16.298,21.355-18.773,34.56h46.08c0.802-1.614,1.806-3.119,2.987-4.48c8.306-8.356,21.814-8.396,30.17-0.09
			s8.396,21.814,0.09,30.17c-8.306,8.356-21.814,8.396-30.17,0.09c-0.03-0.03-0.06-0.06-0.09-0.09
			c-1.181-1.361-2.184-2.866-2.987-4.48h-46.08c5.946,34.843,39.011,58.268,73.854,52.323
			C215.363,440.83,238.788,407.765,232.843,372.923z"/>
	</g>
</g>
<g>
	<g>
		<path d="M356.267,399.147c-8.306,8.356-21.814,8.396-30.17,0.09c-8.356-8.306-8.396-21.814-0.09-30.17
			c8.306-8.356,21.814-8.396,30.17-0.09c0.03,0.03,0.06,0.06,0.09,0.09l0.213-0.213c1.181,1.361,2.184,2.866,2.987,4.48h45.867
			c-5.891-34.852-38.92-58.329-73.772-52.438s-58.329,38.92-52.438,73.772c5.891,34.852,38.92,58.329,73.771,52.438
			c26.857-4.54,47.898-25.581,52.438-52.438h-46.08C358.451,396.28,357.447,397.785,356.267,399.147z"/>
	</g>
</g>
<g>
	<g>
		<path d="M404.542,203.788c-5.741-34.877-38.668-58.496-73.545-52.755c-13.322,2.193-25.609,8.542-35.104,18.14l0.213-1.067
			c-25.406,24.574-26.082,65.091-1.508,90.497c9.668,9.996,22.33,16.571,36.068,18.73v-45.867c-1.614-0.802-3.119-1.806-4.48-2.987
			c-8.356-8.306-8.396-21.814-0.09-30.17c8.306-8.356,21.814-8.396,30.17-0.09c8.356,8.306,8.396,21.814,0.09,30.17
			c-0.03,0.03-0.06,0.06-0.09,0.09c-1.361,1.181-2.867,2.184-4.48,2.987v45.867C386.664,271.592,410.283,238.665,404.542,203.788z"
			/>
	</g>
</g>
<g>
	<g>
		<rect x="170.667" y="64" width="170.667" height="42.667"/>
	</g>
</g>
<g>
</g>
<g>
</g>
<g>
</g>
<g>
</g>
<g>
</g>
<g>
</g>
<g>
</g>
<g>
</g>
<g>
</g>
<g>
</g>
<g>
</g>
<g>
</g>
<g>
</g>
<g>
</g>
<g>
</g>
</svg>
