<?xml version="1.0" encoding="iso-8859-1"?>
<!-- Generator: Adobe Illustrator 19.0.0, SVG Export Plug-In . SVG Version: 6.00 Build 0)  -->
<svg version="1.1" id="Capa_1" xmlns="http://www.w3.org/2000/svg" xmlns:xlink="http://www.w3.org/1999/xlink" x="0px" y="0px"
	 viewBox="0 0 512 512" style="enable-background:new 0 0 512 512;" xml:space="preserve">
<g>
	<g>
		<g>
			<polygon points="490.667,106.667 490.667,85.333 448,85.333 448,106.667 426.667,106.667 426.667,149.333 448,149.333 
				448,170.667 490.667,170.667 490.667,149.333 512,149.333 512,106.667 			"/>
			<polygon points="64,298.667 21.333,298.667 21.333,320 0,320 0,362.667 21.333,362.667 21.333,384 64,384 64,362.667 
				85.333,362.667 85.333,320 64,320 			"/>
			<polygon points="128,85.333 128,64 149.333,64 149.333,21.333 128,21.333 128,0 85.333,0 85.333,21.333 64,21.333 64,64 
				85.333,64 85.333,85.333 			"/>
			<path d="M362.667,120.533v-99.2C362.667,9.551,353.115,0,341.333,0h-128C201.551,0,192,9.551,192,21.333v99.2L111.36,221.44
				c-3.011,3.753-4.665,8.415-4.693,13.227v256c0,11.782,9.551,21.333,21.333,21.333h298.667c11.782,0,21.333-9.551,21.333-21.333
				v-256c-0.028-4.812-1.682-9.473-4.693-13.227L362.667,120.533z M234.667,42.667H320v64h-85.333V42.667z M405.333,469.333h-256
				V256h149.333v-42.667H172.373l51.2-64H330.24l51.2,64h-40.107V256h64V469.333z"/>
			<path d="M171.733,355.84c-1.448,4.363-1.448,9.077,0,13.44c1.067,3.413,27.093,78.72,105.6,78.72s104.533-75.307,105.6-78.507
				c1.448-4.363,1.448-9.077,0-13.44c-1.067-3.413-27.093-78.72-105.6-78.72S172.8,352.64,171.733,355.84z M339.627,362.667
				c-10.737,25.096-35.013,41.724-62.293,42.667c-27.297-0.891-51.599-17.536-62.293-42.667
				c10.694-25.131,34.996-41.776,62.293-42.667C304.631,320.891,328.932,337.536,339.627,362.667z"/>
			<circle cx="277.333" cy="362.667" r="21.333"/>
		</g>
	</g>
</g>
<g>
</g>
<g>
</g>
<g>
</g>
<g>
</g>
<g>
</g>
<g>
</g>
<g>
</g>
<g>
</g>
<g>
</g>
<g>
</g>
<g>
</g>
<g>
</g>
<g>
</g>
<g>
</g>
<g>
</g>
</svg>
