<?xml version="1.0" encoding="iso-8859-1"?>
<!-- Generator: Adobe Illustrator 19.0.0, SVG Export Plug-In . SVG Version: 6.00 Build 0)  -->
<svg version="1.1" id="Capa_1" xmlns="http://www.w3.org/2000/svg" xmlns:xlink="http://www.w3.org/1999/xlink" x="0px" y="0px"
	 viewBox="0 0 512.021 512.021" style="enable-background:new 0 0 512.021 512.021;" xml:space="preserve">
<g>
	<g>
		<g>
			<path d="M426.688,226.144v-23.467h42.667v-42.667h-192V74.678h-42.667v85.333h-192v42.667h42.667v23.467
				c-57.72,11.782-94.96,68.125-83.178,125.845c11.782,57.72,68.125,94.96,125.845,83.178
				c49.655-10.136,85.323-53.811,85.333-104.49h85.333c0.012,58.91,47.778,106.657,106.688,106.645
				c58.91-0.012,106.657-47.778,106.645-106.688C512.011,279.955,476.343,236.28,426.688,226.144z M106.688,394.678
				c-35.346,0-64-28.654-64-64s28.654-64,64-64c35.346,0,64,28.654,64,64S142.034,394.678,106.688,394.678z M307.648,288.011
				H204.394c-13.874-31.821-42.365-54.901-76.373-61.867v-23.467h256v23.467C350.013,233.11,321.522,256.19,307.648,288.011z
				 M405.354,394.678c-35.346,0-64-28.654-64-64s28.654-64,64-64c35.346,0,64,28.654,64,64S440.701,394.678,405.354,394.678z"/>
			<circle cx="256.021" cy="245.344" r="21.333"/>
		</g>
	</g>
</g>
<g>
</g>
<g>
</g>
<g>
</g>
<g>
</g>
<g>
</g>
<g>
</g>
<g>
</g>
<g>
</g>
<g>
</g>
<g>
</g>
<g>
</g>
<g>
</g>
<g>
</g>
<g>
</g>
<g>
</g>
</svg>
