<?xml version="1.0" encoding="iso-8859-1"?>
<!-- Generator: Adobe Illustrator 19.0.0, SVG Export Plug-In . SVG Version: 6.00 Build 0)  -->
<svg version="1.1" id="Capa_1" xmlns="http://www.w3.org/2000/svg" xmlns:xlink="http://www.w3.org/1999/xlink" x="0px" y="0px"
	 viewBox="0 0 512.17 512.17" style="enable-background:new 0 0 512.17 512.17;" xml:space="preserve">
<g>
	<g>
		<g>
			<path d="M509.311,266.751c3.811-6.601,3.811-14.733,0-21.333c-15.475-25.447-33.954-48.94-55.04-69.973l36.48-30.933
				l-26.667-32.853l-42.667,35.2c-17.719-14.188-36.967-26.352-57.387-36.267l37.76-65.493l-36.907-21.333l-40.747,71.68
				c-15.252-4.426-30.9-7.355-46.72-8.747V0.085h-42.667v86.613c-15.82,1.391-31.468,4.321-46.72,8.747l-41.387-71.68
				l-36.907,21.333l37.76,65.493c-17.442,8.467-34.018,18.613-49.493,30.293l-52.693-31.147l-21.333,36.693l40.107,24.32
				c-23.518,22.168-44.095,47.261-61.227,74.667c-3.811,6.601-3.811,14.733,0,21.333c15.475,25.447,33.954,48.94,55.04,69.973
				l-36.48,30.933l27.307,32.64l42.667-35.2c17.719,14.188,36.967,26.352,57.387,36.267l-39.253,65.707l36.907,21.333l41.387-71.68
				c15.252,4.426,30.9,7.355,46.72,8.747v86.613h42.667v-86.613c15.82-1.391,31.468-4.321,46.72-8.747l41.387,71.68l36.907-21.333
				l-37.76-65.493c20.419-9.915,39.668-22.079,57.387-36.267l42.667,35.2l26.24-32.853l-37.333-31.147
				C474.79,315.593,493.557,292.17,509.311,266.751z M256.085,384.085c-112.853,0-187.307-95.573-209.28-128
				c21.333-32.427,96.427-128,209.28-128s187.307,95.573,209.28,128C444.031,288.512,368.938,384.085,256.085,384.085z"/>
			<path d="M256.085,149.418c-58.91,0-106.667,47.756-106.667,106.667s47.756,106.667,106.667,106.667
				s106.667-47.756,106.667-106.667S314.995,149.418,256.085,149.418z M256.085,320.085c-35.346,0-64-28.654-64-64s28.654-64,64-64
				s64,28.654,64,64S291.431,320.085,256.085,320.085z"/>
			<circle cx="277.418" cy="234.751" r="21.333"/>
		</g>
	</g>
</g>
<g>
</g>
<g>
</g>
<g>
</g>
<g>
</g>
<g>
</g>
<g>
</g>
<g>
</g>
<g>
</g>
<g>
</g>
<g>
</g>
<g>
</g>
<g>
</g>
<g>
</g>
<g>
</g>
<g>
</g>
</svg>
