<?xml version="1.0" encoding="iso-8859-1"?>
<!-- Generator: Adobe Illustrator 19.0.0, SVG Export Plug-In . SVG Version: 6.00 Build 0)  -->
<svg version="1.1" id="Capa_1" xmlns="http://www.w3.org/2000/svg" xmlns:xlink="http://www.w3.org/1999/xlink" x="0px" y="0px"
	 viewBox="0 0 500.907 500.907" style="enable-background:new 0 0 500.907 500.907;" xml:space="preserve">
<g>
	<g>
		<g>
			<path d="M493.776,236.115c-0.453-0.505-0.93-0.988-1.429-1.448L236.347,0l-29.013,31.573l81.92,75.093
				c-79.47,22.058-126.012,104.363-103.954,183.833c14.014,50.489,53.465,89.94,103.954,103.954l-81.92,75.093l28.8,31.36
				l256-234.667C500.906,258.375,501.641,244.887,493.776,236.115z M221.841,260.267c-0.656-6.597-0.656-13.243,0-19.84
				c1.525-17.116,14.918-30.776,32-32.64c17.28,0,32,19.627,32,42.667s-14.72,42.667-32,42.667
				C236.686,291.239,223.27,277.465,221.841,260.267z M328.507,358.4v-1.28c-23.202-0.307-45.671-8.171-64-22.4
				c38.996-8.774,66.013-44.347,64-84.267c2.013-39.92-25.004-75.493-64-84.267c18.329-14.229,40.798-22.093,64-22.4v-1.28
				l117.76,107.947L328.507,358.4z"/>
			<path d="M136.507,207.787c11.782,0,21.333-9.551,21.333-21.333v-97.92l27.52,27.733l30.08-30.08l-64-64
				c-8.321-8.271-21.759-8.271-30.08,0l-64,64l30.293,30.08l27.52-27.733V156.8l-99.84-33.28L1.681,164.053l128,42.667
				C131.883,207.444,134.189,207.804,136.507,207.787z"/>
			<path d="M185.361,384.64l-27.52,27.733v-97.92c0.03-11.782-9.496-21.358-21.278-21.388c-2.34-0.006-4.665,0.373-6.882,1.122
				l-128,42.667l13.44,40.533l100.053-33.28v68.267l-27.52-27.733l-30.293,30.293l64,64c8.321,8.271,21.759,8.271,30.08,0l64-64
				L185.361,384.64z"/>
		</g>
	</g>
</g>
<g>
</g>
<g>
</g>
<g>
</g>
<g>
</g>
<g>
</g>
<g>
</g>
<g>
</g>
<g>
</g>
<g>
</g>
<g>
</g>
<g>
</g>
<g>
</g>
<g>
</g>
<g>
</g>
<g>
</g>
</svg>
