<?xml version="1.0" encoding="iso-8859-1"?>
<!-- Generator: Adobe Illustrator 19.0.0, SVG Export Plug-In . SVG Version: 6.00 Build 0)  -->
<svg version="1.1" id="Capa_1" xmlns="http://www.w3.org/2000/svg" xmlns:xlink="http://www.w3.org/1999/xlink" x="0px" y="0px"
	 viewBox="0 0 512 512" style="enable-background:new 0 0 512 512;" xml:space="preserve">
<g>
	<g>
		<path d="M256,0C114.615,0,0,114.615,0,256s114.615,256,256,256s256-114.615,256-256S397.385,0,256,0z M371.627,77.013l-64,111.36
			c-11.242-8.572-24.437-14.216-38.4-16.427L199.04,50.56C257.686,33.986,320.637,43.635,371.627,77.013z M298.667,256
			c0,23.564-19.103,42.667-42.667,42.667S213.333,279.564,213.333,256s19.103-42.667,42.667-42.667S298.667,232.436,298.667,256z
			 M158.393,66.52l63.9,110.76c-12.719,5.688-23.852,14.404-32.427,25.387H49.707C64.911,143.879,104.447,94.367,158.393,66.52z
			 M42.667,256c0-3.627,0-7.04,0-10.667h128c-0.226,3.552-0.226,7.115,0,10.667c0.08,10.521,2.105,20.936,5.973,30.72
			l-69.973,121.387C65.793,368.042,42.732,313.235,42.667,256z M140.16,434.987h0.213l64-111.36
			c11.242,8.572,24.437,14.216,38.4,16.427l69.973,121.387C254.1,478.014,191.15,468.365,140.16,434.987z M353.607,445.48
			l-63.9-110.76c12.719-5.688,23.852-14.404,32.427-25.387h140.16C447.089,368.121,407.553,417.633,353.607,445.48z
			 M341.333,266.667c0.226-3.552,0.226-7.115,0-10.667c-0.08-10.521-2.106-20.936-5.973-30.72l69.973-121.387
			c40.874,40.064,63.935,94.872,64,152.107c0,3.627,0,7.04,0,10.667H341.333z"/>
	</g>
</g>
<g>
</g>
<g>
</g>
<g>
</g>
<g>
</g>
<g>
</g>
<g>
</g>
<g>
</g>
<g>
</g>
<g>
</g>
<g>
</g>
<g>
</g>
<g>
</g>
<g>
</g>
<g>
</g>
<g>
</g>
</svg>
