<?xml version="1.0" encoding="iso-8859-1"?>
<!-- Generator: Adobe Illustrator 19.0.0, SVG Export Plug-In . SVG Version: 6.00 Build 0)  -->
<svg version="1.1" id="Capa_1" xmlns="http://www.w3.org/2000/svg" xmlns:xlink="http://www.w3.org/1999/xlink" x="0px" y="0px"
	 viewBox="0 0 500.693 500.693" style="enable-background:new 0 0 500.693 500.693;" xml:space="preserve">
<g>
	<g>
		<g>
			<path d="M468.883,235.89c-0.386-0.424-0.788-0.832-1.207-1.224L211.676,0l-29.013,31.573l81.92,75.093
				c-79.47,22.058-126.012,104.363-103.954,183.833c14.014,50.489,53.465,89.94,103.954,103.954l-81.92,74.88l28.8,31.36
				l256-234.667C476.177,258.097,476.813,244.604,468.883,235.89z M197.169,260.267c-0.657-6.597-0.657-13.243,0-19.84
				c1.525-17.116,14.918-30.776,32-32.64c17.28,0,32,19.627,32,42.667s-14.72,42.667-32,42.667
				C212.014,291.239,198.598,277.465,197.169,260.267z M303.836,358.4v-1.28c-23.202-0.307-45.671-8.171-64-22.4
				c38.996-8.774,66.013-44.347,64-84.267c2.013-39.92-25.004-75.493-64-84.267c18.329-14.229,40.798-22.093,64-22.4v-1.28
				l117.76,107.947L303.836,358.4z"/>
			<path d="M121.649,103.467c-6.865-3.36-15.003-2.79-21.333,1.493c-48.752,31.899-76.865,87.313-73.813,145.493
				c-3.19,58.054,24.665,113.44,73.173,145.493c9.681,6.716,22.973,4.312,29.688-5.368c2.471-3.561,3.798-7.791,3.805-12.125v-256
				C133.186,114.467,128.74,107.14,121.649,103.467z M90.503,328.533c-15.23-23.097-22.703-50.447-21.333-78.08
				c-1.37-27.633,6.103-54.983,21.333-78.08V328.533z"/>
		</g>
	</g>
</g>
<g>
</g>
<g>
</g>
<g>
</g>
<g>
</g>
<g>
</g>
<g>
</g>
<g>
</g>
<g>
</g>
<g>
</g>
<g>
</g>
<g>
</g>
<g>
</g>
<g>
</g>
<g>
</g>
<g>
</g>
</svg>
