<?xml version="1.0" encoding="iso-8859-1"?>
<!-- Generator: Adobe Illustrator 19.0.0, SVG Export Plug-In . SVG Version: 6.00 Build 0)  -->
<svg version="1.1" id="Capa_1" xmlns="http://www.w3.org/2000/svg" xmlns:xlink="http://www.w3.org/1999/xlink" x="0px" y="0px"
	 viewBox="0 0 512 512" style="enable-background:new 0 0 512 512;" xml:space="preserve">
<g>
	<g>
		<g>
			<path d="M463.36,91.733L378.027,6.4c-4.155-3.955-9.626-6.234-15.36-6.4H64C52.218,0,42.667,9.551,42.667,21.333v469.333
				C42.667,502.449,52.218,512,64,512h384c11.782,0,21.333-9.551,21.333-21.333v-384c0,0,0,0,0-1.28
				C469.048,100.265,466.928,95.418,463.36,91.733z M426.667,469.333H85.333V42.667h256v64c0,11.782,9.551,21.333,21.333,21.333h64
				V469.333z"/>
			<path d="M256,106.667c-78.507,0-104.533,75.307-105.6,78.507c-1.448,4.363-1.448,9.077,0,13.44
				c1.067,3.413,27.093,78.72,105.6,78.72s104.533-75.307,105.6-78.507c1.448-4.363,1.448-9.077,0-13.44
				C360.533,181.973,334.507,106.667,256,106.667z M256,234.667c-27.297-0.891-51.599-17.536-62.293-42.667
				c10.694-25.131,34.996-41.776,62.293-42.667c27.297,0.891,51.599,17.536,62.293,42.667
				C307.599,217.131,283.297,233.776,256,234.667z"/>
			<circle cx="256" cy="192" r="21.333"/>
			<rect x="149.333" y="298.667" width="128" height="42.667"/>
			<rect x="320" y="298.667" width="42.667" height="42.667"/>
			<rect x="149.333" y="384" width="85.333" height="42.667"/>
			<rect x="277.333" y="384" width="85.333" height="42.667"/>
		</g>
	</g>
</g>
<g>
</g>
<g>
</g>
<g>
</g>
<g>
</g>
<g>
</g>
<g>
</g>
<g>
</g>
<g>
</g>
<g>
</g>
<g>
</g>
<g>
</g>
<g>
</g>
<g>
</g>
<g>
</g>
<g>
</g>
</svg>
