<?xml version="1.0" encoding="iso-8859-1"?>
<!-- Generator: Adobe Illustrator 19.0.0, SVG Export Plug-In . SVG Version: 6.00 Build 0)  -->
<svg version="1.1" id="Capa_1" xmlns="http://www.w3.org/2000/svg" xmlns:xlink="http://www.w3.org/1999/xlink" x="0px" y="0px"
	 viewBox="0 0 506.266 506.266" style="enable-background:new 0 0 506.266 506.266;" xml:space="preserve">
<g>
	<g>
		<g>
			<path d="M341.786,312.453c66.344-82.721,53.067-203.561-29.653-269.905S108.571-10.52,42.228,72.201
				S-10.84,275.762,71.881,342.106c70.191,56.294,170.061,56.294,240.252,0l163.84,163.84l30.293-29.653L341.786,312.453z
				 M192.453,342.106c-82.474,0-149.333-66.859-149.333-149.333S109.978,43.439,192.453,43.439s149.333,66.859,149.333,149.333
				S274.927,342.106,192.453,342.106z"/>
			<path d="M298.053,185.946c-1.067-3.2-27.093-78.507-105.6-78.507s-104.533,75.307-105.6,78.507c-1.448,4.363-1.448,9.077,0,13.44
				c1.067,3.413,27.093,78.72,105.6,78.72s104.533-75.307,105.6-78.507C299.548,195.171,299.548,190.374,298.053,185.946z
				 M192.453,235.439c-27.297-0.891-51.599-17.536-62.293-42.667c10.694-25.131,34.996-41.776,62.293-42.667
				c27.297,0.891,51.599,17.536,62.293,42.667C244.052,217.904,219.75,234.549,192.453,235.439z"/>
			<circle cx="192.453" cy="192.773" r="21.333"/>
		</g>
	</g>
</g>
<g>
</g>
<g>
</g>
<g>
</g>
<g>
</g>
<g>
</g>
<g>
</g>
<g>
</g>
<g>
</g>
<g>
</g>
<g>
</g>
<g>
</g>
<g>
</g>
<g>
</g>
<g>
</g>
<g>
</g>
</svg>
