<?xml version="1.0" encoding="iso-8859-1"?>
<!-- Generator: Adobe Illustrator 19.0.0, SVG Export Plug-In . SVG Version: 6.00 Build 0)  -->
<svg version="1.1" id="Capa_1" xmlns="http://www.w3.org/2000/svg" xmlns:xlink="http://www.w3.org/1999/xlink" x="0px" y="0px"
	 viewBox="0 0 512 512" style="enable-background:new 0 0 512 512;" xml:space="preserve">
<g>
	<g>
		<g>
			<path d="M490.667,0H21.333C9.551,0,0,9.551,0,21.333v384c0,11.782,9.551,21.333,21.333,21.333H192v42.667h-42.667V512h213.333
				v-42.667H320v-42.667h170.667c11.782,0,21.333-9.551,21.333-21.333v-384C512,9.551,502.449,0,490.667,0z M277.333,469.333
				h-42.667v-42.667h42.667V469.333z M469.333,384H42.667v-42.667h426.667V384z M469.333,298.667H42.667v-256h426.667V298.667z"/>
			<path d="M192,256c78.507,0,104.533-75.307,105.6-78.507c1.448-4.363,1.448-9.077,0-13.44c-1.067-3.413-27.093-78.72-105.6-78.72
				S87.467,160.64,86.4,163.84c-1.448,4.363-1.448,9.077,0,13.44C87.467,180.693,113.493,256,192,256z M192,128
				c27.297,0.891,51.599,17.536,62.293,42.667C243.556,195.763,219.28,212.39,192,213.333
				c-27.297-0.891-51.599-17.536-62.293-42.667C140.401,145.536,164.703,128.891,192,128z"/>
			<circle cx="192" cy="170.667" r="21.333"/>
			<rect x="341.333" y="85.333" width="85.333" height="42.667"/>
			<rect x="341.333" y="149.333" width="42.667" height="42.667"/>
			<rect x="341.333" y="213.333" width="64" height="42.667"/>
		</g>
	</g>
</g>
<g>
</g>
<g>
</g>
<g>
</g>
<g>
</g>
<g>
</g>
<g>
</g>
<g>
</g>
<g>
</g>
<g>
</g>
<g>
</g>
<g>
</g>
<g>
</g>
<g>
</g>
<g>
</g>
<g>
</g>
</svg>
