<?xml version="1.0" encoding="iso-8859-1"?>
<!-- Generator: Adobe Illustrator 19.0.0, SVG Export Plug-In . SVG Version: 6.00 Build 0)  -->
<svg version="1.1" id="Capa_1" xmlns="http://www.w3.org/2000/svg" xmlns:xlink="http://www.w3.org/1999/xlink" x="0px" y="0px"
	 viewBox="0 0 511.976 511.976" style="enable-background:new 0 0 511.976 511.976;" xml:space="preserve">
<g>
	<g>
		<g>
			<path d="M255.988,149.364c35.346,0,64-28.654,64-64c0-30.293-37.76-68.48-49.28-79.573c-8.212-7.721-21.014-7.721-29.227,0
				c-11.733,11.093-49.493,49.28-49.493,79.573C191.988,120.711,220.642,149.364,255.988,149.364z M255.988,52.298
				c9.425,9.345,16.704,20.628,21.333,33.067c0,11.782-9.551,21.333-21.333,21.333c-11.782,0-21.333-9.551-21.333-21.333
				C239.296,72.932,246.574,61.651,255.988,52.298z"/>
			<path d="M453.535,241.738l-53.973,59.307c-22.478-79.352-105.028-125.458-184.38-102.98
				c-49.873,14.128-88.852,53.107-102.98,102.98l-53.76-59.307l-31.573,28.587l213.333,234.667
				c7.925,8.719,21.417,9.362,30.136,1.438c0.502-0.456,0.982-0.936,1.438-1.438l213.333-234.667L453.535,241.738z M246.174,234.698
				c6.597-0.657,13.243-0.657,19.84,0c17.116,1.525,30.776,14.918,32.64,32c0,17.28-19.627,32-42.667,32s-42.667-14.72-42.667-32
				C215.202,249.543,228.976,236.127,246.174,234.698z M255.988,458.698L149.321,341.364c0.307-23.202,8.171-45.671,22.4-64
				c8.774,38.996,44.347,66.013,84.267,64c39.92,2.013,75.493-25.004,84.267-64c14.229,18.329,22.093,40.798,22.4,64
				L255.988,458.698z"/>
		</g>
	</g>
</g>
<g>
</g>
<g>
</g>
<g>
</g>
<g>
</g>
<g>
</g>
<g>
</g>
<g>
</g>
<g>
</g>
<g>
</g>
<g>
</g>
<g>
</g>
<g>
</g>
<g>
</g>
<g>
</g>
<g>
</g>
</svg>
