<?xml version="1.0" encoding="iso-8859-1"?>
<!-- Generator: Adobe Illustrator 19.0.0, SVG Export Plug-In . SVG Version: 6.00 Build 0)  -->
<svg version="1.1" id="Capa_1" xmlns="http://www.w3.org/2000/svg" xmlns:xlink="http://www.w3.org/1999/xlink" x="0px" y="0px"
	 viewBox="0 0 488.534 488.534" style="enable-background:new 0 0 488.534 488.534;" xml:space="preserve">
<g>
	<g>
		<g>
			<path d="M447.808,40.632c-54.147-54.119-141.906-54.119-196.053,0l-211.2,211.2c-54.12,54.186-54.066,141.984,0.119,196.104
				c54.186,54.12,141.984,54.066,196.104-0.119c39.529-39.577,51.409-99.03,30.123-150.758l30.08-30.08
				c70.796,29.206,151.863-4.509,181.069-75.305C499.433,139.843,487.498,80.235,447.808,40.632z M206.315,417.805
				c-37.467,37.514-98.251,37.551-135.764,0.084s-37.551-98.251-0.084-135.765c37.467-37.514,98.251-37.551,135.764-0.084
				c0.028,0.028,0.056,0.056,0.084,0.084C243.749,319.606,243.749,380.325,206.315,417.805z M244.075,259.725
				c-2.347-2.773-4.693-5.333-7.253-7.893c-25.351-25.304-59.546-39.762-95.36-40.32l69.973-69.973
				c0.558,35.814,15.016,70.009,40.32,95.36c2.56,2.56,5.12,4.907,7.893,7.253L244.075,259.725z M417.942,206.605
				c-38.789,36.145-99.536,34-135.68-4.789c-34.354-36.868-34.354-94.023,0-130.891c38.789-36.145,99.536-34,135.68,4.789
				C452.296,112.582,452.296,169.738,417.942,206.605z"/>
			<path d="M153.622,349.966l-45.227-45.227l-30.293,30.08l60.373,60.373c8.321,8.271,21.759,8.271,30.08,0l45.227-45.227
				l-30.08-30.08L153.622,349.966z"/>
			<path d="M373.995,117.859l-24.32-24.32c-8.321-8.271-21.759-8.271-30.08,0l-30.293,30.08c-8.271,8.321-8.271,21.759,0,30.08
				l61.44,60.587l30.08-30.08l-15.147-14.507l53.973-27.093l-18.987-38.187L373.995,117.859z"/>
		</g>
	</g>
</g>
<g>
</g>
<g>
</g>
<g>
</g>
<g>
</g>
<g>
</g>
<g>
</g>
<g>
</g>
<g>
</g>
<g>
</g>
<g>
</g>
<g>
</g>
<g>
</g>
<g>
</g>
<g>
</g>
<g>
</g>
</svg>
