<?xml version="1.0" encoding="iso-8859-1"?>
<!-- Generator: Adobe Illustrator 19.0.0, SVG Export Plug-In . SVG Version: 6.00 Build 0)  -->
<svg version="1.1" id="Capa_1" xmlns="http://www.w3.org/2000/svg" xmlns:xlink="http://www.w3.org/1999/xlink" x="0px" y="0px"
	 viewBox="0 0 512 512" style="enable-background:new 0 0 512 512;" xml:space="preserve">
<g>
	<g>
		<path d="M416,0h-42.667c-19.2,0-36.267,8.533-46.933,21.333c-70.4,2.133-123.733,59.733-123.733,128V512h42.667V149.333
			c0-38.4,25.6-72.533,64-83.2V192c0,36.267,27.733,64,64,64h21.333v256h42.667V21.333C437.333,8.533,428.8,0,416,0z
			 M394.667,213.333h-21.333C360.533,213.333,352,204.8,352,192V64c0-12.8,8.533-21.333,21.333-21.333h21.333V213.333z"/>
	</g>
</g>
<g>
	<g>
		<path d="M108.8,25.6c-14.933-10.667-34.133,0-34.133,17.067v256c0,17.067,19.2,27.733,34.133,17.067
			c46.933-32,74.667-87.467,72.533-145.067C183.467,113.067,155.733,57.6,108.8,25.6z M117.333,249.6V91.733
			c14.933,23.467,23.467,51.2,21.333,78.933C140.8,198.4,132.267,226.133,117.333,249.6z"/>
	</g>
</g>
<g>
</g>
<g>
</g>
<g>
</g>
<g>
</g>
<g>
</g>
<g>
</g>
<g>
</g>
<g>
</g>
<g>
</g>
<g>
</g>
<g>
</g>
<g>
</g>
<g>
</g>
<g>
</g>
<g>
</g>
</svg>
