<?xml version="1.0" encoding="iso-8859-1"?>
<!-- Generator: Adobe Illustrator 19.0.0, SVG Export Plug-In . SVG Version: 6.00 Build 0)  -->
<svg version="1.1" id="Capa_1" xmlns="http://www.w3.org/2000/svg" xmlns:xlink="http://www.w3.org/1999/xlink" x="0px" y="0px"
	 viewBox="0 0 512.17 512.17" style="enable-background:new 0 0 512.17 512.17;" xml:space="preserve">
<g>
	<g>
		<path d="M509.311,245.418c-22.613-37.296-51.479-70.42-85.333-97.92l62.293-69.12l-32.64-28.587l-65.92,73.173
			c-39.615-24.321-85.143-37.307-131.627-37.547c-159.787,0-249.387,153.6-253.227,160c-3.811,6.601-3.811,14.733,0,21.333
			c22.613,37.296,51.479,70.42,85.333,97.92l-61.227,69.12l31.787,28.587l65.92-73.173c39.553,24.283,85.002,37.269,131.413,37.547
			c159.787,0,249.387-153.6,253.227-160C513.122,260.151,513.122,252.019,509.311,245.418z M117.845,332.458
			c-27.333-21.798-51.274-47.537-71.04-76.373c21.333-32.427,96.427-128,209.28-128c35.879,0.313,71.072,9.865,102.187,27.733
			l-24.747,27.307c-41.245-42.063-108.779-42.727-150.842-1.483c-28.646,28.089-39.109,69.876-27.078,108.149L117.845,332.458z
			 M234.751,265.685l26.667,26.667c8.115,8.542,21.618,8.888,30.16,0.773c0.264-0.251,0.522-0.509,0.773-0.773l27.733-29.653
			c-4.132,35.104-35.94,60.211-71.044,56.079c-15.888-1.87-30.5-9.624-40.956-21.732L234.751,265.685z M192.085,249.471
			c4.132-35.104,35.94-60.211,71.044-56.079c15.888,1.87,30.5,9.624,40.956,21.732l-26.667,31.36l-26.667-26.667
			c-8.115-8.542-21.618-8.888-30.16-0.773c-0.264,0.251-0.522,0.509-0.773,0.773L192.085,249.471z M256.085,384.085
			c-35.879-0.313-71.072-9.865-102.187-27.733l24.747-27.52c41.245,42.063,108.779,42.727,150.842,1.482
			c28.646-28.089,39.109-69.876,27.078-108.149l37.76-42.667c27.349,21.863,51.291,47.675,71.04,76.587
			C443.391,288.511,369.151,384.085,256.085,384.085z"/>
	</g>
</g>
<g>
</g>
<g>
</g>
<g>
</g>
<g>
</g>
<g>
</g>
<g>
</g>
<g>
</g>
<g>
</g>
<g>
</g>
<g>
</g>
<g>
</g>
<g>
</g>
<g>
</g>
<g>
</g>
<g>
</g>
</svg>
