<?xml version="1.0" encoding="iso-8859-1"?>
<!-- Generator: Adobe Illustrator 19.0.0, SVG Export Plug-In . SVG Version: 6.00 Build 0)  -->
<svg version="1.1" id="Capa_1" xmlns="http://www.w3.org/2000/svg" xmlns:xlink="http://www.w3.org/1999/xlink" x="0px" y="0px"
	 viewBox="0 0 512 512" style="enable-background:new 0 0 512 512;" xml:space="preserve">
<g>
	<g>
		<path d="M505.6,230.174L356.267,80.84c-8.533-8.533-25.6-8.533-32,4.267l-42.667,64l36.267,23.467l27.733-42.667l93.867,93.867
			H72.533l93.867-93.867l27.733,42.667l36.267-23.467l-42.667-64c-6.4-12.8-23.467-12.8-32-4.267L6.4,230.174
			C2.133,234.44,0,238.707,0,245.107v170.667c0,12.8,8.533,21.333,21.333,21.333h128c46.933,0,85.333-38.4,85.333-85.333
			c0-12.8,8.533-21.333,21.333-21.333s21.333,8.533,21.333,21.333c0,46.933,38.4,85.333,85.333,85.333h128
			c12.8,0,21.333-8.533,21.333-21.333V245.107C512,238.707,509.867,234.44,505.6,230.174z M192,351.774
			c0,23.467-19.2,42.667-42.667,42.667H42.667v-128H192V351.774z M277.333,292.04c-6.4-2.133-14.933-4.267-21.333-4.267
			s-14.933,2.133-21.333,4.267v-25.6h42.667V292.04z M469.333,394.44H362.667c-23.467,0-42.667-19.2-42.667-42.667V266.44h149.333
			V394.44z"/>
	</g>
</g>
<g>
</g>
<g>
</g>
<g>
</g>
<g>
</g>
<g>
</g>
<g>
</g>
<g>
</g>
<g>
</g>
<g>
</g>
<g>
</g>
<g>
</g>
<g>
</g>
<g>
</g>
<g>
</g>
<g>
</g>
</svg>
