<?xml version="1.0" encoding="iso-8859-1"?>
<!-- Generator: Adobe Illustrator 19.0.0, SVG Export Plug-In . SVG Version: 6.00 Build 0)  -->
<svg version="1.1" id="Capa_1" xmlns="http://www.w3.org/2000/svg" xmlns:xlink="http://www.w3.org/1999/xlink" x="0px" y="0px"
	 viewBox="0 0 512 512" style="enable-background:new 0 0 512 512;" xml:space="preserve">
<g>
	<g>
		<g>
			<path d="M213.333,298.667h85.333V256h-64v-42.667h64v-42.667h-64V128h64V85.333h-85.333c-11.782,0-21.333,9.551-21.333,21.333
				v170.667C192,289.115,201.551,298.667,213.333,298.667z"/>
			<circle cx="170.667" cy="362.667" r="21.333"/>
			<circle cx="256" cy="362.667" r="21.333"/>
			<circle cx="341.333" cy="362.667" r="21.333"/>
			<path d="M0,0v42.667h42.667V448c0,11.782,9.551,21.333,21.333,21.333h170.667V512h42.667v-42.667H448
				c11.782,0,21.333-9.551,21.333-21.333V42.667H512V0H0z M426.667,426.667H85.333v-384h341.333V426.667z"/>
		</g>
	</g>
</g>
<g>
</g>
<g>
</g>
<g>
</g>
<g>
</g>
<g>
</g>
<g>
</g>
<g>
</g>
<g>
</g>
<g>
</g>
<g>
</g>
<g>
</g>
<g>
</g>
<g>
</g>
<g>
</g>
<g>
</g>
</svg>
