<?xml version="1.0" encoding="iso-8859-1"?>
<!-- Generator: Adobe Illustrator 19.0.0, SVG Export Plug-In . SVG Version: 6.00 Build 0)  -->
<svg version="1.1" id="Capa_1" xmlns="http://www.w3.org/2000/svg" xmlns:xlink="http://www.w3.org/1999/xlink" x="0px" y="0px"
	 viewBox="0 0 512.17 512.17" style="enable-background:new 0 0 512.17 512.17;" xml:space="preserve">
<g>
	<g>
		<g>
			<path d="M509.311,245.418c-3.84-6.4-93.44-160-253.227-160s-249.387,153.6-253.227,160c-3.811,6.601-3.811,14.733,0,21.333
				c3.84,6.4,93.44,160,253.227,160s249.387-153.6,253.227-160C513.122,260.151,513.122,252.019,509.311,245.418z M256.085,384.085
				c-112.64,0-187.307-95.573-209.28-128c21.333-32.427,96.427-128,209.28-128s187.307,95.573,209.28,128
				C443.391,288.511,369.151,384.085,256.085,384.085z"/>
			<path d="M256.085,149.418c-58.91,0-106.667,47.756-106.667,106.667s47.756,106.667,106.667,106.667
				s106.667-47.756,106.667-106.667S314.995,149.418,256.085,149.418z M256.085,320.085c-35.346,0-64-28.654-64-64s28.654-64,64-64
				s64,28.654,64,64S291.431,320.085,256.085,320.085z"/>
			<circle cx="277.418" cy="234.751" r="21.333"/>
		</g>
	</g>
</g>
<g>
</g>
<g>
</g>
<g>
</g>
<g>
</g>
<g>
</g>
<g>
</g>
<g>
</g>
<g>
</g>
<g>
</g>
<g>
</g>
<g>
</g>
<g>
</g>
<g>
</g>
<g>
</g>
<g>
</g>
</svg>
