<svg xmlns="http://www.w3.org/2000/svg" xmlns:xlink="http://www.w3.org/1999/xlink" xmlns:fi="http://pattern.flaticon.com/" x="0" y="0" width="1200" height="600" viewBox="0 0 1050 525"><rect x="0px" y="0px" width="100%" height="100%" opacity="0" fill="#ffffff"/><defs><g transform="matrix(0.36309816818286805 0.09729186093781945 -0.09729186093781945 0.36309816818286805 318.1597012760055 294.8838812845195)" id="L1_428"><path d="M57.288,42.872L41.5,0H2.285v11.934h30.896l14.165,38.468l22.042,126.677h119.546l48.2-134.207    H57.288z" fill="#010002"/><path d="M92.534,188.702c-13.98,0-25.359,11.373-25.359,25.359c0,13.986,11.379,25.359,25.359,25.359    s25.359-11.373,25.359-25.359C117.893,200.075,106.515,188.702,92.534,188.702z" fill="#010002"/><path d="M158.17,188.702c-13.986,0-25.359,11.373-25.359,25.359c0,13.986,11.373,25.359,25.359,25.359    c13.986,0,25.359-11.373,25.359-25.359C183.529,200.075,172.156,188.702,158.17,188.702z" fill="#010002"/></g><g transform="matrix(0.04121841490268707 0 0 0.04121841490268707 77.5 340)" id="L1_429"><path d="M454.898,0.004h-60.653c-14.659,0-27.214,10.484-29.818,24.908L324.832,242.61h-184.77L57.466,77.419    c-7.479-14.986-25.662-21.056-40.694-13.565C1.788,71.347-4.282,89.56,3.209,104.546l90.978,181.955    c5.138,10.277,15.637,16.76,27.127,16.76H313.78l-5.503,30.327H151.641c-16.748,0-30.327,13.566-30.327,30.331    c0,16.759,13.579,30.321,30.327,30.321h181.956c14.659,0,27.214-10.481,29.822-24.908l56.149-308.678h35.33    c16.76,0,30.322-13.562,30.322-30.324C485.22,13.571,471.658,0.004,454.898,0.004z"/><path d="M181.965,424.563c-16.746,0-30.324,13.562-30.324,30.327c0,16.764,13.579,30.326,30.324,30.326    c16.748,0,30.327-13.562,30.327-30.326C212.292,438.125,198.713,424.563,181.965,424.563z"/><path d="M303.264,424.563c-16.759,0-30.321,13.562-30.321,30.327c0,16.764,13.562,30.326,30.321,30.326    c16.77,0,30.332-13.562,30.332-30.326C333.596,438.125,320.034,424.563,303.264,424.563z"/></g><g transform="matrix(0.09211962670087814 0 0 0.09211962670087814 155 330)" id="L1_430"><circle cx="85" cy="371" r="40" fill="#010002"/><path d="M286.278,371.747c0-22.305-18.07-40.399-40.358-40.399c-22.28,0-40.375,18.086-40.375,40.399   c0,22.28,18.094,40.358,40.375,40.358C268.208,412.105,286.278,394.028,286.278,371.747z" fill="#010002"/><path d="M426.813,22.113c-4.081,0-7.389,3.585-7.389,8.007v8.007h-72.507   c-5.308,0-11.364,3.934-13.542,8.779l-25.581,57.282H22.018c-15.94,0-25.312,12.42-20.947,27.743l44.756,157.288   c4.365,15.322,20.801,27.743,36.741,27.743h174.854c15.932,0,32.376-12.42,36.741-27.743l44.788-157.288   c4.349-15.322,4.544-27.743,0.415-27.743h-7.486l17.72-39.984c2.154-4.861,8.194-8.787,13.51-8.787h61.493   c5.308,0,9.616-4.3,9.616-9.616V31.729C434.202,26.413,430.902,22.113,426.813,22.113z M92.566,287.161   c-0.691,0.146-1.366,0.211-2.032,0.211c-4.438,0-8.421-3.089-9.38-7.6L52.305,145.171c-1.122-5.194,2.195-10.307,7.381-11.413   c5.243-1.187,10.299,2.195,11.413,7.373l28.84,134.601C101.061,280.927,97.752,286.048,92.566,287.161z M151.035,277.756   c0,5.308-4.3,9.616-9.616,9.616c-5.316,0-9.616-4.3-9.616-9.616V143.163c0-5.316,4.292-9.624,9.616-9.624   c5.308,0,9.616,4.3,9.616,9.624V277.756z M212.723,277.756c0,5.308-4.3,9.616-9.616,9.616c-5.316,0-9.616-4.3-9.616-9.616V143.163   c0-5.316,4.292-9.624,9.616-9.624c5.308,0,9.616,4.3,9.616,9.624V277.756z M292.22,145.179L263.38,279.78   c-0.967,4.511-4.958,7.6-9.388,7.6c-0.667,0-1.341-0.073-2.024-0.211c-5.194-1.114-8.503-6.235-7.381-11.421l28.848-134.601   c1.105-5.186,6.153-8.535,11.413-7.373C290.042,134.864,293.342,139.985,292.22,145.179z" fill="#010002"/></g><g transform="matrix(0.04121892526745796 0 0 0.04121892526745796 252.5 340)" id="L1_431"><path d="M470.051,0.001h-75.817c-7.312,0-13.59,5.243-14.92,12.438l-41.85,230.168H130.01L28.268,68.177    c-4.235-7.227-13.521-9.656-20.745-5.451c-7.227,4.207-9.67,13.506-5.463,20.731l106.139,181.955    c2.723,4.682,7.714,7.519,13.105,7.519h210.653l-11.019,60.654h-169.31c-8.38,0-15.161,6.785-15.161,15.163    c0,8.382,6.781,15.158,15.161,15.158h181.954c7.317,0,13.595-5.236,14.925-12.433l58.376-321.146h63.169    c8.377,0,15.163-6.781,15.163-15.164C485.214,6.782,478.428,0.001,470.051,0.001z"/><path d="M197.116,394.238c-25.114,0-45.488,20.349-45.488,45.49s20.374,45.485,45.488,45.485c25.113,0,45.49-20.344,45.49-45.485    S222.229,394.238,197.116,394.238z"/><path d="M318.417,394.238c-25.142,0-45.49,20.349-45.49,45.49s20.349,45.485,45.49,45.485c25.146,0,45.49-20.344,45.49-45.485    S343.564,394.238,318.417,394.238z"/></g><g transform="matrix(0.11030162125825882 0 0 0.11030162125825882 67.5 67.5)" id="L1_432"><path d="M352.709,52.494c-2.702-3.843-7.098-6.125-11.781-6.125H87.219L70.298,8.542C67.968,3.338,62.816,0,57.132,0H21.722    c-7.956,0-14.42,6.464-14.42,14.426s6.458,14.412,14.42,14.412H47.78l16.186,36.188l32.029,184.102    c1.198,6.905,7.206,11.949,14.217,11.949h163.967c6.077,0,11.505-3.831,13.577-9.548l66.743-185.875    C356.072,61.252,355.418,56.325,352.709,52.494z"/><path d="M150.191,279.307c-22.974,0-41.673,18.687-41.673,41.673c0,22.975,18.699,41.662,41.673,41.662    c22.972,0,41.661-18.688,41.661-41.662C191.853,297.993,173.163,279.307,150.191,279.307z"/><path d="M268.606,279.307c-22.975,0-41.674,18.687-41.674,41.673c0,22.975,18.711,41.662,41.674,41.662    c22.962,0,41.661-18.688,41.661-41.662C310.268,297.993,291.58,279.307,268.606,279.307z"/></g><g transform="matrix(0.078125 0 0 0.078125 242.5 67.5)" id="L1_433"><path d="M473.668,139.109 410.282,303.914 153.733,303.914 98.973,30.118 0,30.118 0,71.187 65.305,71.187     120.064,344.984 438.488,344.984 512,153.853z"/><path d="M191.658,358.674c-33.969,0-61.604,27.636-61.604,61.604s27.636,61.604,61.604,61.604    c33.969,0,61.604-27.636,61.604-61.604S225.626,358.674,191.658,358.674z"/><path d="M369.626,358.674c-33.969,0-61.604,27.636-61.604,61.604s27.636,61.604,61.604,61.604    c33.969,0,61.604-27.636,61.604-61.604S403.594,358.674,369.626,358.674z"/><path d="M376.108,104.419c-4.805-13.676-11.458-25.504-19.96-35.484c-8.501-9.98-18.609-17.799-30.309-23.471    c-11.706-5.666-24.338-8.501-37.887-8.501c-13.803,0-26.491,2.835-38.071,8.501c-11.586,5.672-21.623,13.491-30.124,23.471    c-8.501,9.98-15.155,21.808-19.96,35.484c-4.805,13.676-7.208,28.646-7.208,44.91c0,16.263,2.403,31.233,7.208,44.909    c4.805,13.676,11.458,25.504,19.96,35.484c8.501,9.98,18.539,17.742,30.124,23.286c11.58,5.544,24.268,8.317,38.071,8.317    c13.549,0,26.18-2.772,37.887-8.317c11.701-5.544,21.808-13.308,30.309-23.286c8.501-9.98,15.155-21.808,19.96-35.484    c4.805-13.676,7.208-28.646,7.208-44.909C383.315,133.065,380.913,118.095,376.108,104.419z M330.089,176.311    c-2.218,8.132-5.36,15.155-9.425,21.069c-4.066,5.914-8.871,10.477-14.415,13.676c-5.544,3.205-11.643,4.805-18.297,4.805    c-6.901,0-13.122-1.6-18.666-4.805c-5.544-3.201-10.349-7.762-14.415-13.676c-4.066-5.914-7.208-12.937-9.425-21.069    c-2.218-8.132-3.327-17.125-3.327-26.983c0-9.853,1.109-18.908,3.327-27.167c2.218-8.254,5.36-15.339,9.425-21.253    c4.066-5.914,8.871-10.47,14.415-13.676c5.544-3.199,11.765-4.805,18.666-4.805c6.653,0,12.752,1.606,18.297,4.805    c5.544,3.206,10.349,7.762,14.415,13.676c4.066,5.914,7.208,13.001,9.425,21.253c2.218,8.258,3.327,17.315,3.327,27.167    C333.416,159.187,332.307,168.18,330.089,176.311z"/></g><g transform="matrix(1.479164958000183 0 0 1.479164958000183 315 140)" id="L1_434"><path d="M46.029,6.85c-0.353-0.501-0.926-0.799-1.539-0.799H11.382l-2.21-4.938C8.87,0.436,8.196,0,7.456,0H2.834    C1.795,0,0.953,0.843,0.953,1.882s0.843,1.882,1.882,1.882h3.401l2.112,4.722l4.181,24.025c0.156,0.901,0.939,1.56,1.854,1.56    h21.396c0.795,0,1.504-0.498,1.771-1.246l8.71-24.255C46.468,7.992,46.382,7.351,46.029,6.85z M34.457,30.307H15.965L12.4,9.815    h29.416L34.457,30.307z"/><path d="M19.601,36.449c-2.998,0-5.438,2.438-5.438,5.438s2.44,5.438,5.438,5.438s5.438-2.438,5.438-5.438    S22.599,36.449,19.601,36.449z M19.601,43.562c-0.924,0-1.675-0.75-1.675-1.675c0-0.924,0.751-1.675,1.675-1.675    c0.923,0,1.674,0.751,1.674,1.675C21.274,42.812,20.523,43.562,19.601,43.562z"/><path d="M35.054,36.449c-2.999,0-5.438,2.438-5.438,5.438s2.438,5.438,5.438,5.438c2.997,0,5.438-2.438,5.438-5.438    S38.051,36.449,35.054,36.449z M35.054,43.562c-0.924,0-1.675-0.75-1.675-1.675c0-0.924,0.751-1.675,1.675-1.675    c0.922,0,1.674,0.751,1.674,1.675C36.728,42.812,35.976,43.562,35.054,43.562z"/></g><g transform="matrix(0.1363201766329438 -0.03652688124086529 0.03652688124086529 0.1363201766329438 132.13392952808607 150.25126262355525)" id="L1_435"><path d="m456 176h-168v-136c0-22.054688-17.945312-40-40-40s-40 17.945312-40 40v136h-168c-22.054688 0-40 17.945312-40 40 0 19.3125 13.769531 35.472656 32 39.191406v200.808594c0 22.054688 17.945312 40 40 40h352c22.054688 0 40-17.945312 40-40v-200.808594c18.230469-3.71875 32-19.871094 32-39.191406 0-22.054688-17.945312-40-40-40zm-232-136c0-13.230469 10.769531-24 24-24s24 10.769531 24 24v160c0 13.230469-10.769531 24-24 24s-24-10.769531-24-24zm200 440h-352c-13.230469 0-24-10.769531-24-24v-200h400v200c0 13.230469-10.769531 24-24 24zm32-240h-416c-13.230469 0-24-10.769531-24-24s10.769531-24 24-24h168v8c0 22.054688 17.945312 40 40 40s40-17.945312 40-40v-8h168c13.230469 0 24 10.769531 24 24s-10.769531 24-24 24zm0 0"/><path d="m192 288c-17.648438 0-32 14.351562-32 32v96c0 17.648438 14.351562 32 32 32s32-14.351562 32-32v-96c0-17.648438-14.351562-32-32-32zm16 128c0 8.824219-7.175781 16-16 16s-16-7.175781-16-16v-96c0-8.824219 7.175781-16 16-16s16 7.175781 16 16zm0 0"/><path d="m112 288c-17.648438 0-32 14.351562-32 32v96c0 17.648438 14.351562 32 32 32s32-14.351562 32-32v-96c0-17.648438-14.351562-32-32-32zm16 128c0 8.824219-7.175781 16-16 16s-16-7.175781-16-16v-96c0-8.824219 7.175781-16 16-16s16 7.175781 16 16zm0 0"/><path d="m304 288c-17.648438 0-32 14.351562-32 32v96c0 17.648438 14.351562 32 32 32s32-14.351562 32-32v-96c0-17.648438-14.351562-32-32-32zm16 128c0 8.824219-7.175781 16-16 16s-16-7.175781-16-16v-96c0-8.824219 7.175781-16 16-16s16 7.175781 16 16zm0 0"/><path d="m384 288c-17.648438 0-32 14.351562-32 32v96c0 17.648438 14.351562 32 32 32s32-14.351562 32-32v-96c0-17.648438-14.351562-32-32-32zm16 128c0 8.824219-7.175781 16-16 16s-16-7.175781-16-16v-96c0-8.824219 7.175781-16 16-16s16 7.175781 16 16zm0 0"/><path d="m240 192h16v16h-16zm0 0"/><path d="m416 160c44.113281 0 80-35.886719 80-80s-35.886719-80-80-80-80 35.886719-80 80 35.886719 80 80 80zm0-144c35.289062 0 64 28.710938 64 64s-28.710938 64-64 64-64-28.710938-64-64 28.710938-64 64-64zm0 0"/><path d="m368 72h96v16h-96zm0 0"/></g><path d="M444.274,93.36c-2.558-3.666-6.674-5.932-11.145-6.123L155.942,75.289c-7.953-0.348-14.599,5.792-14.939,13.708   c-0.338,7.913,5.792,14.599,13.707,14.939l258.421,11.14L362.32,273.61H136.205L95.354,51.179   c-0.898-4.875-4.245-8.942-8.861-10.753L19.586,14.141c-7.374-2.887-15.695,0.735-18.591,8.1c-2.891,7.369,0.73,15.695,8.1,18.591   l59.491,23.371l41.572,226.335c1.253,6.804,7.183,11.746,14.104,11.746h6.896l-15.747,43.74c-1.318,3.664-0.775,7.733,1.468,10.916   c2.24,3.184,5.883,5.078,9.772,5.078h11.045c-6.844,7.617-11.045,17.646-11.045,28.675c0,23.718,19.299,43.012,43.012,43.012   s43.012-19.294,43.012-43.012c0-11.028-4.201-21.058-11.044-28.675h93.777c-6.847,7.617-11.047,17.646-11.047,28.675   c0,23.718,19.294,43.012,43.012,43.012c23.719,0,43.012-19.294,43.012-43.012c0-11.028-4.2-21.058-11.042-28.675h13.432   c6.6,0,11.948-5.349,11.948-11.947c0-6.6-5.349-11.948-11.948-11.948H143.651l12.902-35.843h216.221   c6.235,0,11.752-4.028,13.651-9.96l59.739-186.387C447.536,101.679,446.832,97.028,444.274,93.36z M169.664,409.814   c-10.543,0-19.117-8.573-19.117-19.116s8.574-19.117,19.117-19.117s19.116,8.574,19.116,19.117S180.207,409.814,169.664,409.814z    M327.373,409.814c-10.543,0-19.116-8.573-19.116-19.116s8.573-19.117,19.116-19.117s19.116,8.574,19.116,19.117   S337.916,409.814,327.373,409.814z" transform="matrix(0.11189362406730652 0 0 0.11189362406730652 62.5 237.5)" id="L1_436"/><g transform="matrix(0.38307327032089233 0 0 0.38307327032089233 217.5 217.5)" id="L1_437"><path d="M56.216,42.07L40.724,0H2.241v11.71h30.32l13.9,37.75L68.09,173.77H185.4l47.3-131.7H56.216z     M177.161,162.06H77.934L59.096,53.781h156.953L177.161,162.06z" fill="#030303"/><path d="M90.802,185.172c-13.717,0-24.885,11.161-24.885,24.885c0,13.723,11.167,24.885,24.885,24.885    c13.721,0,24.885-11.162,24.885-24.885C115.687,196.333,104.522,185.172,90.802,185.172z M90.802,223.231    c-7.265,0-13.174-5.912-13.174-13.174c0-7.263,5.91-13.175,13.174-13.175c7.268,0,13.174,5.912,13.174,13.175    C103.976,217.319,98.069,223.231,90.802,223.231z" fill="#030303"/><path d="M155.209,185.172c-13.723,0-24.885,11.161-24.885,24.885c0,13.723,11.162,24.885,24.885,24.885    c13.724,0,24.886-11.162,24.886-24.885C180.095,196.333,168.933,185.172,155.209,185.172z M155.209,223.231    c-7.262,0-13.174-5.912-13.174-13.174c0-7.263,5.912-13.175,13.174-13.175c7.263,0,13.175,5.912,13.175,13.175    C168.384,217.319,162.472,223.231,155.209,223.231z" fill="#030303"/></g></defs><g fi:class="KUsePattern"><pattern id="pattern_L1_428" width="350" height="350" patternUnits="userSpaceOnUse"><use xlink:href="#L1_428" x="-350" y="-350"/><use xlink:href="#L1_428" x="0" y="-350"/><use xlink:href="#L1_428" x="350" y="-350"/><use xlink:href="#L1_428" x="-350" y="0"/><use xlink:href="#L1_428" x="0" y="0"/><use xlink:href="#L1_428" x="350" y="0"/><use xlink:href="#L1_428" x="-350" y="350"/><use xlink:href="#L1_428" x="0" y="350"/><use xlink:href="#L1_428" x="350" y="350"/></pattern><rect x="0" y="0" width="100%" height="100%" fill="url(#pattern_L1_428)"/></g><g fi:class="KUsePattern"><pattern id="pattern_L1_429" width="350" height="350" patternUnits="userSpaceOnUse"><use xlink:href="#L1_429" x="-350" y="-350"/><use xlink:href="#L1_429" x="0" y="-350"/><use xlink:href="#L1_429" x="350" y="-350"/><use xlink:href="#L1_429" x="-350" y="0"/><use xlink:href="#L1_429" x="0" y="0"/><use xlink:href="#L1_429" x="350" y="0"/><use xlink:href="#L1_429" x="-350" y="350"/><use xlink:href="#L1_429" x="0" y="350"/><use xlink:href="#L1_429" x="350" y="350"/></pattern><rect x="0" y="0" width="100%" height="100%" fill="url(#pattern_L1_429)"/></g><g fi:class="KUsePattern"><pattern id="pattern_L1_430" width="350" height="350" patternUnits="userSpaceOnUse"><use xlink:href="#L1_430" x="-350" y="-350"/><use xlink:href="#L1_430" x="0" y="-350"/><use xlink:href="#L1_430" x="350" y="-350"/><use xlink:href="#L1_430" x="-350" y="0"/><use xlink:href="#L1_430" x="0" y="0"/><use xlink:href="#L1_430" x="350" y="0"/><use xlink:href="#L1_430" x="-350" y="350"/><use xlink:href="#L1_430" x="0" y="350"/><use xlink:href="#L1_430" x="350" y="350"/></pattern><rect x="0" y="0" width="100%" height="100%" fill="url(#pattern_L1_430)"/></g><g fi:class="KUsePattern"><pattern id="pattern_L1_431" width="350" height="350" patternUnits="userSpaceOnUse"><use xlink:href="#L1_431" x="-350" y="-350"/><use xlink:href="#L1_431" x="0" y="-350"/><use xlink:href="#L1_431" x="350" y="-350"/><use xlink:href="#L1_431" x="-350" y="0"/><use xlink:href="#L1_431" x="0" y="0"/><use xlink:href="#L1_431" x="350" y="0"/><use xlink:href="#L1_431" x="-350" y="350"/><use xlink:href="#L1_431" x="0" y="350"/><use xlink:href="#L1_431" x="350" y="350"/></pattern><rect x="0" y="0" width="100%" height="100%" fill="url(#pattern_L1_431)"/></g><g fi:class="KUsePattern"><pattern id="pattern_L1_432" width="350" height="350" patternUnits="userSpaceOnUse"><use xlink:href="#L1_432" x="-350" y="-350"/><use xlink:href="#L1_432" x="0" y="-350"/><use xlink:href="#L1_432" x="350" y="-350"/><use xlink:href="#L1_432" x="-350" y="0"/><use xlink:href="#L1_432" x="0" y="0"/><use xlink:href="#L1_432" x="350" y="0"/><use xlink:href="#L1_432" x="-350" y="350"/><use xlink:href="#L1_432" x="0" y="350"/><use xlink:href="#L1_432" x="350" y="350"/></pattern><rect x="0" y="0" width="100%" height="100%" fill="url(#pattern_L1_432)"/></g><g fi:class="KUsePattern"><pattern id="pattern_L1_433" width="350" height="350" patternUnits="userSpaceOnUse"><use xlink:href="#L1_433" x="-350" y="-350"/><use xlink:href="#L1_433" x="0" y="-350"/><use xlink:href="#L1_433" x="350" y="-350"/><use xlink:href="#L1_433" x="-350" y="0"/><use xlink:href="#L1_433" x="0" y="0"/><use xlink:href="#L1_433" x="350" y="0"/><use xlink:href="#L1_433" x="-350" y="350"/><use xlink:href="#L1_433" x="0" y="350"/><use xlink:href="#L1_433" x="350" y="350"/></pattern><rect x="0" y="0" width="100%" height="100%" fill="url(#pattern_L1_433)"/></g><g fi:class="KUsePattern"><pattern id="pattern_L1_434" width="350" height="350" patternUnits="userSpaceOnUse"><use xlink:href="#L1_434" x="-350" y="-350"/><use xlink:href="#L1_434" x="0" y="-350"/><use xlink:href="#L1_434" x="350" y="-350"/><use xlink:href="#L1_434" x="-350" y="0"/><use xlink:href="#L1_434" x="0" y="0"/><use xlink:href="#L1_434" x="350" y="0"/><use xlink:href="#L1_434" x="-350" y="350"/><use xlink:href="#L1_434" x="0" y="350"/><use xlink:href="#L1_434" x="350" y="350"/></pattern><rect x="0" y="0" width="100%" height="100%" fill="url(#pattern_L1_434)"/></g><g fi:class="KUsePattern"><pattern id="pattern_L1_435" width="350" height="350" patternUnits="userSpaceOnUse"><use xlink:href="#L1_435" x="-350" y="-350"/><use xlink:href="#L1_435" x="0" y="-350"/><use xlink:href="#L1_435" x="350" y="-350"/><use xlink:href="#L1_435" x="-350" y="0"/><use xlink:href="#L1_435" x="0" y="0"/><use xlink:href="#L1_435" x="350" y="0"/><use xlink:href="#L1_435" x="-350" y="350"/><use xlink:href="#L1_435" x="0" y="350"/><use xlink:href="#L1_435" x="350" y="350"/></pattern><rect x="0" y="0" width="100%" height="100%" fill="url(#pattern_L1_435)"/></g><g fi:class="KUsePattern"><pattern id="pattern_L1_436" width="350" height="350" patternUnits="userSpaceOnUse"><use xlink:href="#L1_436" x="-350" y="-350"/><use xlink:href="#L1_436" x="0" y="-350"/><use xlink:href="#L1_436" x="350" y="-350"/><use xlink:href="#L1_436" x="-350" y="0"/><use xlink:href="#L1_436" x="0" y="0"/><use xlink:href="#L1_436" x="350" y="0"/><use xlink:href="#L1_436" x="-350" y="350"/><use xlink:href="#L1_436" x="0" y="350"/><use xlink:href="#L1_436" x="350" y="350"/></pattern><rect x="0" y="0" width="100%" height="100%" fill="url(#pattern_L1_436)"/></g><g fi:class="KUsePattern"><pattern id="pattern_L1_437" width="350" height="350" patternUnits="userSpaceOnUse"><use xlink:href="#L1_437" x="-350" y="-350"/><use xlink:href="#L1_437" x="0" y="-350"/><use xlink:href="#L1_437" x="350" y="-350"/><use xlink:href="#L1_437" x="-350" y="0"/><use xlink:href="#L1_437" x="0" y="0"/><use xlink:href="#L1_437" x="350" y="0"/><use xlink:href="#L1_437" x="-350" y="350"/><use xlink:href="#L1_437" x="0" y="350"/><use xlink:href="#L1_437" x="350" y="350"/></pattern><rect x="0" y="0" width="100%" height="100%" fill="url(#pattern_L1_437)"/></g></svg>