<svg xmlns="http://www.w3.org/2000/svg" xmlns:xlink="http://www.w3.org/1999/xlink" xmlns:fi="http://pattern.flaticon.com/" x="0" y="0" width="1200" height="600" viewBox="0 0 1050 525"><rect x="0px" y="0px" width="100%" height="100%" opacity="0" fill="#ffffff"/><defs><g transform="matrix(0.4316729812039003 0.11566642670792028 -0.11566642670792028 0.4316729812039003 318.1578057852992 294.8835916870153)" id="L1_543"><path d="M129.413,24.885C127.389,10.699,115.041,0,100.692,0C91.464,0,82.7,4.453,77.251,11.916    c-1.113,1.522-0.78,3.657,0.742,4.77c1.517,1.109,3.657,0.78,4.768-0.744c4.171-5.707,10.873-9.115,17.93-9.115    c10.974,0,20.415,8.178,21.963,19.021c0.244,1.703,1.705,2.932,3.376,2.932c0.159,0,0.323-0.012,0.486-0.034    C128.382,28.479,129.679,26.75,129.413,24.885z"/><path d="M178.712,63.096l-10.24-17.067c-0.616-1.029-1.727-1.657-2.927-1.657h-9.813c-1.884,0-3.413,1.529-3.413,3.413    s1.529,3.413,3.413,3.413h7.881l6.144,10.24H31.626l6.144-10.24h3.615c1.884,0,3.413-1.529,3.413-3.413s-1.529-3.413-3.413-3.413    h-5.547c-1.2,0-2.311,0.628-2.927,1.657l-10.24,17.067c-0.633,1.056-0.648,2.369-0.043,3.439s1.739,1.732,2.97,1.732h150.187    c1.231,0,2.364-0.662,2.97-1.732S179.345,64.15,178.712,63.096z"/><path d="M161.698,31.623c-0.478-0.771-1.241-1.318-2.123-1.524l-46.531-10.883c-0.881-0.207-1.809-0.053-2.579,0.423    c-0.768,0.478-1.316,1.241-1.522,2.123l-3.509,15c-0.43,1.835,0.71,3.671,2.546,4.099c1.835,0.43,3.673-0.71,4.101-2.546    l2.732-11.675l39.883,9.329l-6.267,26.795c-0.43,1.835,0.71,3.671,2.546,4.099c0.263,0.061,0.524,0.09,0.782,0.09    c1.55,0,2.953-1.062,3.318-2.635l7.045-30.118C162.328,33.319,162.176,32.391,161.698,31.623z"/><path d="M102.497,39.692l-3.11-26.305c-0.106-0.899-0.565-1.72-1.277-2.28c-0.712-0.56-1.611-0.816-2.514-0.71l-57.09,6.748    c-1.871,0.222-3.209,1.918-2.988,3.791l5.185,43.873c0.206,1.737,1.679,3.014,3.386,3.014c0.133,0,0.27-0.009,0.406-0.024    c1.87-0.222,3.208-1.918,2.988-3.791l-4.785-40.486l50.311-5.946l2.708,22.915c0.222,1.872,1.91,3.202,3.791,2.99    C101.379,43.261,102.717,41.564,102.497,39.692z"/><path d="M129.492,63.556l-6.775-28.174c-0.212-0.879-0.765-1.64-1.536-2.113c-0.771-0.469-1.696-0.616-2.581-0.406L63.613,46.087    c-1.833,0.44-2.961,2.284-2.521,4.117l3.386,14.082c0.44,1.835,2.284,2.964,4.116,2.521c1.833-0.44,2.961-2.284,2.521-4.117    l-2.589-10.764l48.35-11.626l5.977,24.854c0.375,1.565,1.775,2.615,3.316,2.615c0.265,0,0.533-0.031,0.802-0.096    C128.804,67.232,129.932,65.389,129.492,63.556z"/><path d="M179.197,64.679c-0.094-1.814-1.592-3.238-3.41-3.238H25.6c-1.818,0-3.316,1.423-3.41,3.238l-6.827,133.12    c-0.048,0.934,0.29,1.848,0.934,2.526c0.645,0.677,1.539,1.062,2.475,1.062h163.84c0.935,0,1.83-0.384,2.478-1.062    c0.643-0.678,0.981-1.591,0.934-2.526L179.197,64.679z M22.364,194.56l6.477-126.293h143.701l6.477,126.293H22.364z"/><path d="M126.292,75.093c-5.647,0-10.24,4.593-10.24,10.24c0,5.647,4.593,10.24,10.24,10.24c5.647,0,10.24-4.593,10.24-10.24    C136.532,79.686,131.939,75.093,126.292,75.093z M126.292,88.747c-1.883,0-3.413-1.531-3.413-3.413s1.531-3.413,3.413-3.413    c1.882,0,3.413,1.531,3.413,3.413S128.174,88.747,126.292,88.747z"/><path d="M75.092,75.093c-5.647,0-10.24,4.593-10.24,10.24c0,5.647,4.593,10.24,10.24,10.24c5.647,0,10.24-4.593,10.24-10.24    C85.332,79.686,80.739,75.093,75.092,75.093z M75.092,88.747c-1.882,0-3.413-1.531-3.413-3.413s1.531-3.413,3.413-3.413    s3.413,1.531,3.413,3.413S76.974,88.747,75.092,88.747z"/><path d="M126.292,85.333h-0.263c-1.884,0-3.413,1.529-3.413,3.413c0,0.466,0.092,0.911,0.263,1.316v17.457    c0,12.233-9.953,22.187-22.187,22.187s-22.187-9.953-22.187-22.187V88.747c0-1.884-1.529-3.413-3.413-3.413    s-3.413,1.529-3.413,3.413v18.773c0,15.998,13.015,29.013,29.013,29.013s29.013-13.015,29.013-29.013V88.747    C129.705,86.863,128.176,85.333,126.292,85.333z"/></g><path d="M0,208c0,29.781,20.438,54.594,48,61.75V480H16c-8.813,0-16,7.156-16,16s7.188,16,16,16h480c8.875,0,16-7.156,16-16   s-7.125-16-16-16h-32V269.75c27.562-7.156,48-31.969,48-61.75v-16H0V208z M320,272c35.375,0,64-28.656,64-64   c0,29.781,20.438,54.594,48,61.75V480H192V272c35.375,0,64-28.656,64-64C256,243.344,284.688,272,320,272z M176,269.75V480H80   V269.75c27.563-7.156,48-31.969,48-61.75C128,237.781,148.438,262.594,176,269.75z M448,48H64L0,176h512L448,48z M135.188,83.563   l-32,64c-1.438,2.813-4.25,4.438-7.188,4.438c-1.188,0-2.406-0.25-3.563-0.844c-3.938-1.969-5.563-6.781-3.563-10.719l32-64   c2-3.938,6.781-5.531,10.719-3.594C135.563,74.813,137.125,79.625,135.188,83.563z M199.188,83.563l-32,64   c-1.438,2.813-4.25,4.438-7.188,4.438c-1.188,0-2.406-0.25-3.563-0.844c-3.938-1.969-5.563-6.781-3.563-10.719l32-64   c2-3.938,6.813-5.531,10.719-3.594C199.563,74.813,201.125,79.625,199.188,83.563z M264,144c0,4.438-3.562,8-8,8   c-4.406,0-8-3.563-8-8V80c0-4.438,3.594-8,8-8c4.438,0,8,3.563,8,8V144z M355.875,151c-1.25,0.688-2.562,1-3.875,1   c-2.812,0-5.562-1.5-7-4.156l-35-64c-2.125-3.875-0.688-8.75,3.188-10.844c3.813-2.125,8.75-0.75,10.875,3.156l35,64   C361.125,144.031,359.75,148.906,355.875,151z M419.562,151.156C418.438,151.75,417.25,152,416,152   c-2.938,0-5.75-1.625-7.125-4.438l-32-64c-2-3.938-0.375-8.75,3.562-10.719c3.875-1.969,8.75-0.375,10.75,3.594l32,64   C425.125,144.375,423.562,149.188,419.562,151.156z M136,386.438v-36.875c-4.688-2.812-8-7.688-8-13.562c0-8.844,7.188-16,16-16   c8.875,0,16,7.156,16,16c0,5.875-3.281,10.75-8,13.562v36.875c4.719,2.813,8,7.688,8,13.563c0,8.844-7.125,16-16,16   c-8.813,0-16-7.156-16-16C128,394.125,131.313,389.25,136,386.438z M64,16c0-8.844,7.188-16,16-16h352c8.875,0,16,7.156,16,16   s-7.125,16-16,16H80C71.188,32,64,24.844,64,16z M280.438,357.656l-11.312-11.313l45.25-45.25l11.312,11.313L280.438,357.656z    M280.438,402.906l-11.312-11.313l90.5-90.5l11.312,11.313L280.438,402.906z M359.625,346.344l11.312,11.313l-45.25,45.25   l-11.312-11.313L359.625,346.344z" transform="matrix(0.0390625 0 0 0.0390625 252.5 340)" id="L1_544"/><g transform="matrix(0.09140767902135849 0 0 0.09140767902135849 242.5 67.5)" id="L1_545"><path d="M194,142.8c0.8,1.6,1.6,3.2,2.4,4.4c0.8,1.2,2,2.4,2.8,3.6c1.2,1.2,2.4,2.4,4,3.6c1.2,0.8,2.8,2,4.8,2.4     c1.6,0.8,3.2,1.2,5.2,1.6c2,0.4,3.6,0.4,5.2,0.4c1.6,0,3.6,0,5.2-0.4c1.6-0.4,3.2-0.8,4.4-1.6h0.4c1.6-0.8,3.2-1.6,4.8-2.8     c1.2-0.8,2.4-2,3.6-3.2l0.4-0.4c1.2-1.2,2-2.4,2.8-3.6s1.6-2.4,2-4c0-0.4,0-0.4,0.4-0.8c0.8-1.6,1.2-3.6,1.6-5.2     c0.4-1.6,0.4-3.6,0.4-5.2s0-3.6-0.4-5.2c-0.4-1.6-0.8-3.2-1.6-5.2c-1.2-2.8-2.8-5.2-4.8-7.2c-0.4-0.4-0.4-0.4-0.8-0.8     c-1.2-1.2-2.4-2-4-3.2c-1.6-0.8-2.8-1.6-4.4-2.4c-1.6-0.8-3.2-1.2-4.8-1.6c-2-0.4-3.6-0.4-5.2-0.4c-1.6,0-3.6,0-5.2,0.4     c-1.6,0.4-3.2,0.8-4.8,1.6H208c-1.6,0.8-3.2,1.6-4.4,2.4c-1.6,1.2-2.8,2-4,3.2c-1.2,1.2-2.4,2.4-3.2,3.6     c-0.8,1.2-1.6,2.8-2.4,4.4c-0.8,1.6-1.2,3.2-1.6,4.8c-0.4,2-0.4,3.6-0.4,5.2c0,1.6,0,3.6,0.4,5.2     C192.8,139.6,193.6,141.2,194,142.8z"/><path d="M249.6,289.2h-9.2v-98c0-5.6-4.4-10.4-10.4-10.4h-42c-5.6,0-10.4,4.4-10.4,10.4v21.6c0,5.6,4.4,10.4,10.4,10.4h8.4v66.4     H188c-5.6,0-10.4,4.4-10.4,10.4v21.6c0,5.6,4.4,10.4,10.4,10.4h61.6c5.6,0,10.4-4.4,10.4-10.4V300     C260,294,255.2,289.2,249.6,289.2z"/><path d="M218.8,0C98,0,0,98,0,218.8s98,218.8,218.8,218.8s218.8-98,218.8-218.8S339.6,0,218.8,0z M218.8,408.8     c-104.8,0-190-85.2-190-190s85.2-190,190-190s190,85.2,190,190S323.6,408.8,218.8,408.8z"/></g><g transform="matrix(0.09765625 0 0 0.09765625 62.5 237.5)" id="L1_546"><path d="M392.327,226.071c0-16.209-13.186-29.394-29.395-29.394H308.91c13.125-14.753,21.703-31.552,23.36-46.623    c1.012-9.205-1.832-18.342-7.805-25.069c-5.459-6.149-12.924-9.576-21.02-9.651c-0.094-0.001-0.188-0.001-0.281-0.001    c-7.831,0-15.181,3.016-20.728,8.512c-5.548,5.497-8.618,12.82-8.654,20.635c-0.285,1.711-3.295,7.61-10.66,14.614    c-6.03,5.736-16.446,13.621-31.825,18.614c-6.03,1.958-11.541,5.563-16.379,10.715c-2.539,2.702-6.341,6.434-11.048,10.18    c-2.31-1.224-4.937-1.924-7.728-1.924h-51.307c-9.136,0-16.568,7.432-16.568,16.568v136.818c0,9.136,7.432,16.568,16.568,16.568    h51.307c6.228,0,11.659-3.458,14.489-8.551h130.923c13.851,0,25.119-11.268,25.119-25.119c0-4.657-1.273-9.021-3.491-12.765    c7.217-4.418,12.042-12.376,12.042-21.44c0-4.657-1.273-9.021-3.491-12.765c7.217-4.418,12.042-12.376,12.042-21.44    c0-5.242-1.614-10.114-4.371-14.146C387.197,245.114,392.327,236.18,392.327,226.071z M362.932,239.432h-4.276    c-4.427,0-8.017,3.589-8.017,8.017c0,4.427,3.589,8.017,8.017,8.017c5.01,0,9.086,4.076,9.086,9.086s-4.076,9.086-9.086,9.086    h-8.551c-4.427,0-8.017,3.589-8.017,8.017c0,4.427,3.589,8.017,8.017,8.017c5.01,0,9.086,4.076,9.086,9.086    c0,5.01-4.076,9.086-9.086,9.086h-8.551c-4.427,0-8.017,3.589-8.017,8.017c0,4.427,3.589,8.017,8.017,8.017    c5.01,0,9.086,4.076,9.086,9.086c0,5.01-4.076,9.086-9.086,9.086H212.71v-77.495c0-4.427-3.589-8.017-8.017-8.017    s-8.017,3.589-8.017,8.017v85.511c0,0.295-0.239,0.534-0.534,0.534h-51.307c-0.295,0-0.534-0.239-0.534-0.534V213.244    c0-0.295,0.239-0.534,0.534-0.534h51.307c0.295,0,0.534,0.239,0.534,0.534v17.103c0,4.427,3.589,8.017,8.017,8.017    s8.017-3.589,8.017-8.017v-17.103c0-0.389-0.032-0.77-0.059-1.152c6.011-4.653,10.818-9.357,13.954-12.695    c2.967-3.161,6.211-5.327,9.642-6.44c18.87-6.126,31.569-15.99,38.898-23.186c9.186-9.019,14.669-18.421,14.669-25.152    c0-3.556,1.387-6.889,3.906-9.385c2.55-2.527,5.927-3.862,9.576-3.867c4.494,0.042,7.47,2.341,9.177,4.263    c2.926,3.295,4.366,8.033,3.857,12.672c-1.751,15.929-14.49,35.619-32.454,50.161c-2.639,2.137-3.646,5.705-2.513,8.906    c1.133,3.201,4.161,5.341,7.557,5.341h74.01c7.368,0,13.361,5.993,13.361,13.361S370.299,239.432,362.932,239.432z"/><path d="M170.489,316.306c-4.427,0-8.059,3.632-8.059,8.059c0,4.427,3.632,8.059,8.059,8.059c4.427,0,8.059-3.632,8.059-8.059    C178.549,319.939,174.917,316.306,170.489,316.306z"/><path d="M497.71,256l13.772-36.443c1.003-2.651,0.53-5.634-1.243-7.847l-24.359-30.404l1.836-38.915    c0.134-2.83-1.238-5.523-3.606-7.078l-32.562-21.389l-10.278-37.578c-0.748-2.734-2.884-4.87-5.617-5.617l-37.578-10.278    L376.686,27.89c-1.556-2.369-4.248-3.735-7.078-3.606l-38.915,1.836L300.289,1.761c-2.212-1.772-5.195-2.245-7.847-1.243    l-36.443,13.772L219.558,0.519c-2.653-1.003-5.635-0.53-7.847,1.243l-30.404,24.359l-38.915-1.836    c-2.844-0.134-5.523,1.238-7.078,3.606l-21.388,32.562L76.348,70.731c-2.734,0.748-4.87,2.884-5.617,5.617l-10.278,37.578    l-32.562,21.388c-2.369,1.556-3.74,4.248-3.606,7.078l1.836,38.915L1.762,211.711c-1.772,2.212-2.245,5.195-1.243,7.847L14.29,256    L0.518,292.442c-1.003,2.651-0.53,5.634,1.243,7.847l24.359,30.404l-1.836,38.915c-0.134,2.83,1.238,5.523,3.606,7.078    l32.562,21.389l10.278,37.578c0.748,2.734,2.884,4.87,5.617,5.617l37.578,10.278l21.388,32.562    c1.556,2.369,4.253,3.731,7.078,3.606l38.915-1.836l30.404,24.359c2.212,1.773,5.196,2.246,7.847,1.243l36.443-13.772    l36.443,13.772c0.92,0.347,1.879,0.517,2.833,0.517c1.796,0,3.569-0.603,5.013-1.76l30.404-24.359l38.915,1.836    c2.839,0.126,5.522-1.238,7.078-3.606l21.389-32.562l37.578-10.278c2.734-0.748,4.87-2.884,5.617-5.617l10.278-37.578    l32.562-21.389c2.369-1.556,3.74-4.248,3.606-7.078l-1.836-38.915l24.359-30.404c1.772-2.212,2.245-5.195,1.243-7.847L497.71,256z     M481.641,258.834l13.226,34.999l-23.394,29.199c-1.221,1.523-1.844,3.44-1.752,5.39l1.764,37.373l-31.271,20.541    c-1.631,1.071-2.817,2.702-3.332,4.586l-9.871,36.089l-36.089,9.871c-1.883,0.515-3.513,1.7-4.586,3.332l-20.541,31.271    l-37.373-1.764c-1.951-0.09-3.867,0.531-5.39,1.752l-29.199,23.394l-34.999-13.226c-0.913-0.345-1.874-0.517-2.834-0.517    c-0.96,0-1.921,0.173-2.834,0.517l-34.999,13.226l-29.199-23.394c-1.523-1.221-3.443-1.842-5.39-1.752l-37.373,1.764    l-20.541-31.271c-1.071-1.631-2.702-2.817-4.586-3.332l-36.089-9.871l-9.871-36.089c-0.515-1.883-1.7-3.513-3.332-4.586    l-31.271-20.541l1.764-37.373c0.092-1.951-0.531-3.867-1.752-5.39l-23.394-29.199l13.227-34.999c0.69-1.826,0.69-3.842,0-5.668    l-13.227-34.999l23.394-29.199c1.221-1.523,1.844-3.44,1.752-5.39l-1.764-37.373l31.271-20.541    c1.631-1.071,2.817-2.702,3.332-4.586l9.871-36.089l36.089-9.871c1.883-0.515,3.513-1.7,4.586-3.332l20.541-31.271l37.373,1.764    c1.948,0.091,3.867-0.531,5.39-1.752l29.199-23.394l34.999,13.227c1.827,0.69,3.842,0.69,5.668,0l34.999-13.227l29.199,23.394    c1.523,1.222,3.441,1.844,5.39,1.752l37.373-1.764l20.541,31.271c1.071,1.631,2.702,2.817,4.586,3.332l36.089,9.871l9.871,36.089    c0.515,1.883,1.7,3.513,3.332,4.586l31.271,20.541l-1.764,37.373c-0.092,1.951,0.531,3.867,1.752,5.39l23.394,29.199    l-13.227,34.999C480.951,254.993,480.951,257.008,481.641,258.834z"/><path d="M406.634,117.574c-1.995-2.172-4.064-4.332-6.153-6.42c-2.089-2.088-4.248-4.158-6.42-6.153    c-3.261-2.994-8.332-2.778-11.327,0.484c-2.994,3.261-2.778,8.333,0.484,11.327c2.003,1.84,3.997,3.75,5.925,5.678    c1.927,1.927,3.838,3.922,5.679,5.926c1.581,1.722,3.741,2.595,5.908,2.595c1.937,0,3.88-0.698,5.419-2.111    C409.411,125.907,409.628,120.835,406.634,117.574z"/><path d="M365.592,83.125c-38.66-24.63-85.206-35.576-131.059-30.829c-46.525,4.82-90.395,25.722-123.531,58.857    c-36.467,36.467-57.699,84.911-59.785,136.408C49.144,298.755,66.1,348.459,98.963,387.515c1.585,1.884,3.853,2.855,6.139,2.855    c1.822,0,3.654-0.618,5.157-1.882c3.387-2.851,3.823-7.908,0.973-11.295c-30.281-35.989-45.905-81.795-43.995-128.982    c1.922-47.462,21.49-92.11,55.101-125.72c30.54-30.541,70.972-49.806,113.846-54.247c42.275-4.38,85.171,5.709,120.792,28.403    c3.735,2.379,8.689,1.281,11.068-2.453C370.424,90.459,369.325,85.504,365.592,83.125z"/><path d="M428.511,146.043c-2.379-3.735-7.337-4.833-11.069-2.454c-3.735,2.379-4.832,7.335-2.453,11.068    c22.694,35.622,32.781,78.52,28.403,120.792c-4.441,42.874-23.706,83.305-54.246,113.847    c-33.611,33.61-78.259,53.179-125.72,55.101c-47.179,1.918-92.994-13.713-128.982-43.993c-3.387-2.851-8.444-2.415-11.295,0.973    c-2.851,3.387-2.415,8.444,0.973,11.295c36.921,31.065,83.351,47.917,131.566,47.916c2.789,0,5.589-0.057,8.389-0.17    c51.497-2.085,99.94-23.317,136.408-59.784c33.136-33.136,54.039-77.007,58.857-123.532    C464.09,231.246,453.141,184.702,428.511,146.043z"/></g><g transform="matrix(0.6779661178588867 0 0 0.6779661178588867 67.5 67.5)" id="L1_547"><path d="M45.94,5H13.06c-0.862,0-1.56,0.699-1.56,1.56V57.44c0,0.862,0.699,1.56,1.56,1.56H45.94   c0.862,0,1.56-0.699,1.56-1.56V6.56C47.5,5.699,46.801,5,45.94,5z M29.5,17c-2.209,0-4-1.791-4-4c0-2.209,1.791-4,4-4s4,1.791,4,4   C33.5,15.209,31.709,17,29.5,17z" fill="#e8d5b2"/><path d="M32.5,30c0,0.553,0.448,1,1,1s1-0.447,1-1c0-2.414-1.721-4.434-4-4.899V24c0-0.553-0.448-1-1-1   s-1,0.447-1,1v1.104c-1.091,0.222-2.085,0.801-2.818,1.668c-0.611,0.722-0.894,1.646-0.794,2.603   c0.102,0.979,0.606,1.887,1.383,2.491L28.5,33.6v5.438c-1.161-0.414-2-1.514-2-2.816c0-0.553-0.448-1-1-1s-1,0.447-1,1   c0,2.414,1.721,4.434,4,4.899V42c0,0.553,0.448,1,1,1s1-0.447,1-1v-0.882c1.091-0.222,2.085-0.801,2.819-1.668   c0.611-0.724,0.893-1.648,0.793-2.605c-0.103-0.978-0.606-1.885-1.383-2.488L30.5,32.623v-5.438C31.661,27.598,32.5,28.698,32.5,30   z M31.501,35.935c0.349,0.271,0.576,0.68,0.622,1.118c0.043,0.41-0.075,0.803-0.331,1.105c-0.348,0.411-0.798,0.699-1.292,0.875   v-3.878L31.501,35.935z M27.499,30.288c-0.35-0.272-0.576-0.681-0.622-1.12c-0.042-0.409,0.075-0.801,0.331-1.104   c0.348-0.411,0.798-0.699,1.292-0.875v3.877L27.499,30.288z" fill="#46b29d"/><path d="M37.5,47h-16c-0.552,0-1-0.447-1-1s0.448-1,1-1h16c0.552,0,1,0.447,1,1S38.052,47,37.5,47z" fill="#cbb292"/><path d="M37.5,50h-16c-0.552,0-1-0.447-1-1s0.448-1,1-1h16c0.552,0,1,0.447,1,1S38.052,50,37.5,50z" fill="#cbb292"/><path d="M29.5,5c-4.418,0-8,3.582-8,8s3.582,8,8,8s8-3.582,8-8S33.918,5,29.5,5z M29.5,17   c-2.209,0-4-1.791-4-4c0-2.209,1.791-4,4-4s4,1.791,4,4C33.5,15.209,31.709,17,29.5,17z" fill="#cbb292"/><path d="M29.5,14c-0.553,0-1-0.447-1-1V1c0-0.553,0.447-1,1-1s1,0.447,1,1v12C30.5,13.553,30.053,14,29.5,14   z" fill="#d75a4a"/><path d="M11.5,53v4.44c0,0.862,0.699,1.56,1.56,1.56H45.94c0.862,0,1.56-0.699,1.56-1.56V53H11.5z" fill="#cbb292"/></g><g transform="matrix(0.17578022181987762 0 0 0.17578022181987762 217.5 217.5)" id="L1_548"><path d="M477.958,262.633c-2.06-4.215-2.06-9.049,0-13.263l19.096-39.065c10.632-21.751,2.208-47.676-19.178-59.023l-38.41-20.38    c-4.144-2.198-6.985-6.11-7.796-10.729l-7.512-42.829c-4.183-23.846-26.241-39.87-50.208-36.479l-43.053,6.09    c-4.647,0.656-9.242-0.838-12.613-4.099l-31.251-30.232c-17.401-16.834-44.661-16.835-62.061,0L193.72,42.859    c-3.372,3.262-7.967,4.753-12.613,4.099l-43.053-6.09c-23.975-3.393-46.025,12.633-50.208,36.479l-7.512,42.827    c-0.811,4.62-3.652,8.531-7.795,10.73l-38.41,20.38c-21.386,11.346-29.81,37.273-19.178,59.024l19.095,39.064    c2.06,4.215,2.06,9.049,0,13.263l-19.096,39.064c-10.632,21.751-2.208,47.676,19.178,59.023l38.41,20.38    c4.144,2.198,6.985,6.11,7.796,10.729l7.512,42.829c3.808,21.708,22.422,36.932,43.815,36.93c2.107,0,4.245-0.148,6.394-0.452    l43.053-6.09c4.643-0.659,9.241,0.838,12.613,4.099l31.251,30.232c8.702,8.418,19.864,12.626,31.03,12.625    c11.163-0.001,22.332-4.209,31.03-12.625l31.252-30.232c3.372-3.261,7.968-4.751,12.613-4.099l43.053,6.09    c23.978,3.392,46.025-12.633,50.208-36.479l7.513-42.827c0.811-4.62,3.652-8.531,7.795-10.73l38.41-20.38    c21.386-11.346,29.81-37.273,19.178-59.024L477.958,262.633z M464.035,334.635l-38.41,20.38    c-12.246,6.499-20.645,18.057-23.04,31.713l-7.512,42.828c-1.415,8.068-8.874,13.487-16.987,12.342l-43.053-6.09    c-13.73-1.945-27.316,2.474-37.281,12.113L266.5,478.152c-5.886,5.694-15.109,5.694-20.997,0l-31.251-30.232    c-8.422-8.147-19.432-12.562-30.926-12.562c-2.106,0-4.229,0.148-6.355,0.449l-43.053,6.09    c-8.106,1.146-15.571-4.274-16.987-12.342l-7.513-42.829c-2.396-13.656-10.794-25.215-23.041-31.712l-38.41-20.38    c-7.236-3.839-10.086-12.61-6.489-19.969l19.096-39.065c6.088-12.456,6.088-26.742,0-39.198l-19.096-39.065    c-3.597-7.359-0.747-16.13,6.489-19.969l38.41-20.38c12.246-6.499,20.645-18.057,23.04-31.713l7.512-42.828    c1.416-8.068,8.874-13.488,16.987-12.342l43.053,6.09c13.725,1.943,27.316-2.474,37.281-12.113l31.252-30.232    c5.886-5.694,15.109-5.694,20.997,0l31.251,30.232c9.965,9.64,23.554,14.056,37.281,12.113l43.053-6.09    c8.107-1.147,15.572,4.274,16.987,12.342l7.512,42.829c2.396,13.656,10.794,25.215,23.041,31.712l38.41,20.38    c7.236,3.839,10.086,12.61,6.489,19.969l-19.096,39.064c-6.088,12.455-6.088,26.743,0,39.198l19.096,39.064    C474.121,322.024,471.271,330.796,464.035,334.635z"/><path d="M363.886,148.116c-5.765-5.766-15.115-5.766-20.881,0L148.116,343.006c-5.766,5.766-5.766,15.115,0,20.881    c2.883,2.883,6.662,4.325,10.44,4.325c3.778,0,7.558-1.441,10.44-4.325l194.889-194.889    C369.653,163.231,369.653,153.883,363.886,148.116z"/><path d="M196.941,123.116c-29.852,0-54.139,24.287-54.139,54.139s24.287,54.139,54.139,54.139s54.139-24.287,54.139-54.139    S226.793,123.116,196.941,123.116z M196.941,201.863c-13.569,0-24.608-11.039-24.608-24.609c0-13.569,11.039-24.608,24.608-24.608    c13.569,0,24.609,11.039,24.609,24.608C221.549,190.824,210.51,201.863,196.941,201.863z"/><path d="M315.061,280.61c-29.852,0-54.139,24.287-54.139,54.139s24.287,54.139,54.139,54.139    c29.852,0,54.139-24.287,54.139-54.139S344.913,280.61,315.061,280.61z M315.061,359.357c-13.569,0-24.609-11.039-24.609-24.608    s11.039-24.608,24.609-24.608c13.569,0,24.608,11.039,24.608,24.608S328.63,359.357,315.061,359.357z"/></g><g transform="matrix(0.6896551847457886 0 0 0.6896551847457886 155 330)" id="L1_549"><rect x="0px" y="19px" width="58px" height="6px" fill="#8697cb"/><path d="M52.433,57.5H5.567C3.597,57.5,2,55.903,2,53.933V25.5h54v28.433C56,55.903,54.403,57.5,52.433,57.5   z" fill="#556080"/><path d="M6,23.5c-0.129,0-0.261-0.025-0.388-0.078c-0.509-0.215-0.748-0.801-0.534-1.31l7.349-17.453   C12.979,3.348,14.255,2.5,15.679,2.5H18c0.552,0,1,0.447,1,1s-0.448,1-1,1h-2.321c-0.617,0-1.169,0.367-1.408,0.935L6.922,22.888   C6.761,23.271,6.39,23.5,6,23.5z" fill="#556080"/><path d="M52,23.5c-0.39,0-0.761-0.229-0.922-0.612L43.729,5.435C43.491,4.867,42.938,4.5,42.321,4.5H40   c-0.552,0-1-0.447-1-1s0.448-1,1-1h2.321c1.423,0,2.7,0.848,3.252,2.159l7.349,17.453c0.214,0.509-0.025,1.095-0.534,1.31   C52.261,23.475,52.13,23.5,52,23.5z" fill="#556080"/><circle cx="23" cy="31" r="1" fill="#8697cb"/><circle cx="26" cy="28" r="1" fill="#8697cb"/><circle cx="26" cy="34" r="1" fill="#8697cb"/><circle cx="29" cy="31" r="1" fill="#8697cb"/><circle cx="17" cy="31" r="1" fill="#8697cb"/><circle cx="20" cy="28" r="1" fill="#8697cb"/><circle cx="20" cy="34" r="1" fill="#8697cb"/><circle cx="5" cy="31" r="1" fill="#8697cb"/><circle cx="11" cy="31" r="1" fill="#8697cb"/><circle cx="8" cy="28" r="1" fill="#8697cb"/><circle cx="14" cy="28" r="1" fill="#8697cb"/><circle cx="8" cy="34" r="1" fill="#8697cb"/><circle cx="14" cy="34" r="1" fill="#8697cb"/><circle cx="53" cy="31" r="1" fill="#8697cb"/><circle cx="47" cy="31" r="1" fill="#8697cb"/><circle cx="50" cy="28" r="1" fill="#8697cb"/><circle cx="50" cy="34" r="1" fill="#8697cb"/><circle cx="32" cy="28" r="1" fill="#8697cb"/><circle cx="32" cy="34" r="1" fill="#8697cb"/><circle cx="35" cy="31" r="1" fill="#8697cb"/><circle cx="41" cy="31" r="1" fill="#8697cb"/><circle cx="23" cy="37" r="1" fill="#8697cb"/><circle cx="29" cy="37" r="1" fill="#8697cb"/><circle cx="17" cy="37" r="1" fill="#8697cb"/><circle cx="5" cy="37" r="1" fill="#8697cb"/><circle cx="11" cy="37" r="1" fill="#8697cb"/><circle cx="53" cy="37" r="1" fill="#8697cb"/><circle cx="47" cy="37" r="1" fill="#8697cb"/><circle cx="35" cy="37" r="1" fill="#8697cb"/><circle cx="41" cy="37" r="1" fill="#8697cb"/><circle cx="38" cy="28" r="1" fill="#8697cb"/><circle cx="44" cy="28" r="1" fill="#8697cb"/><circle cx="38" cy="34" r="1" fill="#8697cb"/><circle cx="44" cy="34" r="1" fill="#8697cb"/><circle cx="23" cy="43" r="1" fill="#8697cb"/><circle cx="26" cy="40" r="1" fill="#8697cb"/><circle cx="26" cy="46" r="1" fill="#8697cb"/><circle cx="29" cy="43" r="1" fill="#8697cb"/><circle cx="17" cy="43" r="1" fill="#8697cb"/><circle cx="20" cy="40" r="1" fill="#8697cb"/><circle cx="20" cy="46" r="1" fill="#8697cb"/><circle cx="5" cy="43" r="1" fill="#8697cb"/><circle cx="11" cy="43" r="1" fill="#8697cb"/><circle cx="8" cy="40" r="1" fill="#8697cb"/><circle cx="14" cy="40" r="1" fill="#8697cb"/><circle cx="8" cy="46" r="1" fill="#8697cb"/><circle cx="14" cy="46" r="1" fill="#8697cb"/><circle cx="53" cy="43" r="1" fill="#8697cb"/><circle cx="47" cy="43" r="1" fill="#8697cb"/><circle cx="50" cy="40" r="1" fill="#8697cb"/><circle cx="50" cy="46" r="1" fill="#8697cb"/><circle cx="32" cy="40" r="1" fill="#8697cb"/><circle cx="32" cy="46" r="1" fill="#8697cb"/><circle cx="35" cy="43" r="1" fill="#8697cb"/><circle cx="41" cy="43" r="1" fill="#8697cb"/><circle cx="23" cy="49" r="1" fill="#8697cb"/><circle cx="29" cy="49" r="1" fill="#8697cb"/><circle cx="17" cy="49" r="1" fill="#8697cb"/><circle cx="5" cy="49" r="1" fill="#8697cb"/><circle cx="11" cy="49" r="1" fill="#8697cb"/><circle cx="53" cy="49" r="1" fill="#8697cb"/><circle cx="47" cy="49" r="1" fill="#8697cb"/><circle cx="35" cy="49" r="1" fill="#8697cb"/><circle cx="41" cy="49" r="1" fill="#8697cb"/><circle cx="38" cy="40" r="1" fill="#8697cb"/><circle cx="44" cy="40" r="1" fill="#8697cb"/><circle cx="38" cy="46" r="1" fill="#8697cb"/><circle cx="44" cy="46" r="1" fill="#8697cb"/><circle cx="23" cy="55" r="1" fill="#8697cb"/><circle cx="26" cy="52" r="1" fill="#8697cb"/><circle cx="29" cy="55" r="1" fill="#8697cb"/><circle cx="17" cy="55" r="1" fill="#8697cb"/><circle cx="20" cy="52" r="1" fill="#8697cb"/><circle cx="5" cy="55" r="1" fill="#8697cb"/><circle cx="11" cy="55" r="1" fill="#8697cb"/><circle cx="8" cy="52" r="1" fill="#8697cb"/><circle cx="14" cy="52" r="1" fill="#8697cb"/><circle cx="53" cy="55" r="1" fill="#8697cb"/><circle cx="47" cy="55" r="1" fill="#8697cb"/><circle cx="50" cy="52" r="1" fill="#8697cb"/><circle cx="32" cy="52" r="1" fill="#8697cb"/><circle cx="35" cy="55" r="1" fill="#8697cb"/><circle cx="41" cy="55" r="1" fill="#8697cb"/><circle cx="38" cy="52" r="1" fill="#8697cb"/><circle cx="44" cy="52" r="1" fill="#8697cb"/><path d="M37,6.5H21c-1.65,0-3-1.35-3-3v0c0-1.65,1.35-3,3-3h16c1.65,0,3,1.35,3,3v0   C40,5.15,38.65,6.5,37,6.5z" fill="#f0c419"/></g><g transform="matrix(0.3448275923728943 0 0 0.3448275923728943 77.5 340)" id="L1_550"><path d="M24,27.044c0-0.712,0.154-1.387,0.422-2H2c-1.1,0-2,0.9-2,2s0.9,2,2,2h22.422   C24.154,28.43,24,27.756,24,27.044z" fill="#71c285"/><path d="M33.578,29.044c-0.772,1.764-2.529,3-4.578,3s-3.806-1.236-4.578-3H3l9.247,25.892   c0.451,1.264,1.649,2.108,2.991,2.108h27.523c1.342,0,2.54-0.844,2.991-2.108L55,29.044H33.578z" fill="#24ae5f"/><path d="M56,25.044H33.649l-0.046,0.046c0.015,0.035,0.02,0.075,0.035,0.111   c0.104,0.26,0.192,0.528,0.252,0.808c0.006,0.027,0.008,0.055,0.013,0.083C33.964,26.4,34,26.717,34,27.044   c0,0.322-0.035,0.635-0.095,0.939c-0.006,0.032-0.009,0.064-0.015,0.096c-0.058,0.272-0.144,0.533-0.244,0.786   c-0.023,0.059-0.042,0.12-0.068,0.178l0,0H56c1.1,0,2-0.9,2-2S57.1,25.044,56,25.044z" fill="#71c285"/><path d="M47,37.044H11c-0.552,0-1-0.447-1-1s0.448-1,1-1h36c0.552,0,1,0.447,1,1S47.552,37.044,47,37.044z" fill="#a4e869"/><path d="M44,42.044H14c-0.552,0-1-0.447-1-1s0.448-1,1-1h30c0.552,0,1,0.447,1,1S44.552,42.044,44,42.044z" fill="#a4e869"/><path d="M41,47.044H17c-0.552,0-1-0.447-1-1s0.448-1,1-1h24c0.552,0,1,0.447,1,1S41.552,47.044,41,47.044z" fill="#a4e869"/><path d="M39,52.044H19c-0.552,0-1-0.447-1-1s0.448-1,1-1h20c0.552,0,1,0.447,1,1S39.552,52.044,39,52.044z" fill="#a4e869"/><path d="M24.397,25.09L3.675,4.368c-0.778-0.778-0.778-2.051,0-2.828s2.051-0.778,2.828,0l20.815,20.814" fill="#f3d55b"/><path d="M33.603,25.09L54.325,4.368c0.778-0.778,0.778-2.051,0-2.828s-2.051-0.778-2.828,0L30.682,22.354" fill="#f0c419"/><circle cx="29" cy="27" r="5" fill="#4fba6f"/></g><g transform="matrix(1.16577254102837 -0.31236781092692956 0.31236781092692956 1.16577254102837 132.29011346034122 150.23070058740242)" id="L1_551"><path d="M58,40.5H8v-26h50V40.5z M10,38.5h46v-22H10V38.5z" fill="#bdc3c7"/><path d="M9,47.5c-0.553,0-1-0.447-1-1v-7c0-0.553,0.447-1,1-1s1,0.447,1,1v7C10,47.053,9.553,47.5,9,47.5z" fill="#bdc3c7"/><circle cx="19" cy="51" r="4" fill="#556080"/><circle cx="43" cy="51" r="4" fill="#556080"/><path d="M52,47.5H9c-0.553,0-1-0.447-1-1s0.447-1,1-1h43c0.553,0,1,0.447,1,1S52.553,47.5,52,47.5z" fill="#bdc3c7"/><circle cx="33" cy="15" r="13" fill="#24ae5f"/><path d="M31.999,21.5c-0.226,0-0.452-0.076-0.64-0.231l-6-5c-0.424-0.354-0.481-0.984-0.128-1.409   c0.354-0.424,0.982-0.48,1.409-0.128l6,5c0.424,0.354,0.481,0.984,0.128,1.409C32.57,21.378,32.286,21.5,31.999,21.5z" fill="#ffffff"/><path d="M32,21.5c-0.236,0-0.474-0.083-0.664-0.253c-0.413-0.366-0.45-0.999-0.083-1.411l8-9   c0.366-0.414,0.998-0.451,1.411-0.083c0.413,0.366,0.45,0.999,0.083,1.411l-8,9C32.55,21.387,32.275,21.5,32,21.5z" fill="#ffffff"/><path d="M9,7.5H4c-0.553,0-1-0.447-1-1s0.447-1,1-1h5c0.553,0,1,0.447,1,1S9.553,7.5,9,7.5z" fill="#bdc3c7"/><path d="M9,16.5c-0.553,0-1-0.447-1-1v-9c0-0.553,0.447-1,1-1s1,0.447,1,1v9C10,16.053,9.553,16.5,9,16.5z" fill="#bdc3c7"/><circle cx="3" cy="6" r="3" fill="#d8625e"/></g><g transform="matrix(1.2280701398849487 0 0 1.2280701398849487 315 140)" id="L1_552"><path d="M56,41H6V11h50V41z M8,39h46V13H8V39z" fill="#a5a5a4"/><path d="M7,2H2C1.448,2,1,1.553,1,1s0.448-1,1-1h5c0.552,0,1,0.447,1,1S7.552,2,7,2z" fill="#a5a5a4"/><path d="M7,13c-0.552,0-1-0.447-1-1V1c0-0.553,0.448-1,1-1s1,0.447,1,1v11C8,12.553,7.552,13,7,13z" fill="#a5a5a4"/><path d="M7,49c-0.552,0-1-0.447-1-1v-8c0-0.553,0.448-1,1-1s1,0.447,1,1v8C8,48.553,7.552,49,7,49z" fill="#a5a5a4"/><circle cx="17" cy="53" r="4" fill="#556080"/><circle cx="41" cy="53" r="4" fill="#556080"/><path d="M50,49H7c-0.552,0-1-0.447-1-1s0.448-1,1-1h43c0.552,0,1,0.447,1,1S50.552,49,50,49z" fill="#a5a5a4"/><path d="M15,41c-0.552,0-1-0.447-1-1V12c0-0.553,0.448-1,1-1s1,0.447,1,1v28C16,40.553,15.552,41,15,41z" fill="#a5a5a4"/><path d="M31,41c-0.552,0-1-0.447-1-1V12c0-0.553,0.448-1,1-1s1,0.447,1,1v28C32,40.553,31.552,41,31,41z" fill="#a5a5a4"/><path d="M23,41c-0.552,0-1-0.447-1-1V12c0-0.553,0.448-1,1-1s1,0.447,1,1v28C24,40.553,23.552,41,23,41z" fill="#a5a5a4"/><path d="M39,41c-0.552,0-1-0.447-1-1V12c0-0.553,0.448-1,1-1s1,0.447,1,1v28C40,40.553,39.552,41,39,41z" fill="#a5a5a4"/><path d="M47,41c-0.552,0-1-0.447-1-1V12c0-0.553,0.448-1,1-1s1,0.447,1,1v28C48,40.553,47.552,41,47,41z" fill="#a5a5a4"/></g></defs><g fi:class="KUsePattern"><pattern id="pattern_L1_543" width="350" height="350" patternUnits="userSpaceOnUse"><use xlink:href="#L1_543" x="-350" y="-350"/><use xlink:href="#L1_543" x="0" y="-350"/><use xlink:href="#L1_543" x="350" y="-350"/><use xlink:href="#L1_543" x="-350" y="0"/><use xlink:href="#L1_543" x="0" y="0"/><use xlink:href="#L1_543" x="350" y="0"/><use xlink:href="#L1_543" x="-350" y="350"/><use xlink:href="#L1_543" x="0" y="350"/><use xlink:href="#L1_543" x="350" y="350"/></pattern><rect x="0" y="0" width="100%" height="100%" fill="url(#pattern_L1_543)"/></g><g fi:class="KUsePattern"><pattern id="pattern_L1_544" width="350" height="350" patternUnits="userSpaceOnUse"><use xlink:href="#L1_544" x="-350" y="-350"/><use xlink:href="#L1_544" x="0" y="-350"/><use xlink:href="#L1_544" x="350" y="-350"/><use xlink:href="#L1_544" x="-350" y="0"/><use xlink:href="#L1_544" x="0" y="0"/><use xlink:href="#L1_544" x="350" y="0"/><use xlink:href="#L1_544" x="-350" y="350"/><use xlink:href="#L1_544" x="0" y="350"/><use xlink:href="#L1_544" x="350" y="350"/></pattern><rect x="0" y="0" width="100%" height="100%" fill="url(#pattern_L1_544)"/></g><g fi:class="KUsePattern"><pattern id="pattern_L1_545" width="350" height="350" patternUnits="userSpaceOnUse"><use xlink:href="#L1_545" x="-350" y="-350"/><use xlink:href="#L1_545" x="0" y="-350"/><use xlink:href="#L1_545" x="350" y="-350"/><use xlink:href="#L1_545" x="-350" y="0"/><use xlink:href="#L1_545" x="0" y="0"/><use xlink:href="#L1_545" x="350" y="0"/><use xlink:href="#L1_545" x="-350" y="350"/><use xlink:href="#L1_545" x="0" y="350"/><use xlink:href="#L1_545" x="350" y="350"/></pattern><rect x="0" y="0" width="100%" height="100%" fill="url(#pattern_L1_545)"/></g><g fi:class="KUsePattern"><pattern id="pattern_L1_546" width="350" height="350" patternUnits="userSpaceOnUse"><use xlink:href="#L1_546" x="-350" y="-350"/><use xlink:href="#L1_546" x="0" y="-350"/><use xlink:href="#L1_546" x="350" y="-350"/><use xlink:href="#L1_546" x="-350" y="0"/><use xlink:href="#L1_546" x="0" y="0"/><use xlink:href="#L1_546" x="350" y="0"/><use xlink:href="#L1_546" x="-350" y="350"/><use xlink:href="#L1_546" x="0" y="350"/><use xlink:href="#L1_546" x="350" y="350"/></pattern><rect x="0" y="0" width="100%" height="100%" fill="url(#pattern_L1_546)"/></g><g fi:class="KUsePattern"><pattern id="pattern_L1_547" width="350" height="350" patternUnits="userSpaceOnUse"><use xlink:href="#L1_547" x="-350" y="-350"/><use xlink:href="#L1_547" x="0" y="-350"/><use xlink:href="#L1_547" x="350" y="-350"/><use xlink:href="#L1_547" x="-350" y="0"/><use xlink:href="#L1_547" x="0" y="0"/><use xlink:href="#L1_547" x="350" y="0"/><use xlink:href="#L1_547" x="-350" y="350"/><use xlink:href="#L1_547" x="0" y="350"/><use xlink:href="#L1_547" x="350" y="350"/></pattern><rect x="0" y="0" width="100%" height="100%" fill="url(#pattern_L1_547)"/></g><g fi:class="KUsePattern"><pattern id="pattern_L1_548" width="350" height="350" patternUnits="userSpaceOnUse"><use xlink:href="#L1_548" x="-350" y="-350"/><use xlink:href="#L1_548" x="0" y="-350"/><use xlink:href="#L1_548" x="350" y="-350"/><use xlink:href="#L1_548" x="-350" y="0"/><use xlink:href="#L1_548" x="0" y="0"/><use xlink:href="#L1_548" x="350" y="0"/><use xlink:href="#L1_548" x="-350" y="350"/><use xlink:href="#L1_548" x="0" y="350"/><use xlink:href="#L1_548" x="350" y="350"/></pattern><rect x="0" y="0" width="100%" height="100%" fill="url(#pattern_L1_548)"/></g><g fi:class="KUsePattern"><pattern id="pattern_L1_549" width="350" height="350" patternUnits="userSpaceOnUse"><use xlink:href="#L1_549" x="-350" y="-350"/><use xlink:href="#L1_549" x="0" y="-350"/><use xlink:href="#L1_549" x="350" y="-350"/><use xlink:href="#L1_549" x="-350" y="0"/><use xlink:href="#L1_549" x="0" y="0"/><use xlink:href="#L1_549" x="350" y="0"/><use xlink:href="#L1_549" x="-350" y="350"/><use xlink:href="#L1_549" x="0" y="350"/><use xlink:href="#L1_549" x="350" y="350"/></pattern><rect x="0" y="0" width="100%" height="100%" fill="url(#pattern_L1_549)"/></g><g fi:class="KUsePattern"><pattern id="pattern_L1_550" width="350" height="350" patternUnits="userSpaceOnUse"><use xlink:href="#L1_550" x="-350" y="-350"/><use xlink:href="#L1_550" x="0" y="-350"/><use xlink:href="#L1_550" x="350" y="-350"/><use xlink:href="#L1_550" x="-350" y="0"/><use xlink:href="#L1_550" x="0" y="0"/><use xlink:href="#L1_550" x="350" y="0"/><use xlink:href="#L1_550" x="-350" y="350"/><use xlink:href="#L1_550" x="0" y="350"/><use xlink:href="#L1_550" x="350" y="350"/></pattern><rect x="0" y="0" width="100%" height="100%" fill="url(#pattern_L1_550)"/></g><g fi:class="KUsePattern"><pattern id="pattern_L1_551" width="350" height="350" patternUnits="userSpaceOnUse"><use xlink:href="#L1_551" x="-350" y="-350"/><use xlink:href="#L1_551" x="0" y="-350"/><use xlink:href="#L1_551" x="350" y="-350"/><use xlink:href="#L1_551" x="-350" y="0"/><use xlink:href="#L1_551" x="0" y="0"/><use xlink:href="#L1_551" x="350" y="0"/><use xlink:href="#L1_551" x="-350" y="350"/><use xlink:href="#L1_551" x="0" y="350"/><use xlink:href="#L1_551" x="350" y="350"/></pattern><rect x="0" y="0" width="100%" height="100%" fill="url(#pattern_L1_551)"/></g><g fi:class="KUsePattern"><pattern id="pattern_L1_552" width="350" height="350" patternUnits="userSpaceOnUse"><use xlink:href="#L1_552" x="-350" y="-350"/><use xlink:href="#L1_552" x="0" y="-350"/><use xlink:href="#L1_552" x="350" y="-350"/><use xlink:href="#L1_552" x="-350" y="0"/><use xlink:href="#L1_552" x="0" y="0"/><use xlink:href="#L1_552" x="350" y="0"/><use xlink:href="#L1_552" x="-350" y="350"/><use xlink:href="#L1_552" x="0" y="350"/><use xlink:href="#L1_552" x="350" y="350"/></pattern><rect x="0" y="0" width="100%" height="100%" fill="url(#pattern_L1_552)"/></g></svg>