<svg xmlns="http://www.w3.org/2000/svg" xmlns:xlink="http://www.w3.org/1999/xlink" xmlns:fi="http://pattern.flaticon.com/" x="0" y="0" width="1000" height="500" viewBox="0 0 1093.75 546.875"><rect x="0px" y="0px" width="100%" height="100%" opacity="0" fill="#ffffff"/><defs><g transform="matrix(0.1171875 0 0 0.1171875 127 104.0000000439453)" id="L1_12"><path d="m256 186.558594c32.996094 0 59.839844-26.84375 59.839844-59.839844s-26.84375-59.84375-59.839844-59.84375-59.839844 26.847656-59.839844 59.84375 26.84375 59.839844 59.839844 59.839844zm0-89.085938c16.125 0 29.242188 13.121094 29.242188 29.246094 0 16.121094-13.117188 29.242188-29.242188 29.242188s-29.242188-13.121094-29.242188-29.242188c0-16.125 13.117188-29.246094 29.242188-29.246094zm0 0"/><path d="m338.011719 126.71875c0 8.445312 6.847656 15.296875 15.296875 15.296875h14.109375c8.449219 0 15.300781-6.851563 15.300781-15.296875 0-8.449219-6.851562-15.300781-15.300781-15.300781h-14.109375c-8.449219 0-15.296875 6.851562-15.296875 15.300781zm0 0"/><path d="m144.582031 142.015625h14.109375c8.449219 0 15.296875-6.851563 15.296875-15.296875 0-8.449219-6.847656-15.300781-15.296875-15.300781h-14.109375c-8.449219 0-15.300781 6.851562-15.300781 15.300781 0 8.445312 6.851562 15.296875 15.300781 15.296875zm0 0"/><path d="m335.625 68.726562 9.976562-9.976562c5.976563-5.972656 5.976563-15.660156 0-21.632812-5.972656-5.976563-15.660156-5.976563-21.632812 0l-9.980469 9.976562c-5.972656 5.972656-5.972656 15.660156 0 21.632812 5.972657 5.976563 15.660157 5.976563 21.636719 0zm0 0"/><path d="m176.375 184.707031-9.976562 9.976563c-5.976563 5.972656-5.976563 15.660156 0 21.632812 5.972656 5.976563 15.660156 5.976563 21.632812 0l9.980469-9.976562c5.972656-5.972656 5.972656-15.660156 0-21.632813-5.976563-5.972656-15.660157-5.972656-21.636719 0zm0 0"/><path d="m256 44.707031c8.449219 0 15.296875-6.847656 15.296875-15.296875v-14.113281c0-8.445313-6.847656-15.296875-15.296875-15.296875s-15.296875 6.851562-15.296875 15.296875v14.109375c0 8.453125 6.847656 15.300781 15.296875 15.300781zm0 0"/><path d="m240.703125 224.027344v14.109375c0 8.449219 6.847656 15.296875 15.296875 15.296875s15.296875-6.847656 15.296875-15.296875v-14.109375c0-8.449219-6.847656-15.300782-15.296875-15.300782s-15.296875 6.851563-15.296875 15.300782zm0 0"/><path d="m313.988281 184.707031c-5.972656 5.976563-5.972656 15.660157 0 21.636719l9.980469 9.976562c5.972656 5.972657 15.660156 5.972657 21.632812 0 5.972657-5.976562 5.972657-15.660156 0-21.636718l-9.976562-9.976563c-5.976562-5.972656-15.664062-5.972656-21.636719 0zm0 0"/><path d="m176.375 68.726562c5.976562 5.976563 15.664062 5.976563 21.636719 0 5.972656-5.972656 5.972656-15.660156 0-21.632812l-9.980469-9.976562c-5.972656-5.976563-15.660156-5.976563-21.632812 0-5.972657 5.972656-5.972657 15.660156 0 21.632812zm0 0"/><path d="m333.175781 292.605469c-32.453125 4.792969-57.75 18.132812-60.566406 50.832031h-33.21875c-2.816406-32.6875-28.101563-46.035156-60.570313-50.832031-79.199218-11.707031-178.820312-8.367188-178.820312 71.203125v27.78125c0 60.453125 74.699219 84.234375 119.875 84.234375 63.34375-.125 115.304688-45.203125 119.113281-101.789063h34.023438c3.832031 56.988282 56.320312 101.789063 119.253906 101.789063 40.378906 0 119.734375-21.117188 119.734375-84.234375v-27.78125c0-79.441406-99.183594-82.972656-178.824219-71.203125zm-124.550781 74.773437c0 42.828125-39.839844 77.753906-88.808594 77.847656-20.308594.058594-89.21875-11.476562-89.21875-53.636718v-27.78125c0-53.847656 90.386719-48.820313 143.753906-40.933594 41.519532 6.136719 34.273438 20.644531 34.273438 44.503906zm272.777344 24.210938c0 41.039062-66.238282 53.636718-89.21875 53.636718-48.96875-.097656-88.808594-35.019531-88.808594-77.847656 0-23.867187-7.304688-38.363281 34.273438-44.507812 53.332031-7.878906 143.753906-12.917969 143.753906 40.9375zm0 0"/><path d="m125.570312 355.957031c5.976563-5.976562 5.976563-15.660156 0-21.636719-5.972656-5.972656-15.660156-5.972656-21.632812 0l-30.15625 30.15625c-5.976562 5.976563-5.976562 15.660157 0 21.636719 5.972656 5.976563 15.660156 5.976563 21.632812 0zm0 0"/><path d="m140.375 364.476562-41.035156 41.035157c-5.972656 5.976562-5.972656 15.660156 0 21.636719 5.976562 5.976562 15.664062 5.976562 21.636718 0l41.035157-41.035157c5.976562-5.976562 5.976562-15.660156 0-21.636719-5.972657-5.972656-15.660157-5.972656-21.636719 0zm0 0"/><path d="m401.777344 355.957031c5.976562-5.976562 5.976562-15.660156 0-21.636719-5.972656-5.972656-15.660156-5.972656-21.632813 0l-30.15625 30.15625c-5.976562 5.976563-5.976562 15.660157 0 21.636719 5.972657 5.976563 15.660157 5.976563 21.636719 0zm0 0"/><path d="m416.585938 364.476562-41.035157 41.035157c-5.976562 5.976562-5.976562 15.660156 0 21.636719 5.972657 5.976562 15.660157 5.976562 21.632813 0l41.035156-41.035157c5.976562-5.972656 5.976562-15.660156 0-21.636719-5.972656-5.972656-15.660156-5.972656-21.632812 0zm0 0"/></g><g transform="matrix(0.10321354866027832 0 0 0.10321354866027832 64 61)" id="L1_13"><path d="m290.5 77.464844c-117.65625 0-213.035156 95.378906-213.035156 213.035156 0 117.652344 95.378906 213.03125 213.035156 213.03125 117.652344 0 213.03125-95.378906 213.03125-213.03125-.132812-117.601562-95.429688-212.898438-213.03125-213.035156zm0 19.367187c84.539062.113281 159.273438 54.953125 184.738281 135.566407h-39.488281v.300781c-9.0625-12.328125-23.433594-19.625-38.734375-19.667969h-213.03125c-15.300781.042969-29.671875 7.339844-38.734375 19.667969v-.300781h-39.488281c25.464843-80.613282 100.199219-135.453126 184.738281-135.566407zm9.683594 154.933594h-19.367188v-19.363281h19.367188zm19.367187-19.363281h77.464844c16.042969 0 29.050781 13.003906 29.050781 29.046875v19.367187c-.03125 26.726563-21.691406 48.386719-48.417968 48.417969h-9.683594c-26.738282 0-48.414063-21.679687-48.414063-48.417969zm-58.101562 0v48.414062c0 26.738282-21.675781 48.417969-48.417969 48.417969h-9.683594c-26.726562-.03125-48.382812-21.691406-48.414062-48.417969v-19.367187c0-16.042969 13.003906-29.046875 29.050781-29.046875zm29.050781 251.765625c-106.960938.019531-193.683594-86.671875-193.707031-193.628907-.003907-13.023437 1.308593-26.011718 3.914062-38.773437h35.828125c-.648437 3.1875-.972656 6.433594-.96875 9.683594v19.367187c.046875 37.414063 30.367188 67.734375 67.785156 67.785156h9.683594c37.433594 0 67.78125-30.347656 67.78125-67.785156v-9.683594h19.367188v9.683594c0 37.4375 30.347656 67.785156 67.785156 67.785156h9.683594c37.414062-.050781 67.734375-30.367187 67.78125-67.785156v-19.367187c.003906-3.25-.320313-6.496094-.964844-9.683594h35.828125c21.390625 104.800781-46.222656 207.097656-151.023437 228.488281-12.761719 2.605469-25.75 3.914063-38.773438 3.914063zm0 0"/><path d="m280.816406 0h19.367188v58.101562h-19.367188zm0 0"/><path d="m280.816406 522.898438h19.367188v58.101562h-19.367188zm0 0"/><path d="m210.507812 72.089844-17.894531 7.410156-22.234375-53.6875 17.894532-7.410156zm0 0"/><path d="m410.632812 555.183594-17.890624 7.410156-22.234376-53.6875 17.894532-7.410156zm0 0"/><path d="m133.011719 119.320312-13.691407 13.695313-41.078124-41.078125 13.695312-13.691406zm0 0"/><path d="m502.761719 489.0625-13.695313 13.691406-41.074218-41.074218 13.695312-13.695313zm0 0"/><path d="m79.5 192.628906-7.410156 17.890625-53.6875-22.230469 7.410156-17.894531zm0 0"/><path d="m562.617188 392.726562-7.410157 17.890626-53.6875-22.230469 7.410157-17.894531zm0 0"/><path d="m0 280.816406h58.101562v19.367188h-58.101562zm0 0"/><path d="m522.898438 280.816406h58.101562v19.367188h-58.101562zm0 0"/><path d="m79.515625 388.390625-53.6875 22.234375-7.410156-17.894531 53.6875-22.230469zm0 0"/><path d="m562.609375 188.261719-53.6875 22.234375-7.410156-17.894532 53.6875-22.234374zm0 0"/><path d="m133.015625 461.683594-41.074219 41.074218-13.695312-13.691406 41.078125-41.078125zm0 0"/><path d="m502.757812 91.933594-41.074218 41.078125-13.695313-13.695313 41.074219-41.074218zm0 0"/><path d="m210.535156 508.921875-22.246094 53.679687-17.890624-7.414062 22.246093-53.679688zm0 0"/><path d="m410.621094 25.804688-22.242188 53.683593-17.890625-7.414062 22.242188-53.683594zm0 0"/><path d="m257.578125 356.996094-11.621094 15.492187c26.441407 19.664063 62.648438 19.664063 89.085938 0l-11.617188-15.492187c-19.546875 14.523437-46.304687 14.523437-65.847656 0zm0 0"/></g></defs><g fi:class="KUsePattern" opacity="0.18"><pattern id="pattern_L1_12" width="350" height="350" patternUnits="userSpaceOnUse"><use xlink:href="#L1_12" x="-350" y="-350"/><use xlink:href="#L1_12" x="0" y="-350"/><use xlink:href="#L1_12" x="350" y="-350"/><use xlink:href="#L1_12" x="-350" y="0"/><use xlink:href="#L1_12" x="0" y="0"/><use xlink:href="#L1_12" x="350" y="0"/><use xlink:href="#L1_12" x="-350" y="350"/><use xlink:href="#L1_12" x="0" y="350"/><use xlink:href="#L1_12" x="350" y="350"/></pattern><rect x="0" y="0" width="100%" height="100%" fill="url(#pattern_L1_12)"/></g><g fi:class="KUsePattern" opacity="0.17"><pattern id="pattern_L1_13" width="350" height="350" patternUnits="userSpaceOnUse"><use xlink:href="#L1_13" x="-350" y="-350"/><use xlink:href="#L1_13" x="0" y="-350"/><use xlink:href="#L1_13" x="350" y="-350"/><use xlink:href="#L1_13" x="-350" y="0"/><use xlink:href="#L1_13" x="0" y="0"/><use xlink:href="#L1_13" x="350" y="0"/><use xlink:href="#L1_13" x="-350" y="350"/><use xlink:href="#L1_13" x="0" y="350"/><use xlink:href="#L1_13" x="350" y="350"/></pattern><rect x="0" y="0" width="100%" height="100%" fill="url(#pattern_L1_13)"/></g></svg>