<svg xmlns="http://www.w3.org/2000/svg" xmlns:xlink="http://www.w3.org/1999/xlink" xmlns:fi="http://pattern.flaticon.com/" x="0" y="0" width="700" height="350" viewBox="0 0 544.4444444444445 272.22222222222223"><rect x="0px" y="0px" width="100%" height="100%" opacity="0" fill="#ffffff"/><defs><g transform="matrix(0.12096773833036423 0 0 0.12096773833036423 320 103)" id="L1_8"><path d="M248,0C111.256,0,0,111.256,0,248s111.256,248,248,248s248-111.256,248-248S384.744,0,248,0z M248,480     C120.072,480,16,375.928,16,248S120.072,16,248,16s232,104.072,232,232S375.928,480,248,480z"/><path d="M248,40C133.312,40,40,133.312,40,248s93.312,208,208,208c62.832,0,121.64-27.968,161.36-76.736l-12.408-10.104     c-8.12,9.976-17.152,18.944-26.856,26.96l1.248-7.904c2.992-18.888,0.704-37.76-6.232-55.064c2.328,0.16,4.656,0.272,6.984,0.272     c16.28,0,32.448-3.848,47.368-11.448l7.272-3.704c-5.24,13.32-12,26.08-20.208,38.072l13.2,9.04     C443.464,330.744,456,290.152,456,248C456,133.312,362.688,40,248,40z M371.344,107.792l-1.24-7.848     c24.864,20.536,44.44,47.24,56.488,77.704l-7.12-3.624c-17.072-8.696-35.76-12.352-54.392-11.088     C372.04,145.608,374.344,126.704,371.344,107.792z M256,359.592V311.44c11.664-1.464,22.336-6.072,31.184-12.952l34.056,34.056     C303.472,347.952,280.864,357.824,256,359.592z M342.912,392.248c-18.184-3.48-34.488-12.376-47.128-25.592     c7.28-2.944,14.192-6.56,20.744-10.728L342.912,392.248z M298.488,287.176c6.88-8.848,11.488-19.52,12.952-31.184h48.152     c-1.768,24.872-11.64,47.48-27.048,65.24L298.488,287.176z M311.448,239.992V240c-1.464-11.664-6.072-22.336-12.952-31.184     l34.056-34.056c15.408,17.76,25.28,40.376,27.048,65.232H311.448z M356.304,180.104c18.024-3.288,36.472-0.904,53.256,6.984     l-42.64,13.856C364.016,193.632,360.448,186.68,356.304,180.104z M414.512,202.304c-8.944,16.24-22.456,29.008-38.96,36.944     c-0.536-7.912-1.8-15.616-3.72-23.072L414.512,202.304z M346.072,165.904c-5.016-5.976-10.536-11.52-16.552-16.496l26.328-36.24     C358.168,131.536,354.736,149.792,346.072,165.904z M316.528,140.072c-6.552-4.168-13.464-7.784-20.744-10.728     c12.64-13.216,28.944-22.112,47.128-25.592L316.528,140.072z M351.048,86.128l-7.808,1.232c-18.92,2.992-36.192,11.024-50.52,23     c-4.552-18.112-13.808-34.752-27.352-48.304l-5.664-5.664C293.176,58.416,324.344,69.064,351.048,86.128z M256,75.512     c12.68,13.52,20.64,30.32,23.096,48.464c-7.472-1.872-15.176-3.08-23.096-3.568V75.512z M256,136.4     c24.864,1.768,47.472,11.64,65.232,27.048l-34.048,34.056c-8.848-6.88-19.52-11.488-31.184-12.952V136.4z M124.168,216.176     c-1.92,7.456-3.184,15.16-3.72,23.072c-16.504-7.936-30.016-20.704-38.96-36.944L124.168,216.176z M86.44,187.088     c16.784-7.88,35.232-10.264,53.256-6.984c-4.144,6.584-7.72,13.536-10.616,20.84L86.44,187.088z M124.16,279.824l-42.68,13.872     c8.944-16.24,22.456-29.008,38.96-36.944C120.976,264.664,122.248,272.368,124.16,279.824z M129.08,295.056     c2.904,7.312,6.472,14.264,10.608,20.84c-18.024,3.288-36.472,0.904-53.256-6.984L129.08,295.056z M136.4,256.008h48.152V256     c1.464,11.664,6.072,22.336,12.952,31.184l-34.056,34.056C148.04,303.48,138.168,280.864,136.4,256.008z M184.56,240.008h-48.152     c1.768-24.872,11.64-47.48,27.048-65.24l34.056,34.056C190.632,217.672,186.024,228.344,184.56,240.008z M174.76,163.448     c17.76-15.408,40.376-25.28,65.232-27.048v48.152c-11.656,1.464-22.328,6.072-31.176,12.952L174.76,163.448z M153.088,103.752     c18.184,3.48,34.488,12.376,47.128,25.592c-7.28,2.944-14.2,6.56-20.744,10.728L153.088,103.752z M216.904,123.984     C219.36,105.84,227.32,89.04,240,75.52v44.888C232.08,120.904,224.376,122.104,216.904,123.984z M236.304,56.392l-5.672,5.664     c-13.544,13.544-22.8,30.192-27.352,48.304c-14.328-11.976-31.592-20.008-50.512-23l-7.808-1.24     C171.664,69.056,202.832,58.416,236.304,56.392z M140.144,113.16l26.336,36.24c-6.008,4.976-11.536,10.52-16.552,16.496     C141.264,149.792,137.832,131.536,140.144,113.16z M125.896,99.944l-1.24,7.84c-3,18.92-0.696,37.824,6.264,55.152     c-18.632-1.264-37.32,2.384-54.392,11.08l-7.12,3.624C81.456,147.184,101.032,120.48,125.896,99.944z M62.12,296.144     C58.128,280.752,56,264.624,56,248c0-16.624,2.128-32.752,6.12-48.144l3.672,7.208c8.696,17.072,21.672,31.016,37.48,40.936     c-15.816,9.928-28.784,23.864-37.48,40.936L62.12,296.144z M124.648,388.216l1.24,7.848     c-24.856-20.544-44.432-47.248-56.48-77.712l7.12,3.624c14.928,7.608,31.088,11.448,47.368,11.448     c2.328,0,4.656-0.12,6.984-0.272C123.944,350.456,121.656,369.328,124.648,388.216z M149.928,330.096     c5.016,5.976,10.536,11.52,16.552,16.496l-26.328,36.24C137.832,364.464,141.264,346.208,149.928,330.096z M179.472,355.928     c6.552,4.168,13.464,7.784,20.744,10.728c-12.64,13.216-28.944,22.112-47.128,25.592L179.472,355.928z M144.952,409.872     l7.808-1.232c18.92-2.992,36.192-11.024,50.52-23c4.552,18.112,13.808,34.752,27.352,48.304l5.664,5.664     C202.824,437.584,171.656,426.936,144.952,409.872z M240,420.488c-12.68-13.52-20.64-30.32-23.096-48.464     c7.472,1.872,15.176,3.08,23.096,3.568V420.488z M240.008,359.592H240c-24.864-1.768-47.472-11.64-65.232-27.048l34.056-34.056     c8.848,6.88,19.52,11.488,31.184,12.952V359.592z M200,248c0-26.472,21.528-48,48-48s48,21.528,48,48s-21.528,48-48,48     S200,274.472,200,248z M256,375.592c7.92-0.496,15.624-1.696,23.096-3.576C276.64,390.16,268.68,406.96,256,420.48V375.592z      M259.68,439.624l5.688-5.68c13.544-13.544,22.8-30.192,27.352-48.304c14.328,11.976,31.592,20.008,50.512,23l7.976,1.264     C323.96,427.304,292.6,437.648,259.68,439.624z M355.856,382.84L329.52,346.6c6.008-4.976,11.536-10.52,16.552-16.496     C354.736,346.208,358.168,364.464,355.856,382.84z M356.312,315.896c4.136-6.576,7.712-13.528,10.608-20.84l42.64,13.856     C392.784,316.792,374.336,319.176,356.312,315.896z M371.832,279.824c1.92-7.456,3.184-15.16,3.72-23.072     c16.504,7.936,30.016,20.704,38.96,36.944L371.832,279.824z M430.216,288.936c-8.696-17.072-21.672-31.016-37.48-40.936     c15.816-9.928,28.784-23.864,37.48-40.936l3.672-7.208C437.872,215.248,440,231.376,440,248c0,16.376-2.168,32.464-6.176,48.024     L430.216,288.936z"/><path d="M248,216c-17.648,0-32,14.352-32,32s14.352,32,32,32s32-14.352,32-32S265.648,216,248,216z M248,264     c-8.824,0-16-7.176-16-16c0-8.824,7.176-16,16-16c8.824,0,16,7.176,16,16C264,256.824,256.824,264,248,264z"/><rect x="272px" y="160px" width="16px" height="16px"/><rect x="160px" y="208px" width="16px" height="16px"/><rect x="208px" y="320px" width="16px" height="16px"/><rect x="320px" y="272px" width="16px" height="16px"/><rect x="208px" y="160px" width="16px" height="16px"/><rect x="320px" y="208px" width="16px" height="16px"/><rect x="160px" y="272px" width="16px" height="16px"/><rect x="272px" y="320px" width="16px" height="16px"/></g><g transform="matrix(0.12007685005664825 0 0 0.12007685005664825 213 -10.000000205209517)" id="L1_9"><path d="M496.984,251.544l-7.232-3.424l7.304,3.272l2.624-5.504l-28.112-24.36l18.456-18.456     c5.04-5.04,7.816-11.736,7.816-18.856c0-7.784-3.352-15.128-9.192-20.16c-1.864-1.608-4.296-3.6-6.976-5.736L454.744,23.728     l-77.688,77.688c-2.784-0.976-5.768-1.856-8.648-2.792l-35.64-98.016L261.92,80.32c-4.032-0.128-7.968-0.368-12.088-0.368     s-8.056,0.24-12.08,0.368L166.904,0.608l-35.648,98.024c-2.88,0.936-5.856,1.816-8.648,2.792L44.92,23.728L18,158.328     c-2.68,2.144-5.104,4.128-6.976,5.736c-5.84,5.032-9.192,12.376-9.192,20.152c0,7.128,2.776,13.824,7.816,18.856L28.8,222.224     l-24.008,19.52L0,245.872l2.688,5.672c10.192,21.528,23.176,41.216,38.2,58.968c-25.144,31.8-39.056,71.312-39.056,111.928     v36.616l55.624-18.544c31.472-10.488,57.464-31.56,74.328-59.728c3.16,1.52,6.328,3,9.552,4.4     c-8.648,31.376-0.608,64.8,21.696,88.072l24.72,25.816l30.32-27.128c18.232-16.312,29.344-39.304,31.344-64.008     c0.136,0,0.28,0.016,0.416,0.016s0.28-0.016,0.416-0.016c2,24.704,13.12,47.696,31.344,64.008l30.32,27.128l24.72-25.816     c22.304-23.272,30.344-56.704,21.696-88.072c3.216-1.4,6.392-2.88,9.552-4.4c16.864,28.168,42.856,49.232,74.328,59.728     l55.624,18.544V422.44c0-40.616-13.912-80.12-39.048-111.928C473.808,292.76,486.784,273.072,496.984,251.544z M465.832,166.28     c5.168,3.904,9.376,7.328,12.368,9.904c2.304,1.992,3.632,4.92,3.632,8.032c0,2.816-1.144,5.568-3.128,7.552l-12.872,12.872     V166.28z M444.92,56.176l17.624,88.12c-16.872-11.456-40-24.968-69.056-36.688L444.92,56.176z M432.032,166.152l-4.984-24.896     c11.76,6.512,21.752,12.896,29.968,18.648L432.032,166.152z M449.832,178.2v25.464c-8.776-6.688-17.856-12.92-27.2-18.664     L449.832,178.2z M419.032,182.76c-13.768-8.224-28.104-15.4-42.864-21.528l35.704-14.28L419.032,182.76z M407.744,131.368     l-25.456,10.184l-9.936-24.84C385.232,121.248,396.968,126.24,407.744,131.368z M372.312,159.696     c-13.824-5.528-28-10.128-42.464-13.752l28.432-21.328L372.312,159.696z M331.432,124.752l-17.44-23.248     c13.064,2.28,25.416,5.184,37.096,8.504L331.432,124.752z M241.832,263.952c0-17.648-14.352-32-32-32     c-11.904,0-22.184,6.608-27.696,16.272c-2.736-7.592-4.304-15.744-4.304-24.272c0-22.584,10.464-42.744,26.784-55.952     c-1.768,5-2.784,10.352-2.784,15.952c0,26.472,21.528,48,48,48s48-21.528,48-48c0-5.6-1.016-10.952-2.784-15.952     c16.32,13.208,26.784,33.368,26.784,55.952c0,39.704-32.304,72-72,72c-8.528,0-16.68-1.568-24.272-4.304     C235.224,286.136,241.832,275.856,241.832,263.952z M209.832,279.952c-2.64,0-5.088-0.704-7.288-1.84     c-2.448-2.136-4.736-4.432-6.872-6.872c-1.136-2.2-1.84-4.648-1.84-7.288c0-8.824,7.176-16,16-16c8.824,0,16,7.176,16,16     C225.832,272.776,218.656,279.952,209.832,279.952z M172.8,145.328l21.896-29.2l21.624,21.624     C201.632,139.288,187.088,141.816,172.8,145.328z M217.832,183.952c0-17.632,14.328-31.968,31.944-31.992     c0.048,0,0.096,0,0.136,0c17.608,0.048,31.92,14.376,31.92,31.992c0,17.648-14.352,32-32,32S217.832,201.6,217.832,183.952z      M283.344,137.752l21.624-21.624l21.768,29.032C312.496,141.744,298,139.264,283.344,137.752z M326.896,31.296l22.44,61.72     c-20.424-5.456-42.792-9.552-67.024-11.568L326.896,31.296z M299.184,99.288l-17.352,17.352l-20.336-20.336     C274.56,96.704,287.152,97.688,299.184,99.288z M279.936,137.368c-9.896-0.912-19.856-1.392-29.864-1.408     c-0.08,0-0.16-0.008-0.24-0.008c-0.032,0-0.064,0.008-0.088,0.008c-0.072,0-0.144-0.008-0.208-0.008     c-9.984,0-19.936,0.512-29.824,1.432l30.12-30.12L279.936,137.368z M238.168,96.304l-20.336,20.336L200.48,99.288     C212.504,97.688,225.104,96.712,238.168,96.304z M172.768,31.296l44.584,50.152c-24.232,2.016-46.6,6.112-67.024,11.568     L172.768,31.296z M185.664,101.496l-17.432,23.256L148.568,110C160.248,106.68,172.6,103.776,185.664,101.496z M141.384,124.616     l28.536,21.408c-14.56,3.72-28.848,8.44-42.752,14.136L141.384,124.616z M127.312,116.712l-9.936,24.84L91.92,131.368     C102.696,126.232,114.432,121.24,127.312,116.712z M124.096,161.472c-15.072,6.36-29.704,13.808-43.688,22.408l7.384-36.928     L124.096,161.472z M54.744,56.176l51.432,51.432C77.12,119.32,53.984,132.832,37.12,144.296L54.744,56.176z M49.832,178.2     l28.344,7.08c-9.784,6.128-19.232,12.816-28.344,19.992V178.2z M42.64,159.904c8.216-5.752,18.208-12.136,29.968-18.648     l-4.984,24.896L42.64,159.904z M20.96,191.76c-1.984-1.976-3.128-4.728-3.128-7.544c0-3.12,1.328-6.04,3.64-8.032     c2.984-2.576,7.192-5.992,12.36-9.904v38.352L20.96,191.76z M52.392,425.336l-34.56,11.512v-14.416     c0-36.104,12.088-71.224,33.936-99.832c8.04,8.424,16.56,16.328,25.56,23.64L35.76,394.752l12.152,10.408l42.104-49.12     c8.824,6.36,18.024,12.176,27.544,17.448C102.64,397.92,79.864,416.168,52.392,425.336z M207.4,460.024l-18.792,16.816     l-14.024-14.64c-17.968-18.76-24.656-45.536-18.304-70.952c9.592,3.52,19.44,6.408,29.424,8.84l-7.76,46.552l15.784,2.624     l7.648-45.872c10.56,1.928,21.248,3.304,32.08,3.96C231.624,427.72,222.392,446.608,207.4,460.024z M249.832,391.952     c-36.304,0-70.272-16.176-93.184-44.392l-12.424,10.096c5.792,7.128,12.288,13.456,19.208,19.176     C102.088,354.808,49.944,309.92,19.808,250.16l36.368-29.552c33.28-27.048,71.872-46.624,112.856-57.8     c-33.416,24.808-55.2,64.424-55.2,109.144c0,26.344,7.544,51.896,21.824,73.912l13.424-8.704     c-12.592-19.408-19.248-41.968-19.248-65.208c0-37.664,17.472-71.288,44.696-93.304c-8,13.256-12.696,28.72-12.696,45.304     c0,21.624,7.872,41.424,20.864,56.768c2.616,4.216,6.152,7.752,10.368,10.368c15.344,12.992,35.144,20.864,56.768,20.864     c48.52,0,88-39.48,88-88c0-16.584-4.696-32.048-12.696-45.304c27.224,22.016,44.696,55.64,44.696,93.304     C369.832,338.12,316,391.952,249.832,391.952z M325.08,462.192l-14.024,14.64l-18.792-16.816     c-14.992-13.416-24.224-32.304-26.048-52.664c10.832-0.656,21.52-2.04,32.08-3.96l7.648,45.872l15.784-2.624l-7.76-46.552     c9.984-2.432,19.824-5.32,29.424-8.84C349.744,416.656,343.048,443.432,325.08,462.192z M336.368,376.784     c30.192-24.96,49.464-62.688,49.464-104.832c0-44.872-21.936-84.624-55.552-109.408c45.904,12.2,88.816,34.68,125.224,66.24     l24.448,21.184C449.928,309.752,397.768,354.712,336.368,376.784z M481.832,422.44v14.416l-34.56-11.512     c-27.472-9.16-50.248-27.416-65.16-51.848c9.512-5.272,18.712-11.096,27.544-17.448l20.384,23.784l12.152-10.408l-19.856-23.16     c9-7.312,17.528-15.216,25.56-23.64C469.744,351.208,481.832,386.328,481.832,422.44z"/><rect x="169px" y="55px" width="16px" height="16px"/><rect x="57px" y="87px" width="16px" height="16px"/><rect x="313px" y="55px" width="16px" height="16px"/><rect x="425px" y="87px" width="16px" height="16px"/><rect x="444px" y="384px" width="16px" height="17px" transform="matrix(-0.7595 0.6506 -0.6506 -0.7595 1051.6658 397.9899)"/></g><path d="M417.275,153.48c-6.856-16.562-21.883-29.209-42.313-35.612c-26.225-8.201-55.446-3.087-78.102,13.254  c20.996-24.281,27.626-57.683,17.302-87.181c-6.719-19.19-18.697-32.825-34.642-39.429c-19.138-7.934-41.354-4.632-62.814,9.267  c-21.577-14.133-43.938-17.535-63.222-9.553c-16.561,6.85-29.209,21.876-35.614,42.313c-8.21,26.249-3.076,55.504,13.306,78.172  l-0.042-0.036c-24.277-21.02-57.688-27.662-87.19-17.336c-19.19,6.719-32.824,18.697-39.428,34.642  c-7.934,19.14-4.634,41.356,9.267,62.815c-14.134,21.576-17.536,43.938-9.554,63.222c6.857,16.578,21.885,29.227,42.313,35.614  c8.284,2.591,16.863,3.853,25.445,3.853c18.594,0,37.181-5.931,52.688-17.124l-0.005,0.006  c-21.014,24.276-27.651,57.688-17.323,87.197c6.717,19.191,18.694,32.825,34.638,39.428c19.14,7.935,41.354,4.634,62.814-9.267  c13.936,9.129,28.195,13.78,41.746,13.779c7.431,0,14.648-1.399,21.478-4.227c16.572-6.863,29.219-21.893,35.609-42.319  c8.207-26.231,3.085-55.468-13.277-78.132l0.015,0.013c16.703,14.462,37.731,22.114,58.843,22.113  c9.563-0.001,19.147-1.572,28.349-4.792c19.188-6.719,32.822-18.697,39.427-34.642c7.934-19.141,4.633-41.357-9.267-62.814  C421.856,195.126,425.257,172.764,417.275,153.48z M125.505,48.929c5.766-18.395,16.498-31.297,31.039-37.311  c16.096-6.666,34.941-4.01,53.512,7.419c-7.389,7.31-20.938,25.634-15.842,58.479c0.307,1.976,2.01,3.388,3.948,3.388  c0.204,0,0.41-0.016,0.618-0.048c2.183-0.339,3.678-2.384,3.34-4.566c-5.113-32.944,10.414-49.041,15.385-53.261  c0.79-0.671,2.816-2.059,3.5-2.503c19.2-12.45,38.811-15.521,55.454-8.623c13.781,5.708,24.208,17.701,30.152,34.681  c9.383,26.809,3.321,57.205-15.818,79.325l-34.931,40.335l-38.559,33.501c6.841-16.687,14.365-40.143,12.705-59.615  c-0.188-2.202-2.126-3.832-4.325-3.646c-2.201,0.188-3.833,2.124-3.646,4.325c1.685,19.764-7.173,44.617-14.109,60.579l-3.123-3.595  l-0.012,0.014l-62.558-72.004C123.74,104.522,117.33,75.065,125.505,48.929z M125.806,279.267  c-21.281,18.494-50.736,24.905-76.876,16.729c-18.387-5.75-31.288-16.482-37.309-31.039c-6.659-16.085-4.013-34.91,7.39-53.463  c6.368,6.305,20.408,16.618,44.153,16.618c4.272,0,8.86-0.334,13.771-1.085c2.083-0.319,3.718-2.103,3.594-4.206  c-0.14-2.393-2.296-4.098-4.608-3.733c-29.407,4.563-45.38-7.31-51.473-13.447c-0.946-0.952-1.794-1.986-2.552-3.094  c-13.586-19.849-17.134-40.271-9.99-57.506c5.708-13.781,17.7-24.208,34.68-30.152c26.806-9.383,57.197-3.314,79.312,15.834  l40.381,34.952l28.375,32.659c-16.121-6.171-36.801-12.076-54.265-10.583c-2.201,0.188-3.833,2.124-3.646,4.325  c0.188,2.202,2.138,3.84,4.325,3.646c17.683-1.509,39.437,5.425,55.256,11.869l-36.36,42.004L125.806,279.267z M295.997,372.569  c-5.753,18.387-16.484,31.291-31.035,37.316c-16.11,6.67-34.968,4.004-53.548-7.442c7.433-7.449,20.678-25.743,15.631-58.271  c-0.34-2.184-2.386-3.679-4.566-3.34c-2.183,0.339-3.678,2.384-3.34,4.566c4.576,29.489-7.382,45.476-13.504,51.531  c-1.329,1.314-4.614,3.711-5.38,4.204c-19.122,12.317-38.638,15.333-55.209,8.465c-13.78-5.707-24.205-17.699-30.148-34.68  c-9.384-26.811-3.321-57.204,15.821-79.318l72.504-83.756c-7.329,16.679-17.08,43.624-15.212,65.524  c0.178,2.086,1.926,3.66,3.98,3.66c0.114,0,0.229-0.005,0.345-0.015c2.201-0.188,3.833-2.124,3.646-4.325  c-1.687-19.77,7.178-44.634,14.115-60.596l6.504,7.475l0.001-0.001l62.673,72.133C297.765,316.983,304.173,346.437,295.997,372.569z   M409.598,276.456c-5.709,13.782-17.701,24.209-34.68,30.153c-26.811,9.385-57.202,3.323-79.313-15.819l-40.303-34.876  l-31.926-36.745c14.404,5.513,32.444,10.812,48.586,10.812c1.918,0,3.812-0.075,5.666-0.233c2.201-0.188,3.833-2.124,3.646-4.325  c-0.188-2.202-2.135-3.831-4.325-3.646c-18.672,1.595-41.91-6.234-57.882-12.954l4.39-3.824l-0.002-0.002l72.243-62.766  c21.278-18.494,50.735-24.903,76.873-16.729c18.389,5.764,31.291,16.496,37.312,31.038c6.645,16.051,4.023,34.831-7.32,53.348  c-7.015-7.268-25.339-21.374-58.651-16.279c-2.089,0.32-3.731,2.112-3.6,4.221c0.148,2.387,2.295,4.077,4.607,3.719  c28.663-4.444,44.564,6.721,50.993,12.971c1.382,1.344,2.606,2.84,3.695,4.431C413.194,238.799,416.741,259.221,409.598,276.456z" transform="matrix(0.14234741032123566 0 0 0.14234741032123566 81 226)" id="L1_10"/></defs><g fi:class="KUsePattern"><pattern id="pattern_L1_8" width="350" height="350" patternUnits="userSpaceOnUse"><use xlink:href="#L1_8" x="-350" y="-350"/><use xlink:href="#L1_8" x="0" y="-350"/><use xlink:href="#L1_8" x="350" y="-350"/><use xlink:href="#L1_8" x="-350" y="0"/><use xlink:href="#L1_8" x="0" y="0"/><use xlink:href="#L1_8" x="350" y="0"/><use xlink:href="#L1_8" x="-350" y="350"/><use xlink:href="#L1_8" x="0" y="350"/><use xlink:href="#L1_8" x="350" y="350"/></pattern><rect x="0" y="0" width="100%" height="100%" fill="url(#pattern_L1_8)"/></g><g fi:class="KUsePattern"><pattern id="pattern_L1_9" width="350" height="350" patternUnits="userSpaceOnUse"><use xlink:href="#L1_9" x="-350" y="-350"/><use xlink:href="#L1_9" x="0" y="-350"/><use xlink:href="#L1_9" x="350" y="-350"/><use xlink:href="#L1_9" x="-350" y="0"/><use xlink:href="#L1_9" x="0" y="0"/><use xlink:href="#L1_9" x="350" y="0"/><use xlink:href="#L1_9" x="-350" y="350"/><use xlink:href="#L1_9" x="0" y="350"/><use xlink:href="#L1_9" x="350" y="350"/></pattern><rect x="0" y="0" width="100%" height="100%" fill="url(#pattern_L1_9)"/></g><g fi:class="KUsePattern"><pattern id="pattern_L1_10" width="350" height="350" patternUnits="userSpaceOnUse"><use xlink:href="#L1_10" x="-350" y="-350"/><use xlink:href="#L1_10" x="0" y="-350"/><use xlink:href="#L1_10" x="350" y="-350"/><use xlink:href="#L1_10" x="-350" y="0"/><use xlink:href="#L1_10" x="0" y="0"/><use xlink:href="#L1_10" x="350" y="0"/><use xlink:href="#L1_10" x="-350" y="350"/><use xlink:href="#L1_10" x="0" y="350"/><use xlink:href="#L1_10" x="350" y="350"/></pattern><rect x="0" y="0" width="100%" height="100%" fill="url(#pattern_L1_10)"/></g></svg>