<?xml version="1.0"?>
<svg xmlns="http://www.w3.org/2000/svg" xmlns:xlink="http://www.w3.org/1999/xlink" version="1.1" id="Capa_1" x="0px" y="0px" width="512px" height="512px" viewBox="0 0 430.117 430.118" style="enable-background:new 0 0 430.117 430.118;" xml:space="preserve" class=""><g><g>
	<path id="Metacafe" d="M391.11,430.118l-63.09-45.681l-63.08,45.681l24.082-73.936l-63.09-45.663h77.997l24.091-73.94l24.101,73.94   h77.996l-63.094,45.663L391.11,430.118L391.11,430.118z M270.924,362.053c-13.292-9.609-92.353-66.87-92.353-66.87   s97.747,0,114.157,0c5.077-15.597,35.292-108.225,35.292-108.225s30.187,92.628,35.255,108.225c7.981,0,35.172,0,60.98,0L328.021,0   l-77.445,237.507H0l251.85,183.104C259.909,395.909,268.422,369.679,270.924,362.053L270.924,362.053z" data-original="#000000" class="active-path" fill="#000000"/>
</g></g> </svg>
