<svg xmlns="http://www.w3.org/2000/svg" xmlns:xlink="http://www.w3.org/1999/xlink" xmlns:fi="http://pattern.flaticon.com/" x="0" y="0" width="700" height="350" viewBox="0 0 700 350"><rect x="0px" y="0px" width="100%" height="100%" opacity="0" fill="#ffffff"/><defs><g transform="matrix(0.15625 0 0 0.15625 134 183)" id="L1_2"><path d="m296 0c-43.054688 0-78.921875 31.105469-86.472656 72h-35.054688c-7.550781-40.894531-43.417968-72-86.472656-72-48.519531 0-88 39.480469-88 88s39.480469 88 88 88c43.054688 0 78.921875-31.105469 86.472656-72h35.054688c7.550781 40.894531 43.417968 72 86.472656 72 21.257812 0 40.777344-7.574219 56-20.167969v212.167969c0 8.832031 7.167969 16 16 16s16-7.167969 16-16v-280c0-48.519531-39.480469-88-88-88zm-208 144c-30.871094 0-56-25.121094-56-56s25.128906-56 56-56 56 25.121094 56 56-25.128906 56-56 56zm208 0c-30.871094 0-56-25.121094-56-56s25.128906-56 56-56 56 25.121094 56 56-25.128906 56-56 56zm0 0"/><path d="m299.3125 51.3125c-8.832031 0-16 7.167969-16 16s7.167969 16 16 16c2.582031 0 4.6875 2.101562 4.6875 4.6875 0 8.832031 7.167969 16 16 16s16-7.167969 16-16c0-20.230469-16.464844-36.6875-36.6875-36.6875zm0 0"/><path d="m91.3125 51.3125c-8.832031 0-16 7.167969-16 16s7.167969 16 16 16c2.582031 0 4.6875 2.101562 4.6875 4.6875 0 8.832031 7.167969 16 16 16s16-7.167969 16-16c0-20.230469-16.464844-36.6875-36.6875-36.6875zm0 0"/></g><path d="m497 169.527344h-20.726562l-72.4375-144.875c-10.769532-21.546875-38.730469-30.980469-60.382813-20.125l-33.164063 16.582031c-7.410156 3.703125-10.414062 12.714844-6.707031 20.125 3.703125 7.425781 12.714844 10.402344 20.125 6.710937l33.164063-16.582031c7.296875-3.632812 16.523437-.5 20.128906 6.707031l65.726562 131.457032h-155.726562c-8.289062 0-15 6.707031-15 15v15h-32v-15c0-8.292969-6.710938-15-15-15h-155.726562l65.726562-131.457032c3.605469-7.191406 12.859375-10.328124 20.128906-6.707031l33.160156 16.582031c7.441407 3.691407 16.40625.714844 20.128907-6.710937 3.707031-7.410156.703125-16.421875-6.707031-20.125l-33.164063-16.582031c-21.652344-10.855469-49.617187-1.421875-60.382813 20.125l-72.4375 144.875h-20.726562c-8.289062 0-15 6.707031-15 15 0 8.289062 6.710938 15 15 15h15v45c0 74.941406 67.882812 74.941406 104.339844 74.941406 26.132812 0 105.660156 0 105.660156-74.941406v-15h32v15c0 74.941406 79.527344 74.941406 105.660156 74.941406 36.457032 0 104.339844 0 104.339844-74.941406v-45h15c8.289062 0 15-6.710938 15-15 0-8.292969-6.710938-15-15-15zm0 0" transform="matrix(0.1171875 0 0 0.1171875 190 257.9999998242188)" id="L1_3"/><g transform="matrix(0.1171877309679985 0 0 0.1171877309679985 63 78)" id="L1_5"><path d="M469.577,205.289c-33.016,33.018-77.932,51.211-124.632,51.211h-177.89c-46.699,0-91.615-18.193-124.633-51.211L0,247.711    C44.355,292.065,104.345,316.5,167.069,316.5H344.93c62.725,0,122.714-24.434,167.069-68.789L469.577,205.289z"/><path d="M451,406.5v-30H271v30h-30v-30H61v30H31v30h35.53c12.424,34.845,45.412,60,84.47,60s72.048-25.155,84.472-60h41.058    c12.424,34.845,45.412,60,84.47,60c39.058,0,72.048-25.155,84.472-60H481v-30H451z"/><path d="M316,15.5h-15v15c0,24.814-20.186,45-45,45c-24.814,0-45-20.186-45-45v-15h-15c-41.353,0-75,33.647-75,75v76h270v-76    C391,49.146,357.353,15.5,316,15.5z"/><path d="M121,196.5v21.892c14.713,4.942,30.082,8.108,46.055,8.108h177.891c15.972,0,31.342-3.166,46.055-8.108V196.5H121z"/></g><path d="M538.234,280.023c5.828-3.7,7.956-11.281,4.646-17.479l-64.776-115.428c-1.141-2.125-2.819-3.898-4.888-5.14   c-1.81-1.091-18.193-10.355-38.822-3.632c-18.323,5.976-33.242,16.591-44.313,42.83c-2.866,6.768,0.302,14.573,7.069,17.437   c6.769,2.87,16.58,0.23,17.455-7.075c2.329-19.597,8.015-28.162,27.668-33.458c6.159-1.658,11.384-1.096,14.511-0.074   l20.972,73.371l5.249,5.521c-4.008-0.686-8.128-1.049-12.342-1.049H358.677c-25.801,0-48.533,13.311-61.732,33.419   c-4.888-6.023-12.354-9.88-20.723-9.88h-12.685c-6.948,0-13.249,2.675-18.013,7.022c-13.417-18.51-35.19-30.568-59.752-30.568   H73.793c-1.3,0-2.583,0.027-3.866,0.098l20.797-72.741c3.121-1.011,8.346-1.584,14.508,0.08   c19.645,5.296,25.354,13.849,27.677,33.452c0.854,7.306,10.666,9.951,17.437,7.075c6.774-2.86,9.951-10.669,7.078-17.437   c-11.083-26.226-25.992-36.854-44.301-42.823c-20.646-6.729-37.034,2.544-38.834,3.626c-2.069,1.241-3.759,3.015-4.891,5.14   L4.62,267.75c-2.447,4.595-1.895,9.938,0.895,13.923C1.962,290.301,0,299.741,0,309.635c0,0.267,0,0.521,0.03,0.787l3.112,27.881   c0.219,40.5,33.23,70.237,73.787,70.237h107.277c0.024,0,0.042,0,0.074,0c1.209,0,2.388-0.201,3.479-0.573   c14.745-3.05,58.638-13.618,66.972-68.423c0.018-0.166,0.044-0.325,0.062-0.485l2.016-3.108c2.154,0.567,4.395,0.887,6.729,0.887   h12.685c4.019,0,7.825-0.911,11.26-2.507l2.181,4.717c0.012,0.166,0.024,0.331,0.06,0.485c8.357,55.029,52.582,65.474,67.146,68.47   c1.063,0.343,2.192,0.532,3.381,0.532h107.28c40.56,0,73.565-29.737,73.79-70.243l3.109-27.875   c0.018-0.267,0.029-0.521,0.029-0.793C544.458,299.103,542.23,289.09,538.234,280.023z M232.973,336.483   c-6.23,40.305-37.09,47.498-50.2,50.076H76.929c-28.567,0-51.811-20.104-51.811-48.67c0-0.26-0.012-0.514-0.023-0.78l-3.13-27.852   c0.207-28.396,23.365-51.433,51.823-51.433h111.985c25.676,0,46.988,18.787,51.048,43.323v8.99c0,1.2,0.115,2.382,0.266,3.546   L232.973,336.483z M519.355,337.109c-0.012,0.272-0.023,0.526-0.023,0.786c0,28.566-23.229,48.67-51.808,48.67H361.692   c-13.116-2.584-43.977-9.771-50.206-50.082l-4.616-27.402c0.301-28.301,23.424-51.244,51.808-51.244h111.985   c28.454,0,51.612,23.037,51.802,51.432L519.355,337.109z" transform="matrix(0.11020133644342422 0 0 0.11020133644342422 140 21.99999940809829)" id="L1_6"/></defs><g fi:class="KUsePattern"><pattern id="pattern_L1_2" width="350" height="350" patternUnits="userSpaceOnUse"><use xlink:href="#L1_2" x="-350" y="-350"/><use xlink:href="#L1_2" x="0" y="-350"/><use xlink:href="#L1_2" x="350" y="-350"/><use xlink:href="#L1_2" x="-350" y="0"/><use xlink:href="#L1_2" x="0" y="0"/><use xlink:href="#L1_2" x="350" y="0"/><use xlink:href="#L1_2" x="-350" y="350"/><use xlink:href="#L1_2" x="0" y="350"/><use xlink:href="#L1_2" x="350" y="350"/></pattern><rect x="0" y="0" width="100%" height="100%" fill="url(#pattern_L1_2)"/></g><g fi:class="KUsePattern"><pattern id="pattern_L1_3" width="350" height="350" patternUnits="userSpaceOnUse"><use xlink:href="#L1_3" x="-350" y="-350"/><use xlink:href="#L1_3" x="0" y="-350"/><use xlink:href="#L1_3" x="350" y="-350"/><use xlink:href="#L1_3" x="-350" y="0"/><use xlink:href="#L1_3" x="0" y="0"/><use xlink:href="#L1_3" x="350" y="0"/><use xlink:href="#L1_3" x="-350" y="350"/><use xlink:href="#L1_3" x="0" y="350"/><use xlink:href="#L1_3" x="350" y="350"/></pattern><rect x="0" y="0" width="100%" height="100%" fill="url(#pattern_L1_3)"/></g><g fi:class="KUsePattern"><pattern id="pattern_L1_5" width="350" height="350" patternUnits="userSpaceOnUse"><use xlink:href="#L1_5" x="-350" y="-350"/><use xlink:href="#L1_5" x="0" y="-350"/><use xlink:href="#L1_5" x="350" y="-350"/><use xlink:href="#L1_5" x="-350" y="0"/><use xlink:href="#L1_5" x="0" y="0"/><use xlink:href="#L1_5" x="350" y="0"/><use xlink:href="#L1_5" x="-350" y="350"/><use xlink:href="#L1_5" x="0" y="350"/><use xlink:href="#L1_5" x="350" y="350"/></pattern><rect x="0" y="0" width="100%" height="100%" fill="url(#pattern_L1_5)"/></g><g fi:class="KUsePattern"><pattern id="pattern_L1_6" width="350" height="350" patternUnits="userSpaceOnUse"><use xlink:href="#L1_6" x="-350" y="-350"/><use xlink:href="#L1_6" x="0" y="-350"/><use xlink:href="#L1_6" x="350" y="-350"/><use xlink:href="#L1_6" x="-350" y="0"/><use xlink:href="#L1_6" x="0" y="0"/><use xlink:href="#L1_6" x="350" y="0"/><use xlink:href="#L1_6" x="-350" y="350"/><use xlink:href="#L1_6" x="0" y="350"/><use xlink:href="#L1_6" x="350" y="350"/></pattern><rect x="0" y="0" width="100%" height="100%" fill="url(#pattern_L1_6)"/></g></svg>