<svg xmlns="http://www.w3.org/2000/svg" xmlns:xlink="http://www.w3.org/1999/xlink" xmlns:fi="http://pattern.flaticon.com/" x="0" y="0" width="700" height="350" viewBox="0 0 583.3333333333334 291.6666666666667"><rect x="0px" y="0px" width="100%" height="100%" opacity="0" fill="#ffffff"/><defs><g transform="matrix(0.1697916491523753 0.04549553527192747 -0.04549553527192747 0.1697916491523753 -31.81982806221825 294.88647839364717)" id="L1_0"><path d="M498.409,175.706L336.283,13.582c-8.752-8.751-20.423-13.571-32.865-13.571c-12.441,0-24.113,4.818-32.865,13.569     L13.571,270.563C4.82,279.315,0,290.985,0,303.427c0,12.442,4.82,24.114,13.571,32.864l19.992,19.992     c0.002,0.001,0.003,0.003,0.005,0.005c0.002,0.002,0.004,0.004,0.006,0.006l134.36,134.36H149.33     c-5.89,0-10.666,4.775-10.666,10.666c0,5.89,4.776,10.666,10.666,10.666h59.189c0.014,0,0.027,0.001,0.041,0.001     s0.027-0.001,0.041-0.001l154.053,0.002c5.89,0,10.666-4.776,10.666-10.666c0-5.891-4.776-10.666-10.666-10.666l-113.464-0.002     L498.41,241.434C516.53,223.312,516.53,193.826,498.409,175.706z M483.325,226.35L226.341,483.334     c-4.713,4.712-11.013,7.31-17.742,7.32h-0.081c-6.727-0.011-13.025-2.608-17.736-7.32L56.195,348.746L302.99,101.949     c4.165-4.165,4.165-10.919,0-15.084c-4.166-4.165-10.918-4.165-15.085,0.001L41.11,333.663l-12.456-12.456     c-4.721-4.721-7.321-11.035-7.321-17.779c0-6.744,2.6-13.059,7.322-17.781L285.637,28.665c4.722-4.721,11.037-7.321,17.781-7.321     c6.744,0,13.059,2.6,17.781,7.322l57.703,57.702l-246.798,246.8c-4.165,4.164-4.165,10.918,0,15.085     c2.083,2.082,4.813,3.123,7.542,3.123c2.729,0,5.459-1.042,7.542-3.124l246.798-246.799l89.339,89.336     C493.128,200.593,493.127,216.546,483.325,226.35z"/><path d="M262.801,308.064c-4.165-4.165-10.917-4.164-15.085,0l-83.934,83.933c-4.165,4.165-4.165,10.918,0,15.085     c2.083,2.083,4.813,3.124,7.542,3.124c2.729,0,5.459-1.042,7.542-3.124l83.934-83.933     C266.966,318.982,266.966,312.229,262.801,308.064z"/><path d="M228.375,387.741l-34.425,34.425c-4.165,4.165-4.165,10.919,0,15.085c2.083,2.082,4.813,3.124,7.542,3.124     c2.731,0,5.459-1.042,7.542-3.124l34.425-34.425c4.165-4.165,4.165-10.919,0-15.085     C239.294,383.575,232.543,383.575,228.375,387.741z"/><path d="M260.054,356.065l-4.525,4.524c-4.166,4.165-4.166,10.918-0.001,15.085c2.082,2.083,4.813,3.125,7.542,3.125     c2.729,0,5.459-1.042,7.541-3.125l4.525-4.524c4.166-4.165,4.166-10.918,0.001-15.084     C270.974,351.901,264.219,351.9,260.054,356.065z"/><path d="M407.073,163.793c-2-2-4.713-3.124-7.542-3.124c-2.829,0-5.541,1.124-7.542,3.124l-45.255,45.254     c-2,2.001-3.124,4.713-3.124,7.542s1.124,5.542,3.124,7.542l30.17,30.167c2.083,2.083,4.813,3.124,7.542,3.124     c2.731,0,5.459-1.042,7.542-3.124l45.253-45.252c4.165-4.165,4.165-10.919,0-15.084L407.073,163.793z M384.445,231.673     l-15.085-15.084l30.17-30.169l15.084,15.085L384.445,231.673z"/><path d="M320.339,80.186c2.731,0,5.461-1.042,7.543-3.126l4.525-4.527c4.164-4.166,4.163-10.92-0.003-15.084     c-4.165-4.164-10.92-4.163-15.084,0.003l-4.525,4.527c-4.164,4.166-4.163,10.92,0.003,15.084     C314.881,79.146,317.609,80.186,320.339,80.186z"/><path d="M107.215,358.057l-4.525,4.525c-4.165,4.164-4.165,10.918,0,15.085c2.083,2.082,4.813,3.123,7.542,3.123     s5.459-1.041,7.542-3.123l4.525-4.525c4.165-4.166,4.165-10.92,0-15.085C118.133,353.891,111.381,353.891,107.215,358.057z"/></g><g transform="matrix(0.0390625 0 0 0.0390625 77.5 340)" id="L1_1"><path d="M346,319c-5.522,0-10,4.477-10,10v69c0,27.57-22.43,50-50,50H178.032c-5.521,0-9.996,4.473-10,9.993l-0.014,19.882    l-23.868-23.867c-1.545-3.547-5.081-6.008-9.171-6.008H70c-27.57,0-50-22.43-50-50V244c0-27.57,22.43-50,50-50h101    c5.522,0,10-4.477,10-10s-4.478-10-10-10H70c-38.598,0-70,31.402-70,70v154c0,38.598,31.402,70,70,70h59.858l41.071,41.071    c1.913,1.913,4.47,2.929,7.073,2.929c1.287,0,2.586-0.249,3.821-0.76c3.737-1.546,6.174-5.19,6.177-9.233L188.024,468H286    c38.598,0,70-31.402,70-70v-69C356,323.477,351.522,319,346,319z"/><path d="M366.655,0h-25.309C261.202,0,196,65.202,196,145.346s65.202,145.345,145.345,145.345h25.309    c12.509,0,24.89-1.589,36.89-4.729l37.387,37.366c1.913,1.911,4.469,2.927,7.071,2.927c1.289,0,2.589-0.249,3.826-0.762    c3.736-1.548,6.172-5.194,6.172-9.238v-57.856c15.829-12.819,28.978-29.012,38.206-47.102    C506.687,190.751,512,168.562,512,145.346C512,65.202,446.798,0,366.655,0z M441.983,245.535    c-2.507,1.889-3.983,4.847-3.983,7.988v38.6l-24.471-24.458c-1.904-1.902-4.458-2.927-7.07-2.927c-0.98,0-1.97,0.145-2.936,0.442    c-11.903,3.658-24.307,5.512-36.868,5.512h-25.309c-69.117,0-125.346-56.23-125.346-125.346S272.23,20,341.346,20h25.309    C435.771,20,492,76.23,492,145.346C492,185.077,473.77,221.595,441.983,245.535z"/><path d="M399.033,109.421c-1.443-20.935-18.319-37.811-39.255-39.254c-11.868-0.815-23.194,3.188-31.863,11.281    c-8.55,7.981-13.453,19.263-13.453,30.954c0,5.523,4.478,10,10,10c5.522,0,10-4.477,10-10c0-6.259,2.522-12.06,7.1-16.333    c4.574-4.269,10.552-6.382,16.842-5.948c11.028,0.76,19.917,9.649,20.677,20.676c0.768,11.137-6.539,20.979-17.373,23.403    c-8.778,1.964-14.908,9.592-14.908,18.549v24.025c0,5.523,4.478,10,10,10c5.523,0,10-4.477,9.999-10v-23.226    C386.949,148.68,400.468,130.242,399.033,109.421z"/><path d="M363.87,209.26c-1.86-1.86-4.44-2.93-7.07-2.93s-5.21,1.07-7.07,2.93c-1.86,1.86-2.93,4.44-2.93,7.07    c0,2.64,1.071,5.22,2.93,7.08c1.86,1.86,4.44,2.92,7.07,2.92s5.21-1.06,7.07-2.92c1.86-1.87,2.93-4.44,2.93-7.08    C366.8,213.7,365.729,211.12,363.87,209.26z"/><path d="M275,310H64c-5.522,0-10,4.477-10,10s4.478,10,10,10h211c5.523,0,10-4.477,10-10S280.522,310,275,310z"/><path d="M282.069,368.93C280.21,367.07,277.63,366,275,366s-5.21,1.07-7.07,2.93c-1.861,1.86-2.93,4.44-2.93,7.07    s1.07,5.21,2.93,7.07c1.86,1.86,4.44,2.93,7.07,2.93s5.21-1.07,7.069-2.93c1.861-1.86,2.931-4.43,2.931-7.07    C285,373.37,283.929,370.79,282.069,368.93z"/><path d="M235.667,366H64c-5.522,0-10,4.477-10,10s4.478,10,10,10h171.667c5.523,0,10-4.477,10-10S241.189,366,235.667,366z"/><path d="M210,254H64c-5.522,0-10,4.477-10,10s4.478,10,10,10h146c5.523,0,10-4.477,10-10S215.522,254,210,254z"/></g><g transform="matrix(0.07812514901161194 0 0 0.07812514901161194 242.5 67.5)" id="L1_2"><path d="M214.685,402.828c-24.829,0-45.029,20.2-45.029,45.029c0,24.829,20.2,45.029,45.029,45.029s45.029-20.2,45.029-45.029    C259.713,423.028,239.513,402.828,214.685,402.828z M214.685,467.742c-10.966,0-19.887-8.922-19.887-19.887    c0-10.966,8.922-19.887,19.887-19.887s19.887,8.922,19.887,19.887C234.572,458.822,225.65,467.742,214.685,467.742z"/><path d="M372.63,402.828c-24.829,0-45.029,20.2-45.029,45.029c0,24.829,20.2,45.029,45.029,45.029s45.029-20.2,45.029-45.029    C417.658,423.028,397.458,402.828,372.63,402.828z M372.63,467.742c-10.966,0-19.887-8.922-19.887-19.887    c0-10.966,8.922-19.887,19.887-19.887c10.966,0,19.887,8.922,19.887,19.887C392.517,458.822,383.595,467.742,372.63,467.742z"/><path d="M383.716,165.755H203.567c-6.943,0-12.571,5.628-12.571,12.571c0,6.943,5.629,12.571,12.571,12.571h180.149    c6.943,0,12.571-5.628,12.571-12.571C396.287,171.382,390.659,165.755,383.716,165.755z"/><path d="M373.911,231.035H213.373c-6.943,0-12.571,5.628-12.571,12.571s5.628,12.571,12.571,12.571h160.537    c6.943,0,12.571-5.628,12.571-12.571C386.481,236.664,380.853,231.035,373.911,231.035z"/><path d="M506.341,109.744c-4.794-5.884-11.898-9.258-19.489-9.258H95.278L87.37,62.097c-1.651-8.008-7.113-14.732-14.614-17.989    l-55.177-23.95c-6.37-2.767-13.773,0.156-16.536,6.524c-2.766,6.37,0.157,13.774,6.524,16.537L62.745,67.17l60.826,295.261    c2.396,11.628,12.752,20.068,24.625,20.068h301.166c6.943,0,12.571-5.628,12.571-12.571c0-6.943-5.628-12.571-12.571-12.571    H148.197l-7.399-35.916H451.69c11.872,0,22.229-8.44,24.624-20.068l35.163-170.675    C513.008,123.266,511.136,115.627,506.341,109.744z M451.69,296.301H135.619l-35.161-170.674l386.393,0.001L451.69,296.301z"/></g><g transform="matrix(0.1599634438753128 0 0 0.1599634438753128 315 140)" id="L1_3"><path d="M194,142.8c0.8,1.6,1.6,3.2,2.4,4.4c0.8,1.2,2,2.4,2.8,3.6c1.2,1.2,2.4,2.4,4,3.6c1.2,0.8,2.8,2,4.8,2.4     c1.6,0.8,3.2,1.2,5.2,1.6c2,0.4,3.6,0.4,5.2,0.4c1.6,0,3.6,0,5.2-0.4c1.6-0.4,3.2-0.8,4.4-1.6h0.4c1.6-0.8,3.2-1.6,4.8-2.8     c1.2-0.8,2.4-2,3.6-3.2l0.4-0.4c1.2-1.2,2-2.4,2.8-3.6s1.6-2.4,2-4c0-0.4,0-0.4,0.4-0.8c0.8-1.6,1.2-3.6,1.6-5.2     c0.4-1.6,0.4-3.6,0.4-5.2s0-3.6-0.4-5.2c-0.4-1.6-0.8-3.2-1.6-5.2c-1.2-2.8-2.8-5.2-4.8-7.2c-0.4-0.4-0.4-0.4-0.8-0.8     c-1.2-1.2-2.4-2-4-3.2c-1.6-0.8-2.8-1.6-4.4-2.4c-1.6-0.8-3.2-1.2-4.8-1.6c-2-0.4-3.6-0.4-5.2-0.4c-1.6,0-3.6,0-5.2,0.4     c-1.6,0.4-3.2,0.8-4.8,1.6H208c-1.6,0.8-3.2,1.6-4.4,2.4c-1.6,1.2-2.8,2-4,3.2c-1.2,1.2-2.4,2.4-3.2,3.6     c-0.8,1.2-1.6,2.8-2.4,4.4c-0.8,1.6-1.2,3.2-1.6,4.8c-0.4,2-0.4,3.6-0.4,5.2c0,1.6,0,3.6,0.4,5.2     C192.8,139.6,193.6,141.2,194,142.8z"/><path d="M249.6,289.2h-9.2v-98c0-5.6-4.4-10.4-10.4-10.4h-42c-5.6,0-10.4,4.4-10.4,10.4v21.6c0,5.6,4.4,10.4,10.4,10.4h8.4v66.4     H188c-5.6,0-10.4,4.4-10.4,10.4v21.6c0,5.6,4.4,10.4,10.4,10.4h61.6c5.6,0,10.4-4.4,10.4-10.4V300     C260,294,255.2,289.2,249.6,289.2z"/><path d="M218.8,0C98,0,0,98,0,218.8s98,218.8,218.8,218.8s218.8-98,218.8-218.8S339.6,0,218.8,0z M218.8,408.8     c-104.8,0-190-85.2-190-190s85.2-190,190-190s190,85.2,190,190S323.6,408.8,218.8,408.8z"/></g><g transform="matrix(0.09765625 0 0 0.09765625 62.5 237.5)" id="L1_4"><path d="M474.994,246.001h-74.012v-236c0-4.044-2.437-7.691-6.173-9.239c-3.738-1.549-8.039-0.691-10.898,2.167l-28.329,28.328    L327.255,2.93c-3.905-3.905-10.237-3.905-14.143,0l-28.328,28.328L256.459,2.93c-3.905-3.905-10.237-3.905-14.143,0    l-28.328,28.328L185.659,2.93c-3.905-3.905-10.237-3.905-14.142,0l-28.328,28.328L114.863,2.93    c-3.905-3.905-10.237-3.905-14.143,0L72.392,31.258L44.065,2.93c-3.881-3.881-10.158-3.901-14.073-0.055    c-2.056,2.021-3.053,4.714-2.984,7.389v449.738c0,28.672,23.326,51.998,51.998,51.998h353.976c0.002,0,0.003,0,0.005,0    c0.003,0,0.006,0,0.009,0c28.672,0,51.998-23.326,51.998-51.998V256C484.994,250.477,480.517,246.001,474.994,246.001z     M79.006,492c-17.645,0-31.999-14.355-31.999-31.999V34.156L65.321,52.47c3.905,3.905,10.237,3.905,14.143,0l28.328-28.328    L136.12,52.47c3.905,3.905,10.237,3.905,14.143,0l28.328-28.328L206.92,52.47c3.905,3.905,10.237,3.905,14.142,0l28.328-28.328    l28.328,28.328c3.905,3.905,10.237,3.905,14.143,0l28.328-28.328l28.328,28.328c3.906,3.905,10.238,3.905,14.142,0l18.329-18.328    V256c0,0.091,0.011,0.18,0.014,0.271v203.73c0,12.062,4.14,23.168,11.057,31.999H79.006z M464.994,460.001    c0,17.644-14.355,31.999-31.999,31.999s-31.999-14.355-31.999-31.999V266h63.998V460.001z"/><path d="M213.995,158.855c-9.925,0-17.999-6.914-17.999-15.411c0-8.498,8.075-15.412,17.999-15.412    c9.925,0,17.999,6.914,17.999,15.412c0,5.523,4.477,10,10,10c5.523,0,10-4.477,10-10c0-16.301-11.884-30.055-27.999-34.157v-6.774    c0-5.523-4.477-10-10-10s-10,4.477-10,10v6.774c-16.116,4.102-27.999,17.857-27.999,34.157c0,19.525,17.047,35.41,37.999,35.41    c9.925,0,17.999,6.914,17.999,15.412s-8.074,15.411-17.999,15.411c-9.925,0-17.999-6.914-17.999-15.411c0-5.523-4.477-10-10-10    s-10,4.477-10,10c0,16.301,11.884,30.055,27.999,34.157v8.16c0,5.523,4.477,10,10,10s10-4.477,10-10v-8.16    c16.116-4.102,27.999-17.856,27.999-34.157C251.994,174.741,234.947,158.855,213.995,158.855z"/><path d="M314.461,158.856h-19.49c-5.523,0-10,4.477-10,10s4.477,10,10,10h19.49c5.523,0,10-4.477,10-10    S319.984,158.856,314.461,158.856z"/><path d="M133.02,158.856h-19.49c-5.523,0-10,4.477-10,10s4.477,10,10,10h19.49c5.523,0,10-4.477,10-10    S138.543,158.856,133.02,158.856z"/><path d="M319.52,270.007H161.097c-5.523,0-10,4.477-10,10c0,5.523,4.477,10,10,10H319.52c5.523,0,10-4.477,10-10    C329.519,274.484,325.043,270.007,319.52,270.007z"/><path d="M115.538,272.937c-1.86-1.86-4.44-2.93-7.07-2.93c-2.63,0-5.21,1.07-7.07,2.93c-1.86,1.86-2.93,4.44-2.93,7.07    c0,2.63,1.07,5.21,2.93,7.07c1.86,1.86,4.44,2.93,7.07,2.93c2.63,0,5.21-1.07,7.07-2.93c1.86-1.86,2.93-4.44,2.93-7.07    C118.468,277.377,117.398,274.797,115.538,272.937z"/><path d="M319.52,336.005H161.097c-5.523,0-10,4.477-10,10c0,5.523,4.477,10,10,10H319.52c5.523,0,10-4.477,10-10    C329.519,340.482,325.043,336.005,319.52,336.005z"/><path d="M115.538,338.935c-1.86-1.86-4.44-2.93-7.07-2.93c-2.63,0-5.21,1.07-7.07,2.93c-1.86,1.86-2.93,4.44-2.93,7.07    c0,2.63,1.07,5.21,2.93,7.07c1.86,1.86,4.44,2.93,7.07,2.93c2.63,0,5.21-1.07,7.07-2.93c1.86-1.86,2.93-4.44,2.93-7.07    C118.468,343.375,117.398,340.795,115.538,338.935z"/><path d="M319.52,402.003H161.097c-5.523,0-10,4.477-10,10s4.477,10,10,10H319.52c5.523,0,10-4.477,10-10    S325.043,402.003,319.52,402.003z"/><path d="M115.538,404.933c-1.86-1.86-4.44-2.93-7.07-2.93c-2.63,0-5.21,1.07-7.07,2.93c-1.86,1.86-2.93,4.44-2.93,7.07    s1.07,5.21,2.93,7.07c1.86,1.86,4.44,2.93,7.07,2.93c2.63,0,5.21-1.07,7.07-2.93c1.86-1.86,2.93-4.44,2.93-7.07    S117.398,406.793,115.538,404.933z"/></g><g transform="matrix(0.7017543911933899 0 0 0.7017543911933899 67.5 67.5)" id="L1_5"><path d="M56,41H6V11h50V41z M8,39h46V13H8V39z" fill="#a5a5a4"/><path d="M7,2H2C1.448,2,1,1.553,1,1s0.448-1,1-1h5c0.552,0,1,0.447,1,1S7.552,2,7,2z" fill="#a5a5a4"/><path d="M7,13c-0.552,0-1-0.447-1-1V1c0-0.553,0.448-1,1-1s1,0.447,1,1v11C8,12.553,7.552,13,7,13z" fill="#a5a5a4"/><path d="M7,49c-0.552,0-1-0.447-1-1v-8c0-0.553,0.448-1,1-1s1,0.447,1,1v8C8,48.553,7.552,49,7,49z" fill="#a5a5a4"/><circle cx="17" cy="53" r="4" fill="#556080"/><circle cx="41" cy="53" r="4" fill="#556080"/><path d="M50,49H7c-0.552,0-1-0.447-1-1s0.448-1,1-1h43c0.552,0,1,0.447,1,1S50.552,49,50,49z" fill="#a5a5a4"/><path d="M15,41c-0.552,0-1-0.447-1-1V12c0-0.553,0.448-1,1-1s1,0.447,1,1v28C16,40.553,15.552,41,15,41z" fill="#a5a5a4"/><path d="M31,41c-0.552,0-1-0.447-1-1V12c0-0.553,0.448-1,1-1s1,0.447,1,1v28C32,40.553,31.552,41,31,41z" fill="#a5a5a4"/><path d="M23,41c-0.552,0-1-0.447-1-1V12c0-0.553,0.448-1,1-1s1,0.447,1,1v28C24,40.553,23.552,41,23,41z" fill="#a5a5a4"/><path d="M39,41c-0.552,0-1-0.447-1-1V12c0-0.553,0.448-1,1-1s1,0.447,1,1v28C40,40.553,39.552,41,39,41z" fill="#a5a5a4"/><path d="M47,41c-0.552,0-1-0.447-1-1V12c0-0.553,0.448-1,1-1s1,0.447,1,1v28C48,40.553,47.552,41,47,41z" fill="#a5a5a4"/></g><g transform="matrix(0.0390625 0 0 0.0390625 252.5 340)" id="L1_6"><path d="M32,271.692v192c0,17.664,14.368,32,32,32h160v-224H32z"/><path d="M480,143.692H378.752c7.264-4.96,13.504-9.888,17.856-14.304c25.824-25.952,25.824-68.192,0-94.144    c-25.088-25.28-68.8-25.216-93.856,0c-13.888,13.92-50.688,70.592-45.6,108.448h-2.304c5.056-37.856-31.744-94.528-45.6-108.448    c-25.088-25.216-68.8-25.216-93.856,0C89.6,61.196,89.6,103.436,115.36,129.388c4.384,4.416,10.624,9.344,17.888,14.304H32    c-17.632,0-32,14.368-32,32v48c0,8.832,7.168,16,16,16h208v-64h64v64h208c8.832,0,16-7.168,16-16v-48    C512,158.06,497.664,143.692,480,143.692z M222.112,142.636c0,0-1.344,1.056-5.92,1.056c-22.112,0-64.32-22.976-78.112-36.864    c-13.408-13.504-13.408-35.52,0-49.024c6.496-6.528,15.104-10.112,24.256-10.112c9.12,0,17.728,3.584,24.224,10.112    C208.128,79.5,229.568,134.924,222.112,142.636z M295.776,143.692c-4.544,0-5.888-1.024-5.888-1.056    c-7.456-7.712,13.984-63.136,35.552-84.832c12.896-13.024,35.456-13.088,48.48,0c13.44,13.504,13.44,35.52,0,49.024    C360.128,120.716,317.92,143.692,295.776,143.692z"/><path d="M288,271.692v224h160c17.664,0,32-14.336,32-32v-192H288z"/></g><g transform="matrix(0.7142857313156128 0 0 0.7142857313156128 155 330)" id="L1_7"><path d="M46,44l2-1V1l-2,2l-3-3l-3,3l-3-3l-3,3l-3-3l-3,3l-3-3l-3,3l-3-3l-3,3l-3-3l-3,3L8,1v41.286L10,44   l-2.088,2l-2.697,8.562C5.102,55.319,5.689,56,6.454,56h43.091c0.766,0,1.352-0.681,1.239-1.438L48,46L46,44z" fill="#f0d7b8"/><g><path d="M15.717,43H11c-0.553,0-1,0.447-1,1s0.447,1,1,1h4.717c0.553,0,1-0.447,1-1S16.27,43,15.717,43z" fill="#ceb69e"/><path d="M25.907,43H19c-0.553,0-1,0.447-1,1s0.447,1,1,1h6.907c0.553,0,1-0.447,1-1S26.46,43,25.907,43z" fill="#ceb69e"/><path d="M34.145,43H30c-0.553,0-1,0.447-1,1s0.447,1,1,1h4.145c0.553,0,1-0.447,1-1S34.697,43,34.145,43z" fill="#ceb69e"/><path d="M46.592,43h-7.599c-0.553,0-1,0.447-1,1s0.447,1,1,1h7.599c0.553,0,1-0.447,1-1    S47.145,43,46.592,43z" fill="#ceb69e"/></g><circle cx="20" cy="15" r="3" fill="#72543a"/><circle cx="36" cy="15" r="3" fill="#72543a"/><path d="M28,30c-4.963,0-9-4.037-9-9v-6c0-0.553,0.447-1,1-1s1,0.447,1,1v6c0,3.859,3.141,7,7,7s7-3.141,7-7   v-6c0-0.553,0.447-1,1-1s1,0.447,1,1v6C37,25.963,32.963,30,28,30z" fill="#ceb69e"/></g><g transform="matrix(1.16577254102837 -0.31236781092692956 0.31236781092692956 1.16577254102837 132.13392955487774 150.25126258863963)" id="L1_8"><rect x="0px" y="20px" width="58px" height="6px" fill="#c03a2b"/><path d="M52.433,58H5.567C3.597,58,2,56.403,2,54.433V26h54v28.433C56,56.403,54.403,58,52.433,58z" fill="#e64c3c"/><path d="M29,24c-0.256,0-0.512-0.098-0.707-0.293c-0.391-0.391-0.391-1.023,0-1.414L47.385,3.201   c0.391-0.391,1.023-0.391,1.414,0s0.391,1.023,0,1.414L29.707,23.707C29.512,23.902,29.256,24,29,24z" fill="#556080"/><path d="M13,33H9c-0.552,0-1-0.447-1-1s0.448-1,1-1h4c0.552,0,1,0.447,1,1S13.552,33,13,33z" fill="#ed7161"/><path d="M13,37H9c-0.552,0-1-0.447-1-1s0.448-1,1-1h4c0.552,0,1,0.447,1,1S13.552,37,13,37z" fill="#ed7161"/><path d="M13,41H9c-0.552,0-1-0.447-1-1s0.448-1,1-1h4c0.552,0,1,0.447,1,1S13.552,41,13,41z" fill="#ed7161"/><path d="M13,45H9c-0.552,0-1-0.447-1-1s0.448-1,1-1h4c0.552,0,1,0.447,1,1S13.552,45,13,45z" fill="#ed7161"/><path d="M13,49H9c-0.552,0-1-0.447-1-1s0.448-1,1-1h4c0.552,0,1,0.447,1,1S13.552,49,13,49z" fill="#ed7161"/><path d="M13,53H9c-0.552,0-1-0.447-1-1s0.448-1,1-1h4c0.552,0,1,0.447,1,1S13.552,53,13,53z" fill="#ed7161"/><path d="M25,33h-4c-0.552,0-1-0.447-1-1s0.448-1,1-1h4c0.552,0,1,0.447,1,1S25.552,33,25,33z" fill="#ed7161"/><path d="M25,37h-4c-0.552,0-1-0.447-1-1s0.448-1,1-1h4c0.552,0,1,0.447,1,1S25.552,37,25,37z" fill="#ed7161"/><path d="M25,41h-4c-0.552,0-1-0.447-1-1s0.448-1,1-1h4c0.552,0,1,0.447,1,1S25.552,41,25,41z" fill="#ed7161"/><path d="M25,45h-4c-0.552,0-1-0.447-1-1s0.448-1,1-1h4c0.552,0,1,0.447,1,1S25.552,45,25,45z" fill="#ed7161"/><path d="M25,49h-4c-0.552,0-1-0.447-1-1s0.448-1,1-1h4c0.552,0,1,0.447,1,1S25.552,49,25,49z" fill="#ed7161"/><path d="M25,53h-4c-0.552,0-1-0.447-1-1s0.448-1,1-1h4c0.552,0,1,0.447,1,1S25.552,53,25,53z" fill="#ed7161"/><path d="M37,33h-4c-0.552,0-1-0.447-1-1s0.448-1,1-1h4c0.552,0,1,0.447,1,1S37.552,33,37,33z" fill="#ed7161"/><path d="M37,37h-4c-0.552,0-1-0.447-1-1s0.448-1,1-1h4c0.552,0,1,0.447,1,1S37.552,37,37,37z" fill="#ed7161"/><path d="M37,41h-4c-0.552,0-1-0.447-1-1s0.448-1,1-1h4c0.552,0,1,0.447,1,1S37.552,41,37,41z" fill="#ed7161"/><path d="M37,45h-4c-0.552,0-1-0.447-1-1s0.448-1,1-1h4c0.552,0,1,0.447,1,1S37.552,45,37,45z" fill="#ed7161"/><path d="M37,49h-4c-0.552,0-1-0.447-1-1s0.448-1,1-1h4c0.552,0,1,0.447,1,1S37.552,49,37,49z" fill="#ed7161"/><path d="M37,53h-4c-0.552,0-1-0.447-1-1s0.448-1,1-1h4c0.552,0,1,0.447,1,1S37.552,53,37,53z" fill="#ed7161"/><path d="M49,33h-4c-0.552,0-1-0.447-1-1s0.448-1,1-1h4c0.552,0,1,0.447,1,1S49.552,33,49,33z" fill="#ed7161"/><path d="M49,37h-4c-0.552,0-1-0.447-1-1s0.448-1,1-1h4c0.552,0,1,0.447,1,1S49.552,37,49,37z" fill="#ed7161"/><path d="M49,41h-4c-0.552,0-1-0.447-1-1s0.448-1,1-1h4c0.552,0,1,0.447,1,1S49.552,41,49,41z" fill="#ed7161"/><path d="M49,45h-4c-0.552,0-1-0.447-1-1s0.448-1,1-1h4c0.552,0,1,0.447,1,1S49.552,45,49,45z" fill="#ed7161"/><path d="M49,49h-4c-0.552,0-1-0.447-1-1s0.448-1,1-1h4c0.552,0,1,0.447,1,1S49.552,49,49,49z" fill="#ed7161"/><path d="M49,53h-4c-0.552,0-1-0.447-1-1s0.448-1,1-1h4c0.552,0,1,0.447,1,1S49.552,53,49,53z" fill="#ed7161"/><path d="M29,24c-0.256,0-0.512-0.098-0.707-0.293L9.201,4.615c-0.391-0.391-0.391-1.023,0-1.414   s1.023-0.391,1.414,0l19.092,19.092c0.391,0.391,0.391,1.023,0,1.414C29.512,23.902,29.256,24,29,24z" fill="#556080"/><circle cx="10" cy="4" r="4" fill="#f3d55b"/><circle cx="48" cy="4" r="4" fill="#f3d55b"/></g><g transform="matrix(1.5517241954803467 0 0 1.5517241954803467 217.5 217.5)" id="L1_9"><path d="M24,27.044c0-0.712,0.154-1.387,0.422-2H2c-1.1,0-2,0.9-2,2s0.9,2,2,2h22.422   C24.154,28.43,24,27.756,24,27.044z" fill="#71c285"/><path d="M33.578,29.044c-0.772,1.764-2.529,3-4.578,3s-3.806-1.236-4.578-3H3l9.247,25.892   c0.451,1.264,1.649,2.108,2.991,2.108h27.523c1.342,0,2.54-0.844,2.991-2.108L55,29.044H33.578z" fill="#24ae5f"/><path d="M56,25.044H33.649l-0.046,0.046c0.015,0.035,0.02,0.075,0.035,0.111   c0.104,0.26,0.192,0.528,0.252,0.808c0.006,0.027,0.008,0.055,0.013,0.083C33.964,26.4,34,26.717,34,27.044   c0,0.322-0.035,0.635-0.095,0.939c-0.006,0.032-0.009,0.064-0.015,0.096c-0.058,0.272-0.144,0.533-0.244,0.786   c-0.023,0.059-0.042,0.12-0.068,0.178l0,0H56c1.1,0,2-0.9,2-2S57.1,25.044,56,25.044z" fill="#71c285"/><path d="M47,37.044H11c-0.552,0-1-0.447-1-1s0.448-1,1-1h36c0.552,0,1,0.447,1,1S47.552,37.044,47,37.044z" fill="#a4e869"/><path d="M44,42.044H14c-0.552,0-1-0.447-1-1s0.448-1,1-1h30c0.552,0,1,0.447,1,1S44.552,42.044,44,42.044z" fill="#a4e869"/><path d="M41,47.044H17c-0.552,0-1-0.447-1-1s0.448-1,1-1h24c0.552,0,1,0.447,1,1S41.552,47.044,41,47.044z" fill="#a4e869"/><path d="M39,52.044H19c-0.552,0-1-0.447-1-1s0.448-1,1-1h20c0.552,0,1,0.447,1,1S39.552,52.044,39,52.044z" fill="#a4e869"/><path d="M24.397,25.09L3.675,4.368c-0.778-0.778-0.778-2.051,0-2.828s2.051-0.778,2.828,0l20.815,20.814" fill="#f3d55b"/><path d="M33.603,25.09L54.325,4.368c0.778-0.778,0.778-2.051,0-2.828s-2.051-0.778-2.828,0L30.682,22.354" fill="#f0c419"/><circle cx="29" cy="27" r="5" fill="#4fba6f"/></g></defs><g fi:class="KUsePattern"><pattern id="pattern_L1_0" width="350" height="350" patternUnits="userSpaceOnUse"><use xlink:href="#L1_0" x="-350" y="-350"/><use xlink:href="#L1_0" x="0" y="-350"/><use xlink:href="#L1_0" x="350" y="-350"/><use xlink:href="#L1_0" x="-350" y="0"/><use xlink:href="#L1_0" x="0" y="0"/><use xlink:href="#L1_0" x="350" y="0"/><use xlink:href="#L1_0" x="-350" y="350"/><use xlink:href="#L1_0" x="0" y="350"/><use xlink:href="#L1_0" x="350" y="350"/></pattern><rect x="0" y="0" width="100%" height="100%" fill="url(#pattern_L1_0)"/></g><g fi:class="KUsePattern"><pattern id="pattern_L1_1" width="350" height="350" patternUnits="userSpaceOnUse"><use xlink:href="#L1_1" x="-350" y="-350"/><use xlink:href="#L1_1" x="0" y="-350"/><use xlink:href="#L1_1" x="350" y="-350"/><use xlink:href="#L1_1" x="-350" y="0"/><use xlink:href="#L1_1" x="0" y="0"/><use xlink:href="#L1_1" x="350" y="0"/><use xlink:href="#L1_1" x="-350" y="350"/><use xlink:href="#L1_1" x="0" y="350"/><use xlink:href="#L1_1" x="350" y="350"/></pattern><rect x="0" y="0" width="100%" height="100%" fill="url(#pattern_L1_1)"/></g><g fi:class="KUsePattern"><pattern id="pattern_L1_2" width="350" height="350" patternUnits="userSpaceOnUse"><use xlink:href="#L1_2" x="-350" y="-350"/><use xlink:href="#L1_2" x="0" y="-350"/><use xlink:href="#L1_2" x="350" y="-350"/><use xlink:href="#L1_2" x="-350" y="0"/><use xlink:href="#L1_2" x="0" y="0"/><use xlink:href="#L1_2" x="350" y="0"/><use xlink:href="#L1_2" x="-350" y="350"/><use xlink:href="#L1_2" x="0" y="350"/><use xlink:href="#L1_2" x="350" y="350"/></pattern><rect x="0" y="0" width="100%" height="100%" fill="url(#pattern_L1_2)"/></g><g fi:class="KUsePattern"><pattern id="pattern_L1_3" width="350" height="350" patternUnits="userSpaceOnUse"><use xlink:href="#L1_3" x="-350" y="-350"/><use xlink:href="#L1_3" x="0" y="-350"/><use xlink:href="#L1_3" x="350" y="-350"/><use xlink:href="#L1_3" x="-350" y="0"/><use xlink:href="#L1_3" x="0" y="0"/><use xlink:href="#L1_3" x="350" y="0"/><use xlink:href="#L1_3" x="-350" y="350"/><use xlink:href="#L1_3" x="0" y="350"/><use xlink:href="#L1_3" x="350" y="350"/></pattern><rect x="0" y="0" width="100%" height="100%" fill="url(#pattern_L1_3)"/></g><g fi:class="KUsePattern"><pattern id="pattern_L1_4" width="350" height="350" patternUnits="userSpaceOnUse"><use xlink:href="#L1_4" x="-350" y="-350"/><use xlink:href="#L1_4" x="0" y="-350"/><use xlink:href="#L1_4" x="350" y="-350"/><use xlink:href="#L1_4" x="-350" y="0"/><use xlink:href="#L1_4" x="0" y="0"/><use xlink:href="#L1_4" x="350" y="0"/><use xlink:href="#L1_4" x="-350" y="350"/><use xlink:href="#L1_4" x="0" y="350"/><use xlink:href="#L1_4" x="350" y="350"/></pattern><rect x="0" y="0" width="100%" height="100%" fill="url(#pattern_L1_4)"/></g><g fi:class="KUsePattern"><pattern id="pattern_L1_5" width="350" height="350" patternUnits="userSpaceOnUse"><use xlink:href="#L1_5" x="-350" y="-350"/><use xlink:href="#L1_5" x="0" y="-350"/><use xlink:href="#L1_5" x="350" y="-350"/><use xlink:href="#L1_5" x="-350" y="0"/><use xlink:href="#L1_5" x="0" y="0"/><use xlink:href="#L1_5" x="350" y="0"/><use xlink:href="#L1_5" x="-350" y="350"/><use xlink:href="#L1_5" x="0" y="350"/><use xlink:href="#L1_5" x="350" y="350"/></pattern><rect x="0" y="0" width="100%" height="100%" fill="url(#pattern_L1_5)"/></g><g fi:class="KUsePattern"><pattern id="pattern_L1_6" width="350" height="350" patternUnits="userSpaceOnUse"><use xlink:href="#L1_6" x="-350" y="-350"/><use xlink:href="#L1_6" x="0" y="-350"/><use xlink:href="#L1_6" x="350" y="-350"/><use xlink:href="#L1_6" x="-350" y="0"/><use xlink:href="#L1_6" x="0" y="0"/><use xlink:href="#L1_6" x="350" y="0"/><use xlink:href="#L1_6" x="-350" y="350"/><use xlink:href="#L1_6" x="0" y="350"/><use xlink:href="#L1_6" x="350" y="350"/></pattern><rect x="0" y="0" width="100%" height="100%" fill="url(#pattern_L1_6)"/></g><g fi:class="KUsePattern"><pattern id="pattern_L1_7" width="350" height="350" patternUnits="userSpaceOnUse"><use xlink:href="#L1_7" x="-350" y="-350"/><use xlink:href="#L1_7" x="0" y="-350"/><use xlink:href="#L1_7" x="350" y="-350"/><use xlink:href="#L1_7" x="-350" y="0"/><use xlink:href="#L1_7" x="0" y="0"/><use xlink:href="#L1_7" x="350" y="0"/><use xlink:href="#L1_7" x="-350" y="350"/><use xlink:href="#L1_7" x="0" y="350"/><use xlink:href="#L1_7" x="350" y="350"/></pattern><rect x="0" y="0" width="100%" height="100%" fill="url(#pattern_L1_7)"/></g><g fi:class="KUsePattern"><pattern id="pattern_L1_8" width="350" height="350" patternUnits="userSpaceOnUse"><use xlink:href="#L1_8" x="-350" y="-350"/><use xlink:href="#L1_8" x="0" y="-350"/><use xlink:href="#L1_8" x="350" y="-350"/><use xlink:href="#L1_8" x="-350" y="0"/><use xlink:href="#L1_8" x="0" y="0"/><use xlink:href="#L1_8" x="350" y="0"/><use xlink:href="#L1_8" x="-350" y="350"/><use xlink:href="#L1_8" x="0" y="350"/><use xlink:href="#L1_8" x="350" y="350"/></pattern><rect x="0" y="0" width="100%" height="100%" fill="url(#pattern_L1_8)"/></g><g fi:class="KUsePattern"><pattern id="pattern_L1_9" width="350" height="350" patternUnits="userSpaceOnUse"><use xlink:href="#L1_9" x="-350" y="-350"/><use xlink:href="#L1_9" x="0" y="-350"/><use xlink:href="#L1_9" x="350" y="-350"/><use xlink:href="#L1_9" x="-350" y="0"/><use xlink:href="#L1_9" x="0" y="0"/><use xlink:href="#L1_9" x="350" y="0"/><use xlink:href="#L1_9" x="-350" y="350"/><use xlink:href="#L1_9" x="0" y="350"/><use xlink:href="#L1_9" x="350" y="350"/></pattern><rect x="0" y="0" width="100%" height="100%" fill="url(#pattern_L1_9)"/></g></svg>